<svg width="922" height="747" viewBox="0 0 922 747" fill="none" xmlns="http://www.w3.org/2000/svg">
<ellipse cx="69.2" cy="740.808" rx="6.2" ry="6.19171" fill="#F8FFFF" fill-opacity="0.22"/>
<ellipse cx="96.325" cy="740.808" rx="6.2" ry="6.19171" fill="#F8FFFF" fill-opacity="0.22"/>
<ellipse cx="123.45" cy="740.808" rx="6.2" ry="6.19171" fill="#F8FFFF" fill-opacity="0.22"/>
<ellipse cx="150.575" cy="740.808" rx="6.2" ry="6.19171" fill="#F8FFFF" fill-opacity="0.22"/>
<ellipse cx="177.7" cy="740.808" rx="6.2" ry="6.19171" fill="#F8FFFF" fill-opacity="0.22"/>
<ellipse cx="204.825" cy="740.808" rx="6.2" ry="6.19171" fill="#F8FFFF" fill-opacity="0.22"/>
<ellipse cx="231.95" cy="740.808" rx="6.2" ry="6.19171" fill="#F8FFFF" fill-opacity="0.22"/>
<ellipse cx="259.075" cy="740.808" rx="6.2" ry="6.19171" fill="#F8FFFF" fill-opacity="0.22"/>
<ellipse cx="69.2" cy="715.267" rx="6.2" ry="6.19171" fill="#F8FFFF" fill-opacity="0.22"/>
<ellipse cx="96.325" cy="715.267" rx="6.2" ry="6.19171" fill="#F8FFFF" fill-opacity="0.22"/>
<ellipse cx="123.45" cy="715.267" rx="6.2" ry="6.19171" fill="#F8FFFF" fill-opacity="0.22"/>
<ellipse cx="150.575" cy="715.267" rx="6.2" ry="6.19171" fill="#F8FFFF" fill-opacity="0.22"/>
<ellipse cx="177.7" cy="715.267" rx="6.2" ry="6.19171" fill="#F8FFFF" fill-opacity="0.22"/>
<ellipse cx="204.825" cy="715.267" rx="6.2" ry="6.19171" fill="#F8FFFF" fill-opacity="0.22"/>
<ellipse cx="231.95" cy="715.267" rx="6.2" ry="6.19171" fill="#F8FFFF" fill-opacity="0.22"/>
<ellipse cx="259.075" cy="715.267" rx="6.2" ry="6.19171" fill="#F8FFFF" fill-opacity="0.22"/>
<ellipse cx="69.2" cy="689.726" rx="6.2" ry="6.19171" fill="#F8FFFF" fill-opacity="0.22"/>
<ellipse cx="96.325" cy="689.726" rx="6.2" ry="6.19171" fill="#F8FFFF" fill-opacity="0.22"/>
<ellipse cx="123.45" cy="689.726" rx="6.2" ry="6.19171" fill="#F8FFFF" fill-opacity="0.22"/>
<ellipse cx="150.575" cy="689.726" rx="6.2" ry="6.19171" fill="#F8FFFF" fill-opacity="0.22"/>
<ellipse cx="177.7" cy="689.726" rx="6.2" ry="6.19171" fill="#F8FFFF" fill-opacity="0.22"/>
<ellipse cx="204.825" cy="689.726" rx="6.2" ry="6.19171" fill="#F8FFFF" fill-opacity="0.22"/>
<ellipse cx="231.95" cy="689.726" rx="6.2" ry="6.19171" fill="#F8FFFF" fill-opacity="0.22"/>
<ellipse cx="259.075" cy="689.726" rx="6.2" ry="6.19171" fill="#F8FFFF" fill-opacity="0.22"/>
<ellipse cx="69.2" cy="664.186" rx="6.2" ry="6.19171" fill="#F8FFFF" fill-opacity="0.22"/>
<ellipse cx="96.325" cy="664.186" rx="6.2" ry="6.19171" fill="#F8FFFF" fill-opacity="0.22"/>
<ellipse cx="123.45" cy="664.186" rx="6.2" ry="6.19171" fill="#F8FFFF" fill-opacity="0.22"/>
<ellipse cx="150.575" cy="664.186" rx="6.2" ry="6.19171" fill="#F8FFFF" fill-opacity="0.22"/>
<ellipse cx="177.7" cy="664.186" rx="6.2" ry="6.19171" fill="#F8FFFF" fill-opacity="0.22"/>
<ellipse cx="204.825" cy="664.186" rx="6.2" ry="6.19171" fill="#F8FFFF" fill-opacity="0.22"/>
<ellipse cx="231.95" cy="664.186" rx="6.2" ry="6.19171" fill="#F8FFFF" fill-opacity="0.22"/>
<ellipse cx="259.075" cy="664.186" rx="6.2" ry="6.19171" fill="#F8FFFF" fill-opacity="0.22"/>
<ellipse cx="69.2" cy="638.645" rx="6.2" ry="6.19171" fill="#F8FFFF" fill-opacity="0.22"/>
<ellipse cx="96.325" cy="638.645" rx="6.2" ry="6.19171" fill="#F8FFFF" fill-opacity="0.22"/>
<ellipse cx="123.45" cy="638.645" rx="6.2" ry="6.19171" fill="#F8FFFF" fill-opacity="0.22"/>
<ellipse cx="150.575" cy="638.645" rx="6.2" ry="6.19171" fill="#F8FFFF" fill-opacity="0.22"/>
<ellipse cx="177.7" cy="638.645" rx="6.2" ry="6.19171" fill="#F8FFFF" fill-opacity="0.22"/>
<ellipse cx="204.825" cy="638.645" rx="6.2" ry="6.19171" fill="#F8FFFF" fill-opacity="0.22"/>
<ellipse cx="231.95" cy="638.645" rx="6.2" ry="6.19171" fill="#F8FFFF" fill-opacity="0.22"/>
<ellipse cx="259.075" cy="638.645" rx="6.2" ry="6.19171" fill="#F8FFFF" fill-opacity="0.22"/>
<ellipse cx="69.2" cy="613.104" rx="6.2" ry="6.19171" fill="#F8FFFF" fill-opacity="0.22"/>
<ellipse cx="96.325" cy="613.104" rx="6.2" ry="6.19171" fill="#F8FFFF" fill-opacity="0.22"/>
<ellipse cx="123.45" cy="613.104" rx="6.2" ry="6.19171" fill="#F8FFFF" fill-opacity="0.22"/>
<ellipse cx="150.575" cy="613.104" rx="6.2" ry="6.19171" fill="#F8FFFF" fill-opacity="0.22"/>
<ellipse cx="177.7" cy="613.104" rx="6.2" ry="6.19171" fill="#F8FFFF" fill-opacity="0.22"/>
<ellipse cx="204.825" cy="613.104" rx="6.2" ry="6.19171" fill="#F8FFFF" fill-opacity="0.22"/>
<ellipse cx="231.95" cy="613.104" rx="6.2" ry="6.19171" fill="#F8FFFF" fill-opacity="0.22"/>
<ellipse cx="259.075" cy="613.104" rx="6.2" ry="6.19171" fill="#F8FFFF" fill-opacity="0.22"/>
<ellipse cx="69.2" cy="587.563" rx="6.2" ry="6.19171" fill="#F8FFFF" fill-opacity="0.22"/>
<ellipse cx="96.325" cy="587.563" rx="6.2" ry="6.19171" fill="#F8FFFF" fill-opacity="0.22"/>
<ellipse cx="123.45" cy="587.563" rx="6.2" ry="6.19171" fill="#F8FFFF" fill-opacity="0.22"/>
<ellipse cx="150.575" cy="587.563" rx="6.2" ry="6.19171" fill="#F8FFFF" fill-opacity="0.22"/>
<ellipse cx="177.7" cy="587.563" rx="6.2" ry="6.19171" fill="#F8FFFF" fill-opacity="0.22"/>
<ellipse cx="204.825" cy="587.563" rx="6.2" ry="6.19171" fill="#F8FFFF" fill-opacity="0.22"/>
<ellipse cx="231.95" cy="587.563" rx="6.2" ry="6.19171" fill="#F8FFFF" fill-opacity="0.22"/>
<ellipse cx="259.075" cy="587.563" rx="6.2" ry="6.19171" fill="#F8FFFF" fill-opacity="0.22"/>
<ellipse cx="69.2" cy="562.023" rx="6.2" ry="6.19171" fill="#F8FFFF" fill-opacity="0.22"/>
<ellipse cx="96.325" cy="562.023" rx="6.2" ry="6.19171" fill="#F8FFFF" fill-opacity="0.22"/>
<ellipse cx="123.45" cy="562.023" rx="6.2" ry="6.19171" fill="#F8FFFF" fill-opacity="0.22"/>
<ellipse cx="150.575" cy="562.023" rx="6.2" ry="6.19171" fill="#F8FFFF" fill-opacity="0.22"/>
<ellipse cx="177.7" cy="562.023" rx="6.2" ry="6.19171" fill="#F8FFFF" fill-opacity="0.22"/>
<ellipse cx="204.825" cy="562.023" rx="6.2" ry="6.19171" fill="#F8FFFF" fill-opacity="0.22"/>
<ellipse cx="231.95" cy="562.023" rx="6.2" ry="6.19171" fill="#F8FFFF" fill-opacity="0.22"/>
<ellipse cx="259.075" cy="562.023" rx="6.2" ry="6.19171" fill="#F8FFFF" fill-opacity="0.22"/>
<ellipse cx="69.2" cy="536.482" rx="6.2" ry="6.19171" fill="#F8FFFF" fill-opacity="0.22"/>
<ellipse cx="96.325" cy="536.482" rx="6.2" ry="6.19171" fill="#F8FFFF" fill-opacity="0.22"/>
<ellipse cx="123.45" cy="536.482" rx="6.2" ry="6.19171" fill="#F8FFFF" fill-opacity="0.22"/>
<ellipse cx="150.575" cy="536.482" rx="6.2" ry="6.19171" fill="#F8FFFF" fill-opacity="0.22"/>
<ellipse cx="177.7" cy="536.482" rx="6.2" ry="6.19171" fill="#F8FFFF" fill-opacity="0.22"/>
<ellipse cx="204.825" cy="536.482" rx="6.2" ry="6.19171" fill="#F8FFFF" fill-opacity="0.22"/>
<ellipse cx="231.95" cy="536.482" rx="6.2" ry="6.19171" fill="#F8FFFF" fill-opacity="0.22"/>
<ellipse cx="259.075" cy="536.482" rx="6.2" ry="6.19171" fill="#F8FFFF" fill-opacity="0.22"/>
<rect x="370" width="552" height="433.42" fill="#F8FFFF" fill-opacity="0.22"/>
<rect y="242.675" width="219" height="211.717" fill="#F8FFFF" fill-opacity="0.22"/>
<ellipse cx="524.2" cy="329.359" rx="6.2" ry="6.19171" fill="#F8FFFF" fill-opacity="0.22"/>
<ellipse cx="551.325" cy="329.359" rx="6.2" ry="6.19171" fill="#F8FFFF" fill-opacity="0.22"/>
<ellipse cx="578.45" cy="329.359" rx="6.2" ry="6.19171" fill="#F8FFFF" fill-opacity="0.22"/>
<ellipse cx="605.575" cy="329.359" rx="6.2" ry="6.19171" fill="#F8FFFF" fill-opacity="0.22"/>
<ellipse cx="632.7" cy="329.359" rx="6.2" ry="6.19171" fill="#F8FFFF" fill-opacity="0.22"/>
<ellipse cx="659.825" cy="329.359" rx="6.2" ry="6.19171" fill="#F8FFFF" fill-opacity="0.22"/>
<ellipse cx="686.95" cy="329.359" rx="6.2" ry="6.19171" fill="#F8FFFF" fill-opacity="0.22"/>
<ellipse cx="714.075" cy="329.359" rx="6.2" ry="6.19171" fill="#F8FFFF" fill-opacity="0.22"/>
<ellipse cx="524.2" cy="303.818" rx="6.2" ry="6.19171" fill="#F8FFFF" fill-opacity="0.22"/>
<ellipse cx="551.325" cy="303.818" rx="6.2" ry="6.19171" fill="#F8FFFF" fill-opacity="0.22"/>
<ellipse cx="578.45" cy="303.818" rx="6.2" ry="6.19171" fill="#F8FFFF" fill-opacity="0.22"/>
<ellipse cx="605.575" cy="303.818" rx="6.2" ry="6.19171" fill="#F8FFFF" fill-opacity="0.22"/>
<ellipse cx="632.7" cy="303.818" rx="6.2" ry="6.19171" fill="#F8FFFF" fill-opacity="0.22"/>
<ellipse cx="659.825" cy="303.818" rx="6.2" ry="6.19171" fill="#F8FFFF" fill-opacity="0.22"/>
<ellipse cx="686.95" cy="303.818" rx="6.2" ry="6.19171" fill="#F8FFFF" fill-opacity="0.22"/>
<ellipse cx="714.075" cy="303.818" rx="6.2" ry="6.19171" fill="#F8FFFF" fill-opacity="0.22"/>
<ellipse cx="524.2" cy="278.277" rx="6.2" ry="6.19171" fill="#F8FFFF" fill-opacity="0.22"/>
<ellipse cx="551.325" cy="278.277" rx="6.2" ry="6.19171" fill="#F8FFFF" fill-opacity="0.22"/>
<ellipse cx="578.45" cy="278.277" rx="6.2" ry="6.19171" fill="#F8FFFF" fill-opacity="0.22"/>
<ellipse cx="605.575" cy="278.277" rx="6.2" ry="6.19171" fill="#F8FFFF" fill-opacity="0.22"/>
<ellipse cx="632.7" cy="278.277" rx="6.2" ry="6.19171" fill="#F8FFFF" fill-opacity="0.22"/>
<ellipse cx="659.825" cy="278.277" rx="6.2" ry="6.19171" fill="#F8FFFF" fill-opacity="0.22"/>
<ellipse cx="686.95" cy="278.277" rx="6.2" ry="6.19171" fill="#F8FFFF" fill-opacity="0.22"/>
<ellipse cx="714.075" cy="278.277" rx="6.2" ry="6.19171" fill="#F8FFFF" fill-opacity="0.22"/>
<ellipse cx="524.2" cy="252.737" rx="6.2" ry="6.19171" fill="#F8FFFF" fill-opacity="0.22"/>
<ellipse cx="551.325" cy="252.737" rx="6.2" ry="6.19171" fill="#F8FFFF" fill-opacity="0.22"/>
<ellipse cx="578.45" cy="252.737" rx="6.2" ry="6.19171" fill="#F8FFFF" fill-opacity="0.22"/>
<ellipse cx="605.575" cy="252.737" rx="6.2" ry="6.19171" fill="#F8FFFF" fill-opacity="0.22"/>
<ellipse cx="632.7" cy="252.737" rx="6.2" ry="6.19171" fill="#F8FFFF" fill-opacity="0.22"/>
<ellipse cx="659.825" cy="252.737" rx="6.2" ry="6.19171" fill="#F8FFFF" fill-opacity="0.22"/>
<ellipse cx="686.95" cy="252.737" rx="6.2" ry="6.19171" fill="#F8FFFF" fill-opacity="0.22"/>
<ellipse cx="714.075" cy="252.737" rx="6.2" ry="6.19171" fill="#F8FFFF" fill-opacity="0.22"/>
<ellipse cx="524.2" cy="227.196" rx="6.2" ry="6.19171" fill="#F8FFFF" fill-opacity="0.22"/>
<ellipse cx="551.325" cy="227.196" rx="6.2" ry="6.19171" fill="#F8FFFF" fill-opacity="0.22"/>
<ellipse cx="578.45" cy="227.196" rx="6.2" ry="6.19171" fill="#F8FFFF" fill-opacity="0.22"/>
<ellipse cx="605.575" cy="227.196" rx="6.2" ry="6.19171" fill="#F8FFFF" fill-opacity="0.22"/>
<ellipse cx="632.7" cy="227.196" rx="6.2" ry="6.19171" fill="#F8FFFF" fill-opacity="0.22"/>
<ellipse cx="659.825" cy="227.196" rx="6.2" ry="6.19171" fill="#F8FFFF" fill-opacity="0.22"/>
<ellipse cx="686.95" cy="227.196" rx="6.2" ry="6.19171" fill="#F8FFFF" fill-opacity="0.22"/>
<ellipse cx="714.075" cy="227.196" rx="6.2" ry="6.19171" fill="#F8FFFF" fill-opacity="0.22"/>
<ellipse cx="524.2" cy="201.655" rx="6.2" ry="6.19171" fill="#F8FFFF" fill-opacity="0.22"/>
<ellipse cx="551.325" cy="201.655" rx="6.2" ry="6.19171" fill="#F8FFFF" fill-opacity="0.22"/>
<ellipse cx="578.45" cy="201.655" rx="6.2" ry="6.19171" fill="#F8FFFF" fill-opacity="0.22"/>
<ellipse cx="605.575" cy="201.655" rx="6.2" ry="6.19171" fill="#F8FFFF" fill-opacity="0.22"/>
<ellipse cx="632.7" cy="201.655" rx="6.2" ry="6.19171" fill="#F8FFFF" fill-opacity="0.22"/>
<ellipse cx="659.825" cy="201.655" rx="6.2" ry="6.19171" fill="#F8FFFF" fill-opacity="0.22"/>
<ellipse cx="686.95" cy="201.655" rx="6.2" ry="6.19171" fill="#F8FFFF" fill-opacity="0.22"/>
<ellipse cx="714.075" cy="201.655" rx="6.2" ry="6.19171" fill="#F8FFFF" fill-opacity="0.22"/>
<ellipse cx="524.2" cy="176.114" rx="6.2" ry="6.19171" fill="#F8FFFF" fill-opacity="0.22"/>
<ellipse cx="551.325" cy="176.114" rx="6.2" ry="6.19171" fill="#F8FFFF" fill-opacity="0.22"/>
<ellipse cx="578.45" cy="176.114" rx="6.2" ry="6.19171" fill="#F8FFFF" fill-opacity="0.22"/>
<ellipse cx="605.575" cy="176.114" rx="6.2" ry="6.19171" fill="#F8FFFF" fill-opacity="0.22"/>
<ellipse cx="632.7" cy="176.114" rx="6.2" ry="6.19171" fill="#F8FFFF" fill-opacity="0.22"/>
<ellipse cx="659.825" cy="176.114" rx="6.2" ry="6.19171" fill="#F8FFFF" fill-opacity="0.22"/>
<ellipse cx="686.95" cy="176.114" rx="6.2" ry="6.19171" fill="#F8FFFF" fill-opacity="0.22"/>
<ellipse cx="714.075" cy="176.114" rx="6.2" ry="6.19171" fill="#F8FFFF" fill-opacity="0.22"/>
<ellipse cx="524.2" cy="150.573" rx="6.2" ry="6.19171" fill="#F8FFFF" fill-opacity="0.22"/>
<ellipse cx="551.325" cy="150.573" rx="6.2" ry="6.19171" fill="#F8FFFF" fill-opacity="0.22"/>
<ellipse cx="578.45" cy="150.573" rx="6.2" ry="6.19171" fill="#F8FFFF" fill-opacity="0.22"/>
<ellipse cx="605.575" cy="150.573" rx="6.2" ry="6.19171" fill="#F8FFFF" fill-opacity="0.22"/>
<ellipse cx="632.7" cy="150.573" rx="6.2" ry="6.19171" fill="#F8FFFF" fill-opacity="0.22"/>
<ellipse cx="659.825" cy="150.573" rx="6.2" ry="6.19171" fill="#F8FFFF" fill-opacity="0.22"/>
<ellipse cx="686.95" cy="150.573" rx="6.2" ry="6.19171" fill="#F8FFFF" fill-opacity="0.22"/>
<ellipse cx="714.075" cy="150.573" rx="6.2" ry="6.19171" fill="#F8FFFF" fill-opacity="0.22"/>
<ellipse cx="524.2" cy="125.033" rx="6.2" ry="6.19171" fill="#F8FFFF" fill-opacity="0.22"/>
<ellipse cx="551.325" cy="125.033" rx="6.2" ry="6.19171" fill="#F8FFFF" fill-opacity="0.22"/>
<ellipse cx="578.45" cy="125.033" rx="6.2" ry="6.19171" fill="#F8FFFF" fill-opacity="0.22"/>
<ellipse cx="605.575" cy="125.033" rx="6.2" ry="6.19171" fill="#F8FFFF" fill-opacity="0.22"/>
<ellipse cx="632.7" cy="125.033" rx="6.2" ry="6.19171" fill="#F8FFFF" fill-opacity="0.22"/>
<ellipse cx="659.825" cy="125.033" rx="6.2" ry="6.19171" fill="#F8FFFF" fill-opacity="0.22"/>
<ellipse cx="686.95" cy="125.033" rx="6.2" ry="6.19171" fill="#F8FFFF" fill-opacity="0.22"/>
<ellipse cx="714.075" cy="125.033" rx="6.2" ry="6.19171" fill="#F8FFFF" fill-opacity="0.22"/>
</svg>
