<svg width="516" height="309" viewBox="0 0 516 309" fill="none" xmlns="http://www.w3.org/2000/svg">
<g filter="url(#filter0_d_5_1517)">
<rect x="6" y="2" width="504" height="297" rx="12" fill="white"/>
</g>
<path d="M162.35 101.786V105.98H166.922V107.33H162.35V111.65H167.462V113H160.712V100.436H167.462V101.786H162.35ZM181.803 102.956C182.571 102.956 183.255 103.118 183.855 103.442C184.455 103.754 184.929 104.228 185.277 104.864C185.625 105.5 185.799 106.274 185.799 107.186V113H184.179V107.42C184.179 106.436 183.933 105.686 183.441 105.17C182.961 104.642 182.307 104.378 181.479 104.378C180.627 104.378 179.949 104.654 179.445 105.206C178.941 105.746 178.689 106.532 178.689 107.564V113H177.069V107.42C177.069 106.436 176.823 105.686 176.331 105.17C175.851 104.642 175.197 104.378 174.369 104.378C173.517 104.378 172.839 104.654 172.335 105.206C171.831 105.746 171.579 106.532 171.579 107.564V113H169.941V103.136H171.579V104.558C171.903 104.042 172.335 103.646 172.875 103.37C173.427 103.094 174.033 102.956 174.693 102.956C175.521 102.956 176.253 103.142 176.889 103.514C177.525 103.886 177.999 104.432 178.311 105.152C178.587 104.456 179.043 103.916 179.679 103.532C180.315 103.148 181.023 102.956 181.803 102.956ZM190.124 104.954C190.448 104.39 190.928 103.922 191.564 103.55C192.212 103.166 192.962 102.974 193.814 102.974C194.69 102.974 195.482 103.184 196.19 103.604C196.91 104.024 197.474 104.618 197.882 105.386C198.29 106.142 198.494 107.024 198.494 108.032C198.494 109.028 198.29 109.916 197.882 110.696C197.474 111.476 196.91 112.082 196.19 112.514C195.482 112.946 194.69 113.162 193.814 113.162C192.974 113.162 192.23 112.976 191.582 112.604C190.946 112.22 190.46 111.746 190.124 111.182V117.68H188.486V103.136H190.124V104.954ZM196.82 108.032C196.82 107.288 196.67 106.64 196.37 106.088C196.07 105.536 195.662 105.116 195.146 104.828C194.642 104.54 194.084 104.396 193.472 104.396C192.872 104.396 192.314 104.546 191.798 104.846C191.294 105.134 190.886 105.56 190.574 106.124C190.274 106.676 190.124 107.318 190.124 108.05C190.124 108.794 190.274 109.448 190.574 110.012C190.886 110.564 191.294 110.99 191.798 111.29C192.314 111.578 192.872 111.722 193.472 111.722C194.084 111.722 194.642 111.578 195.146 111.29C195.662 110.99 196.07 110.564 196.37 110.012C196.67 109.448 196.82 108.788 196.82 108.032ZM202.288 99.68V113H200.65V99.68H202.288ZM209.381 113.162C208.457 113.162 207.617 112.952 206.861 112.532C206.117 112.112 205.529 111.518 205.097 110.75C204.677 109.97 204.467 109.07 204.467 108.05C204.467 107.042 204.683 106.154 205.115 105.386C205.559 104.606 206.159 104.012 206.915 103.604C207.671 103.184 208.517 102.974 209.453 102.974C210.389 102.974 211.235 103.184 211.991 103.604C212.747 104.012 213.341 104.6 213.773 105.368C214.217 106.136 214.439 107.03 214.439 108.05C214.439 109.07 214.211 109.97 213.755 110.75C213.311 111.518 212.705 112.112 211.937 112.532C211.169 112.952 210.317 113.162 209.381 113.162ZM209.381 111.722C209.969 111.722 210.521 111.584 211.037 111.308C211.553 111.032 211.967 110.618 212.279 110.066C212.603 109.514 212.765 108.842 212.765 108.05C212.765 107.258 212.609 106.586 212.297 106.034C211.985 105.482 211.577 105.074 211.073 104.81C210.569 104.534 210.023 104.396 209.435 104.396C208.835 104.396 208.283 104.534 207.779 104.81C207.287 105.074 206.891 105.482 206.591 106.034C206.291 106.586 206.141 107.258 206.141 108.05C206.141 108.854 206.285 109.532 206.573 110.084C206.873 110.636 207.269 111.05 207.761 111.326C208.253 111.59 208.793 111.722 209.381 111.722ZM225.089 103.136L219.149 117.644H217.457L219.401 112.892L215.423 103.136H217.241L220.337 111.128L223.397 103.136H225.089ZM235.736 107.69C235.736 108.002 235.718 108.332 235.682 108.68H227.798C227.858 109.652 228.188 110.414 228.788 110.966C229.4 111.506 230.138 111.776 231.002 111.776C231.71 111.776 232.298 111.614 232.766 111.29C233.246 110.954 233.582 110.51 233.774 109.958H235.538C235.274 110.906 234.746 111.68 233.954 112.28C233.162 112.868 232.178 113.162 231.002 113.162C230.066 113.162 229.226 112.952 228.482 112.532C227.75 112.112 227.174 111.518 226.754 110.75C226.334 109.97 226.124 109.07 226.124 108.05C226.124 107.03 226.328 106.136 226.736 105.368C227.144 104.6 227.714 104.012 228.446 103.604C229.19 103.184 230.042 102.974 231.002 102.974C231.938 102.974 232.766 103.178 233.486 103.586C234.206 103.994 234.758 104.558 235.142 105.278C235.538 105.986 235.736 106.79 235.736 107.69ZM234.044 107.348C234.044 106.724 233.906 106.19 233.63 105.746C233.354 105.29 232.976 104.948 232.496 104.72C232.028 104.48 231.506 104.36 230.93 104.36C230.102 104.36 229.394 104.624 228.806 105.152C228.23 105.68 227.9 106.412 227.816 107.348H234.044ZM246.898 107.69C246.898 108.002 246.88 108.332 246.844 108.68H238.96C239.02 109.652 239.35 110.414 239.95 110.966C240.562 111.506 241.3 111.776 242.164 111.776C242.872 111.776 243.46 111.614 243.928 111.29C244.408 110.954 244.744 110.51 244.936 109.958H246.7C246.436 110.906 245.908 111.68 245.116 112.28C244.324 112.868 243.34 113.162 242.164 113.162C241.228 113.162 240.388 112.952 239.644 112.532C238.912 112.112 238.336 111.518 237.916 110.75C237.496 109.97 237.286 109.07 237.286 108.05C237.286 107.03 237.49 106.136 237.898 105.368C238.306 104.6 238.876 104.012 239.608 103.604C240.352 103.184 241.204 102.974 242.164 102.974C243.1 102.974 243.928 103.178 244.648 103.586C245.368 103.994 245.92 104.558 246.304 105.278C246.7 105.986 246.898 106.79 246.898 107.69ZM245.206 107.348C245.206 106.724 245.068 106.19 244.792 105.746C244.516 105.29 244.138 104.948 243.658 104.72C243.19 104.48 242.668 104.36 242.092 104.36C241.264 104.36 240.556 104.624 239.968 105.152C239.392 105.68 239.062 106.412 238.978 107.348H245.206Z" fill="#B1B1B1"/>
<path d="M122.957 171.454V180.724C122.957 181.756 122.639 182.584 122.003 183.208C121.367 183.82 120.527 184.126 119.483 184.126C118.427 184.126 117.581 183.814 116.945 183.19C116.309 182.554 115.991 181.69 115.991 180.598H117.629C117.641 181.21 117.797 181.708 118.097 182.092C118.409 182.476 118.871 182.668 119.483 182.668C120.095 182.668 120.551 182.488 120.851 182.128C121.151 181.756 121.301 181.288 121.301 180.724V171.454H122.957ZM130.486 184.162C129.562 184.162 128.722 183.952 127.966 183.532C127.222 183.112 126.634 182.518 126.202 181.75C125.782 180.97 125.572 180.07 125.572 179.05C125.572 178.042 125.788 177.154 126.22 176.386C126.664 175.606 127.264 175.012 128.02 174.604C128.776 174.184 129.622 173.974 130.558 173.974C131.494 173.974 132.34 174.184 133.096 174.604C133.852 175.012 134.446 175.6 134.878 176.368C135.322 177.136 135.544 178.03 135.544 179.05C135.544 180.07 135.316 180.97 134.86 181.75C134.416 182.518 133.81 183.112 133.042 183.532C132.274 183.952 131.422 184.162 130.486 184.162ZM130.486 182.722C131.074 182.722 131.626 182.584 132.142 182.308C132.658 182.032 133.072 181.618 133.384 181.066C133.708 180.514 133.87 179.842 133.87 179.05C133.87 178.258 133.714 177.586 133.402 177.034C133.09 176.482 132.682 176.074 132.178 175.81C131.674 175.534 131.128 175.396 130.54 175.396C129.94 175.396 129.388 175.534 128.884 175.81C128.392 176.074 127.996 176.482 127.696 177.034C127.396 177.586 127.246 178.258 127.246 179.05C127.246 179.854 127.39 180.532 127.678 181.084C127.978 181.636 128.374 182.05 128.866 182.326C129.358 182.59 129.898 182.722 130.486 182.722ZM142.594 173.956C143.338 173.956 144.01 174.118 144.61 174.442C145.21 174.754 145.678 175.228 146.014 175.864C146.362 176.5 146.536 177.274 146.536 178.186V184H144.916V178.42C144.916 177.436 144.67 176.686 144.178 176.17C143.686 175.642 143.014 175.378 142.162 175.378C141.298 175.378 140.608 175.648 140.092 176.188C139.588 176.728 139.336 177.514 139.336 178.546V184H137.698V170.68H139.336V175.54C139.66 175.036 140.104 174.646 140.668 174.37C141.244 174.094 141.886 173.956 142.594 173.956ZM154.017 173.956C155.217 173.956 156.189 174.322 156.933 175.054C157.677 175.774 158.049 176.818 158.049 178.186V184H156.429V178.42C156.429 177.436 156.183 176.686 155.691 176.17C155.199 175.642 154.527 175.378 153.675 175.378C152.811 175.378 152.121 175.648 151.605 176.188C151.101 176.728 150.849 177.514 150.849 178.546V184H149.211V174.136H150.849V175.54C151.173 175.036 151.611 174.646 152.163 174.37C152.727 174.094 153.345 173.956 154.017 173.956ZM160.113 179.032C160.113 178.024 160.317 177.142 160.725 176.386C161.133 175.618 161.691 175.024 162.399 174.604C163.119 174.184 163.923 173.974 164.811 173.974C165.579 173.974 166.293 174.154 166.953 174.514C167.613 174.862 168.117 175.324 168.465 175.9V170.68H170.121V184H168.465V182.146C168.141 182.734 167.661 183.22 167.025 183.604C166.389 183.976 165.645 184.162 164.793 184.162C163.917 184.162 163.119 183.946 162.399 183.514C161.691 183.082 161.133 182.476 160.725 181.696C160.317 180.916 160.113 180.028 160.113 179.032ZM168.465 179.05C168.465 178.306 168.315 177.658 168.015 177.106C167.715 176.554 167.307 176.134 166.791 175.846C166.287 175.546 165.729 175.396 165.117 175.396C164.505 175.396 163.947 175.54 163.443 175.828C162.939 176.116 162.537 176.536 162.237 177.088C161.937 177.64 161.787 178.288 161.787 179.032C161.787 179.788 161.937 180.448 162.237 181.012C162.537 181.564 162.939 181.99 163.443 182.29C163.947 182.578 164.505 182.722 165.117 182.722C165.729 182.722 166.287 182.578 166.791 182.29C167.307 181.99 167.715 181.564 168.015 181.012C168.315 180.448 168.465 179.794 168.465 179.05ZM177.191 184.162C176.267 184.162 175.427 183.952 174.671 183.532C173.927 183.112 173.339 182.518 172.907 181.75C172.487 180.97 172.277 180.07 172.277 179.05C172.277 178.042 172.493 177.154 172.925 176.386C173.369 175.606 173.969 175.012 174.725 174.604C175.481 174.184 176.327 173.974 177.263 173.974C178.199 173.974 179.045 174.184 179.801 174.604C180.557 175.012 181.151 175.6 181.583 176.368C182.027 177.136 182.249 178.03 182.249 179.05C182.249 180.07 182.021 180.97 181.565 181.75C181.121 182.518 180.515 183.112 179.747 183.532C178.979 183.952 178.127 184.162 177.191 184.162ZM177.191 182.722C177.779 182.722 178.331 182.584 178.847 182.308C179.363 182.032 179.777 181.618 180.089 181.066C180.413 180.514 180.575 179.842 180.575 179.05C180.575 178.258 180.419 177.586 180.107 177.034C179.795 176.482 179.387 176.074 178.883 175.81C178.379 175.534 177.833 175.396 177.245 175.396C176.645 175.396 176.093 175.534 175.589 175.81C175.097 176.074 174.701 176.482 174.401 177.034C174.101 177.586 173.951 178.258 173.951 179.05C173.951 179.854 174.095 180.532 174.383 181.084C174.683 181.636 175.079 182.05 175.571 182.326C176.063 182.59 176.603 182.722 177.191 182.722ZM193.403 178.69C193.403 179.002 193.385 179.332 193.349 179.68H185.465C185.525 180.652 185.855 181.414 186.455 181.966C187.067 182.506 187.805 182.776 188.669 182.776C189.377 182.776 189.965 182.614 190.433 182.29C190.913 181.954 191.249 181.51 191.441 180.958H193.205C192.941 181.906 192.413 182.68 191.621 183.28C190.829 183.868 189.845 184.162 188.669 184.162C187.733 184.162 186.893 183.952 186.149 183.532C185.417 183.112 184.841 182.518 184.421 181.75C184.001 180.97 183.791 180.07 183.791 179.05C183.791 178.03 183.995 177.136 184.403 176.368C184.811 175.6 185.381 175.012 186.113 174.604C186.857 174.184 187.709 173.974 188.669 173.974C189.605 173.974 190.433 174.178 191.153 174.586C191.873 174.994 192.425 175.558 192.809 176.278C193.205 176.986 193.403 177.79 193.403 178.69ZM191.711 178.348C191.711 177.724 191.573 177.19 191.297 176.746C191.021 176.29 190.643 175.948 190.163 175.72C189.695 175.48 189.173 175.36 188.597 175.36C187.769 175.36 187.061 175.624 186.473 176.152C185.897 176.68 185.567 177.412 185.483 178.348H191.711ZM204.565 172.462C205.897 172.462 207.055 172.714 208.039 173.218C209.023 173.722 209.779 174.43 210.307 175.342C210.835 176.242 211.099 177.286 211.099 178.474C211.099 179.422 210.943 180.334 210.631 181.21C210.319 182.074 209.863 182.776 209.263 183.316C208.675 183.856 207.985 184.126 207.193 184.126C206.593 184.126 206.131 183.976 205.807 183.676C205.483 183.376 205.297 182.968 205.249 182.452C204.877 182.968 204.403 183.376 203.827 183.676C203.263 183.976 202.663 184.126 202.027 184.126C201.115 184.126 200.395 183.85 199.867 183.298C199.351 182.734 199.093 181.978 199.093 181.03C199.093 180.13 199.279 179.29 199.651 178.51C200.035 177.73 200.563 177.106 201.235 176.638C201.907 176.158 202.669 175.918 203.521 175.918C204.661 175.918 205.429 176.35 205.825 177.214L206.023 176.098H207.445L206.545 181.3C206.509 181.528 206.491 181.738 206.491 181.93C206.491 182.65 206.809 183.01 207.445 183.01C207.925 183.01 208.339 182.782 208.687 182.326C209.047 181.87 209.317 181.3 209.497 180.616C209.677 179.92 209.767 179.236 209.767 178.564C209.767 176.992 209.293 175.774 208.345 174.91C207.409 174.046 206.083 173.614 204.367 173.614C202.939 173.614 201.649 173.962 200.497 174.658C199.357 175.342 198.463 176.284 197.815 177.484C197.167 178.684 196.843 180.01 196.843 181.462C196.831 183.046 197.305 184.264 198.265 185.116C199.225 185.98 200.557 186.412 202.261 186.412C203.389 186.412 204.385 186.208 205.249 185.8L205.465 186.916C204.397 187.36 203.221 187.582 201.937 187.582C200.653 187.582 199.519 187.336 198.535 186.844C197.563 186.364 196.807 185.668 196.267 184.756C195.739 183.856 195.475 182.806 195.475 181.606C195.475 179.914 195.865 178.372 196.645 176.98C197.425 175.576 198.505 174.472 199.885 173.668C201.277 172.864 202.837 172.462 204.565 172.462ZM202.513 182.848C203.053 182.848 203.551 182.692 204.007 182.38C204.463 182.056 204.823 181.624 205.087 181.084C205.351 180.532 205.483 179.932 205.483 179.284C205.483 178.66 205.309 178.156 204.961 177.772C204.625 177.376 204.145 177.178 203.521 177.178C202.945 177.178 202.435 177.352 201.991 177.7C201.559 178.036 201.223 178.486 200.983 179.05C200.743 179.602 200.623 180.178 200.623 180.778C200.623 181.414 200.785 181.918 201.109 182.29C201.433 182.662 201.901 182.848 202.513 182.848ZM225.655 173.956C226.423 173.956 227.107 174.118 227.707 174.442C228.307 174.754 228.781 175.228 229.129 175.864C229.477 176.5 229.651 177.274 229.651 178.186V184H228.031V178.42C228.031 177.436 227.785 176.686 227.293 176.17C226.813 175.642 226.159 175.378 225.331 175.378C224.479 175.378 223.801 175.654 223.297 176.206C222.793 176.746 222.541 177.532 222.541 178.564V184H220.921V178.42C220.921 177.436 220.675 176.686 220.183 176.17C219.703 175.642 219.049 175.378 218.221 175.378C217.369 175.378 216.691 175.654 216.187 176.206C215.683 176.746 215.431 177.532 215.431 178.564V184H213.793V174.136H215.431V175.558C215.755 175.042 216.187 174.646 216.727 174.37C217.279 174.094 217.885 173.956 218.545 173.956C219.373 173.956 220.105 174.142 220.741 174.514C221.377 174.886 221.851 175.432 222.163 176.152C222.439 175.456 222.895 174.916 223.531 174.532C224.167 174.148 224.875 173.956 225.655 173.956ZM231.726 179.032C231.726 178.024 231.93 177.142 232.338 176.386C232.746 175.618 233.304 175.024 234.012 174.604C234.732 174.184 235.53 173.974 236.406 173.974C237.27 173.974 238.02 174.16 238.656 174.532C239.292 174.904 239.766 175.372 240.078 175.936V174.136H241.734V184H240.078V182.164C239.754 182.74 239.268 183.22 238.62 183.604C237.984 183.976 237.24 184.162 236.388 184.162C235.512 184.162 234.72 183.946 234.012 183.514C233.304 183.082 232.746 182.476 232.338 181.696C231.93 180.916 231.726 180.028 231.726 179.032ZM240.078 179.05C240.078 178.306 239.928 177.658 239.628 177.106C239.328 176.554 238.92 176.134 238.404 175.846C237.9 175.546 237.342 175.396 236.73 175.396C236.118 175.396 235.56 175.54 235.056 175.828C234.552 176.116 234.15 176.536 233.85 177.088C233.55 177.64 233.4 178.288 233.4 179.032C233.4 179.788 233.55 180.448 233.85 181.012C234.15 181.564 234.552 181.99 235.056 182.29C235.56 182.578 236.118 182.722 236.73 182.722C237.342 182.722 237.9 182.578 238.404 182.29C238.92 181.99 239.328 181.564 239.628 181.012C239.928 180.448 240.078 179.794 240.078 179.05ZM245.348 172.534C245.036 172.534 244.772 172.426 244.556 172.21C244.34 171.994 244.232 171.73 244.232 171.418C244.232 171.106 244.34 170.842 244.556 170.626C244.772 170.41 245.036 170.302 245.348 170.302C245.648 170.302 245.9 170.41 246.104 170.626C246.32 170.842 246.428 171.106 246.428 171.418C246.428 171.73 246.32 171.994 246.104 172.21C245.9 172.426 245.648 172.534 245.348 172.534ZM246.14 174.136V184H244.502V174.136H246.14ZM250.57 170.68V184H248.932V170.68H250.57ZM253.884 184.108C253.572 184.108 253.308 184 253.092 183.784C252.876 183.568 252.768 183.304 252.768 182.992C252.768 182.68 252.876 182.416 253.092 182.2C253.308 181.984 253.572 181.876 253.884 181.876C254.184 181.876 254.436 181.984 254.64 182.2C254.856 182.416 254.964 182.68 254.964 182.992C254.964 183.304 254.856 183.568 254.64 183.784C254.436 184 254.184 184.108 253.884 184.108ZM256.529 179.05C256.529 178.03 256.733 177.142 257.141 176.386C257.549 175.618 258.113 175.024 258.833 174.604C259.565 174.184 260.399 173.974 261.335 173.974C262.547 173.974 263.543 174.268 264.323 174.856C265.115 175.444 265.637 176.26 265.889 177.304H264.125C263.957 176.704 263.627 176.23 263.135 175.882C262.655 175.534 262.055 175.36 261.335 175.36C260.399 175.36 259.643 175.684 259.067 176.332C258.491 176.968 258.203 177.874 258.203 179.05C258.203 180.238 258.491 181.156 259.067 181.804C259.643 182.452 260.399 182.776 261.335 182.776C262.055 182.776 262.655 182.608 263.135 182.272C263.615 181.936 263.945 181.456 264.125 180.832H265.889C265.625 181.84 265.097 182.65 264.305 183.262C263.513 183.862 262.523 184.162 261.335 184.162C260.399 184.162 259.565 183.952 258.833 183.532C258.113 183.112 257.549 182.518 257.141 181.75C256.733 180.982 256.529 180.082 256.529 179.05ZM272.376 184.162C271.452 184.162 270.612 183.952 269.856 183.532C269.112 183.112 268.524 182.518 268.092 181.75C267.672 180.97 267.462 180.07 267.462 179.05C267.462 178.042 267.678 177.154 268.11 176.386C268.554 175.606 269.154 175.012 269.91 174.604C270.666 174.184 271.512 173.974 272.448 173.974C273.384 173.974 274.23 174.184 274.986 174.604C275.742 175.012 276.336 175.6 276.768 176.368C277.212 177.136 277.434 178.03 277.434 179.05C277.434 180.07 277.206 180.97 276.75 181.75C276.306 182.518 275.7 183.112 274.932 183.532C274.164 183.952 273.312 184.162 272.376 184.162ZM272.376 182.722C272.964 182.722 273.516 182.584 274.032 182.308C274.548 182.032 274.962 181.618 275.274 181.066C275.598 180.514 275.76 179.842 275.76 179.05C275.76 178.258 275.604 177.586 275.292 177.034C274.98 176.482 274.572 176.074 274.068 175.81C273.564 175.534 273.018 175.396 272.43 175.396C271.83 175.396 271.278 175.534 270.774 175.81C270.282 176.074 269.886 176.482 269.586 177.034C269.286 177.586 269.136 178.258 269.136 179.05C269.136 179.854 269.28 180.532 269.568 181.084C269.868 181.636 270.264 182.05 270.756 182.326C271.248 182.59 271.788 182.722 272.376 182.722ZM291.45 173.956C292.218 173.956 292.902 174.118 293.502 174.442C294.102 174.754 294.576 175.228 294.924 175.864C295.272 176.5 295.446 177.274 295.446 178.186V184H293.826V178.42C293.826 177.436 293.58 176.686 293.088 176.17C292.608 175.642 291.954 175.378 291.126 175.378C290.274 175.378 289.596 175.654 289.092 176.206C288.588 176.746 288.336 177.532 288.336 178.564V184H286.716V178.42C286.716 177.436 286.47 176.686 285.978 176.17C285.498 175.642 284.844 175.378 284.016 175.378C283.164 175.378 282.486 175.654 281.982 176.206C281.478 176.746 281.226 177.532 281.226 178.564V184H279.588V174.136H281.226V175.558C281.55 175.042 281.982 174.646 282.522 174.37C283.074 174.094 283.68 173.956 284.34 173.956C285.168 173.956 285.9 174.142 286.536 174.514C287.172 174.886 287.646 175.432 287.958 176.152C288.234 175.456 288.69 174.916 289.326 174.532C289.962 174.148 290.67 173.956 291.45 173.956Z" fill="#848484"/>
<path d="M126.104 226.114H122.27V230.002H120.74V226.114H116.924V224.728H120.74V220.822H122.27V224.728H126.104V226.114ZM136.016 222.082C135.752 220.75 134.93 220.084 133.55 220.084C132.482 220.084 131.684 220.498 131.156 221.326C130.628 222.142 130.37 223.492 130.382 225.376C130.658 224.752 131.114 224.266 131.75 223.918C132.398 223.558 133.118 223.378 133.91 223.378C135.146 223.378 136.13 223.762 136.862 224.53C137.606 225.298 137.978 226.36 137.978 227.716C137.978 228.532 137.816 229.264 137.492 229.912C137.18 230.56 136.7 231.076 136.052 231.46C135.416 231.844 134.642 232.036 133.73 232.036C132.494 232.036 131.528 231.76 130.832 231.208C130.136 230.656 129.65 229.894 129.374 228.922C129.098 227.95 128.96 226.75 128.96 225.322C128.96 220.918 130.496 218.716 133.568 218.716C134.744 218.716 135.668 219.034 136.34 219.67C137.012 220.306 137.408 221.11 137.528 222.082H136.016ZM133.568 224.764C133.052 224.764 132.566 224.872 132.11 225.088C131.654 225.292 131.282 225.61 130.994 226.042C130.718 226.462 130.58 226.978 130.58 227.59C130.58 228.502 130.844 229.246 131.372 229.822C131.9 230.386 132.656 230.668 133.64 230.668C134.48 230.668 135.146 230.41 135.638 229.894C136.142 229.366 136.394 228.658 136.394 227.77C136.394 226.834 136.154 226.102 135.674 225.574C135.194 225.034 134.492 224.764 133.568 224.764ZM139.989 230.686C141.513 229.462 142.707 228.46 143.571 227.68C144.435 226.888 145.161 226.066 145.749 225.214C146.349 224.35 146.649 223.504 146.649 222.676C146.649 221.896 146.457 221.284 146.073 220.84C145.701 220.384 145.095 220.156 144.255 220.156C143.439 220.156 142.803 220.414 142.347 220.93C141.903 221.434 141.663 222.112 141.627 222.964H140.043C140.091 221.62 140.499 220.582 141.267 219.85C142.035 219.118 143.025 218.752 144.237 218.752C145.473 218.752 146.451 219.094 147.171 219.778C147.903 220.462 148.269 221.404 148.269 222.604C148.269 223.6 147.969 224.572 147.369 225.52C146.781 226.456 146.109 227.284 145.353 228.004C144.597 228.712 143.631 229.54 142.455 230.488H148.647V231.856H139.989V230.686ZM152.917 225.232C152.245 224.968 151.729 224.584 151.369 224.08C151.009 223.576 150.829 222.964 150.829 222.244C150.829 221.596 150.991 221.014 151.315 220.498C151.639 219.97 152.119 219.556 152.755 219.256C153.403 218.944 154.183 218.788 155.095 218.788C156.007 218.788 156.781 218.944 157.417 219.256C158.065 219.556 158.551 219.97 158.875 220.498C159.211 221.014 159.379 221.596 159.379 222.244C159.379 222.94 159.193 223.552 158.821 224.08C158.449 224.596 157.939 224.98 157.291 225.232C158.035 225.46 158.623 225.862 159.055 226.438C159.499 227.002 159.721 227.686 159.721 228.49C159.721 229.27 159.529 229.954 159.145 230.542C158.761 231.118 158.215 231.568 157.507 231.892C156.811 232.204 156.007 232.36 155.095 232.36C154.183 232.36 153.379 232.204 152.683 231.892C151.999 231.568 151.465 231.118 151.081 230.542C150.697 229.954 150.505 229.27 150.505 228.49C150.505 227.686 150.721 226.996 151.153 226.42C151.585 225.844 152.173 225.448 152.917 225.232ZM157.795 222.442C157.795 221.71 157.555 221.146 157.075 220.75C156.595 220.354 155.935 220.156 155.095 220.156C154.267 220.156 153.613 220.354 153.133 220.75C152.653 221.146 152.413 221.716 152.413 222.46C152.413 223.132 152.659 223.672 153.151 224.08C153.655 224.488 154.303 224.692 155.095 224.692C155.899 224.692 156.547 224.488 157.039 224.08C157.543 223.66 157.795 223.114 157.795 222.442ZM155.095 225.952C154.207 225.952 153.481 226.162 152.917 226.582C152.353 226.99 152.071 227.608 152.071 228.436C152.071 229.204 152.341 229.822 152.881 230.29C153.433 230.758 154.171 230.992 155.095 230.992C156.019 230.992 156.751 230.758 157.291 230.29C157.831 229.822 158.101 229.204 158.101 228.436C158.101 227.632 157.825 227.02 157.273 226.6C156.721 226.168 155.995 225.952 155.095 225.952ZM164.002 228.508C164.122 229.192 164.398 229.72 164.83 230.092C165.274 230.464 165.868 230.65 166.612 230.65C167.608 230.65 168.34 230.26 168.808 229.48C169.288 228.7 169.516 227.386 169.492 225.538C169.24 226.078 168.82 226.504 168.232 226.816C167.644 227.116 166.99 227.266 166.27 227.266C165.466 227.266 164.746 227.104 164.11 226.78C163.486 226.444 162.994 225.958 162.634 225.322C162.274 224.686 162.094 223.918 162.094 223.018C162.094 221.734 162.466 220.702 163.21 219.922C163.954 219.13 165.01 218.734 166.378 218.734C168.058 218.734 169.234 219.28 169.906 220.372C170.59 221.464 170.932 223.09 170.932 225.25C170.932 226.762 170.794 228.01 170.518 228.994C170.254 229.978 169.798 230.728 169.15 231.244C168.514 231.76 167.638 232.018 166.522 232.018C165.298 232.018 164.344 231.688 163.66 231.028C162.976 230.368 162.586 229.528 162.49 228.508H164.002ZM166.54 225.88C167.344 225.88 168.004 225.634 168.52 225.142C169.036 224.638 169.294 223.96 169.294 223.108C169.294 222.208 169.042 221.482 168.538 220.93C168.034 220.378 167.326 220.102 166.414 220.102C165.574 220.102 164.902 220.366 164.398 220.894C163.906 221.422 163.66 222.118 163.66 222.982C163.66 223.858 163.906 224.56 164.398 225.088C164.89 225.616 165.604 225.88 166.54 225.88ZM175.61 225.232C174.938 224.968 174.422 224.584 174.062 224.08C173.702 223.576 173.522 222.964 173.522 222.244C173.522 221.596 173.684 221.014 174.008 220.498C174.332 219.97 174.812 219.556 175.448 219.256C176.096 218.944 176.876 218.788 177.788 218.788C178.7 218.788 179.474 218.944 180.11 219.256C180.758 219.556 181.244 219.97 181.568 220.498C181.904 221.014 182.072 221.596 182.072 222.244C182.072 222.94 181.886 223.552 181.514 224.08C181.142 224.596 180.632 224.98 179.984 225.232C180.728 225.46 181.316 225.862 181.748 226.438C182.192 227.002 182.414 227.686 182.414 228.49C182.414 229.27 182.222 229.954 181.838 230.542C181.454 231.118 180.908 231.568 180.2 231.892C179.504 232.204 178.7 232.36 177.788 232.36C176.876 232.36 176.072 232.204 175.376 231.892C174.692 231.568 174.158 231.118 173.774 230.542C173.39 229.954 173.198 229.27 173.198 228.49C173.198 227.686 173.414 226.996 173.846 226.42C174.278 225.844 174.866 225.448 175.61 225.232ZM180.488 222.442C180.488 221.71 180.248 221.146 179.768 220.75C179.288 220.354 178.628 220.156 177.788 220.156C176.96 220.156 176.306 220.354 175.826 220.75C175.346 221.146 175.106 221.716 175.106 222.46C175.106 223.132 175.352 223.672 175.844 224.08C176.348 224.488 176.996 224.692 177.788 224.692C178.592 224.692 179.24 224.488 179.732 224.08C180.236 223.66 180.488 223.114 180.488 222.442ZM177.788 225.952C176.9 225.952 176.174 226.162 175.61 226.582C175.046 226.99 174.764 227.608 174.764 228.436C174.764 229.204 175.034 229.822 175.574 230.29C176.126 230.758 176.864 230.992 177.788 230.992C178.712 230.992 179.444 230.758 179.984 230.29C180.524 229.822 180.794 229.204 180.794 228.436C180.794 227.632 180.518 227.02 179.966 226.6C179.414 226.168 178.688 225.952 177.788 225.952ZM192.6 220.264L187.596 232H185.94L191.016 220.426H184.068V219.022H192.6V220.264ZM194.02 229.102V227.86L200.338 219.112H202.3V227.68H204.1V229.102H202.3V232H200.68V229.102H194.02ZM200.752 220.822L195.91 227.68H200.752V220.822ZM214.034 220.408H207.716V224.512C207.992 224.128 208.4 223.816 208.94 223.576C209.48 223.324 210.062 223.198 210.686 223.198C211.682 223.198 212.492 223.408 213.116 223.828C213.74 224.236 214.184 224.77 214.448 225.43C214.724 226.078 214.862 226.768 214.862 227.5C214.862 228.364 214.7 229.138 214.376 229.822C214.052 230.506 213.554 231.046 212.882 231.442C212.222 231.838 211.4 232.036 210.416 232.036C209.156 232.036 208.136 231.712 207.356 231.064C206.576 230.416 206.102 229.552 205.934 228.472H207.536C207.692 229.156 208.022 229.69 208.526 230.074C209.03 230.458 209.666 230.65 210.434 230.65C211.382 230.65 212.096 230.368 212.576 229.804C213.056 229.228 213.296 228.472 213.296 227.536C213.296 226.6 213.056 225.88 212.576 225.376C212.096 224.86 211.388 224.602 210.452 224.602C209.816 224.602 209.258 224.758 208.778 225.07C208.31 225.37 207.968 225.784 207.752 226.312H206.204V218.968H214.034V220.408ZM217.003 222.262C217.087 221.158 217.513 220.294 218.281 219.67C219.049 219.046 220.045 218.734 221.269 218.734C222.085 218.734 222.787 218.884 223.375 219.184C223.975 219.472 224.425 219.868 224.725 220.372C225.037 220.876 225.193 221.446 225.193 222.082C225.193 222.826 224.977 223.468 224.545 224.008C224.125 224.548 223.573 224.896 222.889 225.052V225.142C223.669 225.334 224.287 225.712 224.743 226.276C225.199 226.84 225.427 227.578 225.427 228.49C225.427 229.174 225.271 229.792 224.959 230.344C224.647 230.884 224.179 231.31 223.555 231.622C222.931 231.934 222.181 232.09 221.305 232.09C220.033 232.09 218.989 231.76 218.173 231.1C217.357 230.428 216.901 229.48 216.805 228.256H218.389C218.473 228.976 218.767 229.564 219.271 230.02C219.775 230.476 220.447 230.704 221.287 230.704C222.127 230.704 222.763 230.488 223.195 230.056C223.639 229.612 223.861 229.042 223.861 228.346C223.861 227.446 223.561 226.798 222.961 226.402C222.361 226.006 221.455 225.808 220.243 225.808H219.829V224.44H220.261C221.365 224.428 222.199 224.248 222.763 223.9C223.327 223.54 223.609 222.988 223.609 222.244C223.609 221.608 223.399 221.098 222.979 220.714C222.571 220.33 221.983 220.138 221.215 220.138C220.471 220.138 219.871 220.33 219.415 220.714C218.959 221.098 218.689 221.614 218.605 222.262H217.003ZM227.44 230.686C228.964 229.462 230.158 228.46 231.022 227.68C231.886 226.888 232.612 226.066 233.2 225.214C233.8 224.35 234.1 223.504 234.1 222.676C234.1 221.896 233.908 221.284 233.524 220.84C233.152 220.384 232.546 220.156 231.706 220.156C230.89 220.156 230.254 220.414 229.798 220.93C229.354 221.434 229.114 222.112 229.078 222.964H227.494C227.542 221.62 227.95 220.582 228.718 219.85C229.486 219.118 230.476 218.752 231.688 218.752C232.924 218.752 233.902 219.094 234.622 219.778C235.354 220.462 235.72 221.404 235.72 222.604C235.72 223.6 235.42 224.572 234.82 225.52C234.232 226.456 233.56 227.284 232.804 228.004C232.048 228.712 231.082 229.54 229.906 230.488H236.098V231.856H227.44V230.686ZM237.56 220.48V218.986H240.944V232H239.288V220.48H237.56Z" fill="#848484"/>
<g clip-path="url(#clip0_5_1517)">
<path d="M93.5252 96.7667C85.1935 96.7667 78.4153 89.9884 78.4153 81.6568C78.4153 73.3251 85.1935 66.5469 93.5252 66.5469C101.857 66.5469 108.635 73.3251 108.635 81.6568C108.635 89.9884 101.857 96.7667 93.5252 96.7667Z" fill="#B3B3B3"/>
<path d="M120.749 66.2763C113.476 59.0049 103.809 55 93.5256 55C83.2419 55 73.5733 59.0049 66.3019 66.2763C59.0305 73.5477 55.0256 83.2163 55.0256 93.5C55.0256 103.784 59.0305 113.452 66.3019 120.724C73.5733 127.995 83.2419 132 93.5256 132C103.809 132 113.476 127.995 120.749 120.724C128.021 113.452 132.026 103.784 132.026 93.5C132.026 83.2163 128.021 73.5477 120.749 66.2763ZM65.4236 115.062C60.8277 109.085 58.0906 101.606 58.0906 93.5C58.0906 73.9613 73.9869 58.065 93.5256 58.065C113.064 58.065 128.959 73.9613 128.959 93.5C128.959 101.609 126.222 109.091 121.622 115.069C120.482 111.255 117.579 107.85 113.172 105.247C107.847 102.101 100.837 100.368 93.4349 100.368C86.0417 100.368 79.0621 102.101 73.7819 105.25C69.424 107.849 66.5531 111.248 65.4236 115.062Z" fill="#B3B3B3"/>
</g>
<path d="M171.626 65.45V77.4C171.626 79.25 171.101 80.675 170.051 81.675C169.018 82.675 167.618 83.175 165.851 83.175C164.001 83.175 162.518 82.65 161.401 81.6C160.285 80.55 159.726 79.0583 159.726 77.125H163.976C163.976 77.8583 164.126 78.4167 164.426 78.8C164.726 79.1667 165.16 79.35 165.726 79.35C166.243 79.35 166.643 79.1833 166.926 78.85C167.21 78.5167 167.351 78.0333 167.351 77.4V65.45H171.626ZM181.429 83.2C180.063 83.2 178.829 82.9083 177.729 82.325C176.646 81.7417 175.788 80.9083 175.154 79.825C174.538 78.7417 174.229 77.475 174.229 76.025C174.229 74.5917 174.546 73.3333 175.179 72.25C175.813 71.15 176.679 70.3083 177.779 69.725C178.879 69.1417 180.113 68.85 181.479 68.85C182.846 68.85 184.079 69.1417 185.179 69.725C186.279 70.3083 187.146 71.15 187.779 72.25C188.413 73.3333 188.729 74.5917 188.729 76.025C188.729 77.4583 188.404 78.725 187.754 79.825C187.121 80.9083 186.246 81.7417 185.129 82.325C184.029 82.9083 182.796 83.2 181.429 83.2ZM181.429 79.5C182.246 79.5 182.938 79.2 183.504 78.6C184.088 78 184.379 77.1417 184.379 76.025C184.379 74.9083 184.096 74.05 183.529 73.45C182.979 72.85 182.296 72.55 181.479 72.55C180.646 72.55 179.954 72.85 179.404 73.45C178.854 74.0333 178.579 74.8917 178.579 76.025C178.579 77.1417 178.846 78 179.379 78.6C179.929 79.2 180.613 79.5 181.429 79.5ZM199.572 68.9C201.172 68.9 202.456 69.4333 203.422 70.5C204.389 71.55 204.872 73 204.872 74.85V83H200.622V75.425C200.622 74.4917 200.381 73.7667 199.897 73.25C199.414 72.7333 198.764 72.475 197.947 72.475C197.131 72.475 196.481 72.7333 195.997 73.25C195.514 73.7667 195.272 74.4917 195.272 75.425V83H190.997V64.5H195.272V70.925C195.706 70.3083 196.297 69.8167 197.047 69.45C197.797 69.0833 198.639 68.9 199.572 68.9ZM216.343 68.9C217.976 68.9 219.276 69.4333 220.243 70.5C221.226 71.55 221.718 73 221.718 74.85V83H217.468V75.425C217.468 74.4917 217.226 73.7667 216.743 73.25C216.26 72.7333 215.61 72.475 214.793 72.475C213.976 72.475 213.326 72.7333 212.843 73.25C212.36 73.7667 212.118 74.4917 212.118 75.425V83H207.843V69.05H212.118V70.9C212.551 70.2833 213.135 69.8 213.868 69.45C214.601 69.0833 215.426 68.9 216.343 68.9ZM236.562 65.45C238.412 65.45 240.028 65.8167 241.412 66.55C242.795 67.2833 243.862 68.3167 244.612 69.65C245.378 70.9667 245.762 72.4917 245.762 74.225C245.762 75.9417 245.378 77.4667 244.612 78.8C243.862 80.1333 242.787 81.1667 241.387 81.9C240.003 82.6333 238.395 83 236.562 83H229.987V65.45H236.562ZM236.287 79.3C237.903 79.3 239.162 78.8583 240.062 77.975C240.962 77.0917 241.412 75.8417 241.412 74.225C241.412 72.6083 240.962 71.35 240.062 70.45C239.162 69.55 237.903 69.1 236.287 69.1H234.262V79.3H236.287ZM254.501 83.2C253.134 83.2 251.901 82.9083 250.801 82.325C249.717 81.7417 248.859 80.9083 248.226 79.825C247.609 78.7417 247.301 77.475 247.301 76.025C247.301 74.5917 247.617 73.3333 248.251 72.25C248.884 71.15 249.751 70.3083 250.851 69.725C251.951 69.1417 253.184 68.85 254.551 68.85C255.917 68.85 257.151 69.1417 258.251 69.725C259.351 70.3083 260.217 71.15 260.851 72.25C261.484 73.3333 261.801 74.5917 261.801 76.025C261.801 77.4583 261.476 78.725 260.826 79.825C260.192 80.9083 259.317 81.7417 258.201 82.325C257.101 82.9083 255.867 83.2 254.501 83.2ZM254.501 79.5C255.317 79.5 256.009 79.2 256.576 78.6C257.159 78 257.451 77.1417 257.451 76.025C257.451 74.9083 257.167 74.05 256.601 73.45C256.051 72.85 255.367 72.55 254.551 72.55C253.717 72.55 253.026 72.85 252.476 73.45C251.926 74.0333 251.651 74.8917 251.651 76.025C251.651 77.1417 251.917 78 252.451 78.6C253.001 79.2 253.684 79.5 254.501 79.5ZM277.219 75.8C277.219 76.2 277.194 76.6167 277.144 77.05H267.469C267.535 77.9167 267.81 78.5833 268.294 79.05C268.794 79.5 269.402 79.725 270.119 79.725C271.185 79.725 271.927 79.275 272.344 78.375H276.894C276.66 79.2917 276.235 80.1167 275.619 80.85C275.019 81.5833 274.26 82.1583 273.344 82.575C272.427 82.9917 271.402 83.2 270.269 83.2C268.902 83.2 267.685 82.9083 266.619 82.325C265.552 81.7417 264.719 80.9083 264.119 79.825C263.519 78.7417 263.219 77.475 263.219 76.025C263.219 74.575 263.51 73.3083 264.094 72.225C264.694 71.1417 265.527 70.3083 266.594 69.725C267.66 69.1417 268.885 68.85 270.269 68.85C271.619 68.85 272.819 69.1333 273.869 69.7C274.919 70.2667 275.735 71.075 276.319 72.125C276.919 73.175 277.219 74.4 277.219 75.8ZM272.844 74.675C272.844 73.9417 272.594 73.3583 272.094 72.925C271.594 72.4917 270.969 72.275 270.219 72.275C269.502 72.275 268.894 72.4833 268.394 72.9C267.91 73.3167 267.61 73.9083 267.494 74.675H272.844Z" fill="#848484"/>
<path d="M83 177.8L96.7999 168.6C96.1999 166.5 94.3 165 92 165H74C71.7 165 69.8 166.5 69.2 168.6L83 177.8Z" fill="#B3B3B3"/>
<path d="M83.6 179.8C83.4 179.9 83.2 180 83 180C82.8 180 82.6 179.9 82.4 179.8L69 170.9V184C69 186.8 71.2 189 74 189H92C94.8 189 97 186.8 97 184V170.9L83.6 179.8Z" fill="#B3B3B3"/>
<g clip-path="url(#clip1_5_1517)">
<path fill-rule="evenodd" clip-rule="evenodd" d="M91.7384 229.665L88.4928 229.295C87.7134 229.205 86.9467 229.474 86.3973 230.023L84.0462 232.374C80.4301 230.534 77.4656 227.583 75.6256 223.954L77.9895 221.59C78.5389 221.04 78.8073 220.274 78.7178 219.494L78.3473 216.274C78.1939 214.984 77.1078 214.013 75.8045 214.013H73.5939C72.1501 214.013 70.9489 215.214 71.0384 216.658C71.7156 227.57 80.4428 236.284 91.3423 236.962C92.7862 237.051 93.9873 235.85 93.9873 234.406V232.195C94 230.905 93.0289 229.819 91.7384 229.665Z" fill="#B3B3B3"/>
</g>
<defs>
<filter id="filter0_d_5_1517" x="0" y="0" width="516" height="309" filterUnits="userSpaceOnUse" color-interpolation-filters="sRGB">
<feFlood flood-opacity="0" result="BackgroundImageFix"/>
<feColorMatrix in="SourceAlpha" type="matrix" values="0 0 0 0 0 0 0 0 0 0 0 0 0 0 0 0 0 0 127 0" result="hardAlpha"/>
<feMorphology radius="2" operator="dilate" in="SourceAlpha" result="effect1_dropShadow_5_1517"/>
<feOffset dy="4"/>
<feGaussianBlur stdDeviation="2"/>
<feComposite in2="hardAlpha" operator="out"/>
<feColorMatrix type="matrix" values="0 0 0 0 1 0 0 0 0 1 0 0 0 0 1 0 0 0 0.25 0"/>
<feBlend mode="normal" in2="BackgroundImageFix" result="effect1_dropShadow_5_1517"/>
<feBlend mode="normal" in="SourceGraphic" in2="effect1_dropShadow_5_1517" result="shape"/>
</filter>
<clipPath id="clip0_5_1517">
<rect width="77" height="77" fill="white" transform="translate(55 55)"/>
</clipPath>
<clipPath id="clip1_5_1517">
<rect width="23" height="23" fill="white" transform="translate(71 214)"/>
</clipPath>
</defs>
</svg>
