<svg width="916" height="747" viewBox="0 0 916 747" fill="none" xmlns="http://www.w3.org/2000/svg">
<ellipse cx="63.2" cy="740.808" rx="6.2" ry="6.19171" fill="#F8FFFF" fill-opacity="0.22"/>
<ellipse cx="90.325" cy="740.808" rx="6.2" ry="6.19171" fill="#F8FFFF" fill-opacity="0.22"/>
<ellipse cx="117.45" cy="740.808" rx="6.2" ry="6.19171" fill="#F8FFFF" fill-opacity="0.22"/>
<ellipse cx="144.575" cy="740.808" rx="6.2" ry="6.19171" fill="#F8FFFF" fill-opacity="0.22"/>
<ellipse cx="171.7" cy="740.808" rx="6.2" ry="6.19171" fill="#F8FFFF" fill-opacity="0.22"/>
<ellipse cx="198.825" cy="740.808" rx="6.2" ry="6.19171" fill="#F8FFFF" fill-opacity="0.22"/>
<ellipse cx="225.95" cy="740.808" rx="6.2" ry="6.19171" fill="#F8FFFF" fill-opacity="0.22"/>
<ellipse cx="253.075" cy="740.808" rx="6.2" ry="6.19171" fill="#F8FFFF" fill-opacity="0.22"/>
<ellipse cx="63.2" cy="715.268" rx="6.2" ry="6.19171" fill="#F8FFFF" fill-opacity="0.22"/>
<ellipse cx="90.325" cy="715.268" rx="6.2" ry="6.19171" fill="#F8FFFF" fill-opacity="0.22"/>
<ellipse cx="117.45" cy="715.268" rx="6.2" ry="6.19171" fill="#F8FFFF" fill-opacity="0.22"/>
<ellipse cx="144.575" cy="715.268" rx="6.2" ry="6.19171" fill="#F8FFFF" fill-opacity="0.22"/>
<ellipse cx="171.7" cy="715.268" rx="6.2" ry="6.19171" fill="#F8FFFF" fill-opacity="0.22"/>
<ellipse cx="198.825" cy="715.268" rx="6.2" ry="6.19171" fill="#F8FFFF" fill-opacity="0.22"/>
<ellipse cx="225.95" cy="715.268" rx="6.2" ry="6.19171" fill="#F8FFFF" fill-opacity="0.22"/>
<ellipse cx="253.075" cy="715.268" rx="6.2" ry="6.19171" fill="#F8FFFF" fill-opacity="0.22"/>
<ellipse cx="63.2" cy="689.727" rx="6.2" ry="6.19171" fill="#F8FFFF" fill-opacity="0.22"/>
<ellipse cx="90.325" cy="689.727" rx="6.2" ry="6.19171" fill="#F8FFFF" fill-opacity="0.22"/>
<ellipse cx="117.45" cy="689.727" rx="6.2" ry="6.19171" fill="#F8FFFF" fill-opacity="0.22"/>
<ellipse cx="144.575" cy="689.727" rx="6.2" ry="6.19171" fill="#F8FFFF" fill-opacity="0.22"/>
<ellipse cx="171.7" cy="689.727" rx="6.2" ry="6.19171" fill="#F8FFFF" fill-opacity="0.22"/>
<ellipse cx="198.825" cy="689.727" rx="6.2" ry="6.19171" fill="#F8FFFF" fill-opacity="0.22"/>
<ellipse cx="225.95" cy="689.727" rx="6.2" ry="6.19171" fill="#F8FFFF" fill-opacity="0.22"/>
<ellipse cx="253.075" cy="689.727" rx="6.2" ry="6.19171" fill="#F8FFFF" fill-opacity="0.22"/>
<ellipse cx="63.2" cy="664.186" rx="6.2" ry="6.19171" fill="#F8FFFF" fill-opacity="0.22"/>
<ellipse cx="90.325" cy="664.186" rx="6.2" ry="6.19171" fill="#F8FFFF" fill-opacity="0.22"/>
<ellipse cx="117.45" cy="664.186" rx="6.2" ry="6.19171" fill="#F8FFFF" fill-opacity="0.22"/>
<ellipse cx="144.575" cy="664.186" rx="6.2" ry="6.19171" fill="#F8FFFF" fill-opacity="0.22"/>
<ellipse cx="171.7" cy="664.186" rx="6.2" ry="6.19171" fill="#F8FFFF" fill-opacity="0.22"/>
<ellipse cx="198.825" cy="664.186" rx="6.2" ry="6.19171" fill="#F8FFFF" fill-opacity="0.22"/>
<ellipse cx="225.95" cy="664.186" rx="6.2" ry="6.19171" fill="#F8FFFF" fill-opacity="0.22"/>
<ellipse cx="253.075" cy="664.186" rx="6.2" ry="6.19171" fill="#F8FFFF" fill-opacity="0.22"/>
<ellipse cx="63.2" cy="638.645" rx="6.2" ry="6.19171" fill="#F8FFFF" fill-opacity="0.22"/>
<ellipse cx="90.325" cy="638.645" rx="6.2" ry="6.19171" fill="#F8FFFF" fill-opacity="0.22"/>
<ellipse cx="117.45" cy="638.645" rx="6.2" ry="6.19171" fill="#F8FFFF" fill-opacity="0.22"/>
<ellipse cx="144.575" cy="638.645" rx="6.2" ry="6.19171" fill="#F8FFFF" fill-opacity="0.22"/>
<ellipse cx="171.7" cy="638.645" rx="6.2" ry="6.19171" fill="#F8FFFF" fill-opacity="0.22"/>
<ellipse cx="198.825" cy="638.645" rx="6.2" ry="6.19171" fill="#F8FFFF" fill-opacity="0.22"/>
<ellipse cx="225.95" cy="638.645" rx="6.2" ry="6.19171" fill="#F8FFFF" fill-opacity="0.22"/>
<ellipse cx="253.075" cy="638.645" rx="6.2" ry="6.19171" fill="#F8FFFF" fill-opacity="0.22"/>
<ellipse cx="63.2" cy="613.104" rx="6.2" ry="6.19171" fill="#F8FFFF" fill-opacity="0.22"/>
<ellipse cx="90.325" cy="613.104" rx="6.2" ry="6.19171" fill="#F8FFFF" fill-opacity="0.22"/>
<ellipse cx="117.45" cy="613.104" rx="6.2" ry="6.19171" fill="#F8FFFF" fill-opacity="0.22"/>
<ellipse cx="144.575" cy="613.104" rx="6.2" ry="6.19171" fill="#F8FFFF" fill-opacity="0.22"/>
<ellipse cx="171.7" cy="613.104" rx="6.2" ry="6.19171" fill="#F8FFFF" fill-opacity="0.22"/>
<ellipse cx="198.825" cy="613.104" rx="6.2" ry="6.19171" fill="#F8FFFF" fill-opacity="0.22"/>
<ellipse cx="225.95" cy="613.104" rx="6.2" ry="6.19171" fill="#F8FFFF" fill-opacity="0.22"/>
<ellipse cx="253.075" cy="613.104" rx="6.2" ry="6.19171" fill="#F8FFFF" fill-opacity="0.22"/>
<ellipse cx="63.2" cy="587.564" rx="6.2" ry="6.19171" fill="#F8FFFF" fill-opacity="0.22"/>
<ellipse cx="90.325" cy="587.564" rx="6.2" ry="6.19171" fill="#F8FFFF" fill-opacity="0.22"/>
<ellipse cx="117.45" cy="587.564" rx="6.2" ry="6.19171" fill="#F8FFFF" fill-opacity="0.22"/>
<ellipse cx="144.575" cy="587.564" rx="6.2" ry="6.19171" fill="#F8FFFF" fill-opacity="0.22"/>
<ellipse cx="171.7" cy="587.564" rx="6.2" ry="6.19171" fill="#F8FFFF" fill-opacity="0.22"/>
<ellipse cx="198.825" cy="587.564" rx="6.2" ry="6.19171" fill="#F8FFFF" fill-opacity="0.22"/>
<ellipse cx="225.95" cy="587.564" rx="6.2" ry="6.19171" fill="#F8FFFF" fill-opacity="0.22"/>
<ellipse cx="253.075" cy="587.564" rx="6.2" ry="6.19171" fill="#F8FFFF" fill-opacity="0.22"/>
<ellipse cx="63.2" cy="562.023" rx="6.2" ry="6.19171" fill="#F8FFFF" fill-opacity="0.22"/>
<ellipse cx="90.325" cy="562.023" rx="6.2" ry="6.19171" fill="#F8FFFF" fill-opacity="0.22"/>
<ellipse cx="117.45" cy="562.023" rx="6.2" ry="6.19171" fill="#F8FFFF" fill-opacity="0.22"/>
<ellipse cx="144.575" cy="562.023" rx="6.2" ry="6.19171" fill="#F8FFFF" fill-opacity="0.22"/>
<ellipse cx="171.7" cy="562.023" rx="6.2" ry="6.19171" fill="#F8FFFF" fill-opacity="0.22"/>
<ellipse cx="198.825" cy="562.023" rx="6.2" ry="6.19171" fill="#F8FFFF" fill-opacity="0.22"/>
<ellipse cx="225.95" cy="562.023" rx="6.2" ry="6.19171" fill="#F8FFFF" fill-opacity="0.22"/>
<ellipse cx="253.075" cy="562.023" rx="6.2" ry="6.19171" fill="#F8FFFF" fill-opacity="0.22"/>
<ellipse cx="63.2" cy="536.482" rx="6.2" ry="6.19171" fill="#F8FFFF" fill-opacity="0.22"/>
<ellipse cx="90.325" cy="536.482" rx="6.2" ry="6.19171" fill="#F8FFFF" fill-opacity="0.22"/>
<ellipse cx="117.45" cy="536.482" rx="6.2" ry="6.19171" fill="#F8FFFF" fill-opacity="0.22"/>
<ellipse cx="144.575" cy="536.482" rx="6.2" ry="6.19171" fill="#F8FFFF" fill-opacity="0.22"/>
<ellipse cx="171.7" cy="536.482" rx="6.2" ry="6.19171" fill="#F8FFFF" fill-opacity="0.22"/>
<ellipse cx="198.825" cy="536.482" rx="6.2" ry="6.19171" fill="#F8FFFF" fill-opacity="0.22"/>
<ellipse cx="225.95" cy="536.482" rx="6.2" ry="6.19171" fill="#F8FFFF" fill-opacity="0.22"/>
<ellipse cx="253.075" cy="536.482" rx="6.2" ry="6.19171" fill="#F8FFFF" fill-opacity="0.22"/>
<rect x="473" width="443" height="371" fill="#F8FFFF" fill-opacity="0.22"/>
<path d="M0 187C0 173.193 11.1929 162 25 162H166V323H0V187Z" fill="#F8FFFF" fill-opacity="0.22"/>
<ellipse cx="518.2" cy="329.359" rx="6.2" ry="6.19171" fill="#F8FFFF" fill-opacity="0.22"/>
<ellipse cx="545.325" cy="329.359" rx="6.2" ry="6.19171" fill="#F8FFFF" fill-opacity="0.22"/>
<ellipse cx="572.45" cy="329.359" rx="6.2" ry="6.19171" fill="#F8FFFF" fill-opacity="0.22"/>
<ellipse cx="599.575" cy="329.359" rx="6.2" ry="6.19171" fill="#F8FFFF" fill-opacity="0.22"/>
<ellipse cx="626.7" cy="329.359" rx="6.2" ry="6.19171" fill="#F8FFFF" fill-opacity="0.22"/>
<ellipse cx="653.825" cy="329.359" rx="6.2" ry="6.19171" fill="#F8FFFF" fill-opacity="0.22"/>
<ellipse cx="680.95" cy="329.359" rx="6.2" ry="6.19171" fill="#F8FFFF" fill-opacity="0.22"/>
<ellipse cx="708.075" cy="329.359" rx="6.2" ry="6.19171" fill="#F8FFFF" fill-opacity="0.22"/>
<ellipse cx="518.2" cy="303.818" rx="6.2" ry="6.19171" fill="#F8FFFF" fill-opacity="0.22"/>
<ellipse cx="545.325" cy="303.818" rx="6.2" ry="6.19171" fill="#F8FFFF" fill-opacity="0.22"/>
<ellipse cx="572.45" cy="303.818" rx="6.2" ry="6.19171" fill="#F8FFFF" fill-opacity="0.22"/>
<ellipse cx="599.575" cy="303.818" rx="6.2" ry="6.19171" fill="#F8FFFF" fill-opacity="0.22"/>
<ellipse cx="626.7" cy="303.818" rx="6.2" ry="6.19171" fill="#F8FFFF" fill-opacity="0.22"/>
<ellipse cx="653.825" cy="303.818" rx="6.2" ry="6.19171" fill="#F8FFFF" fill-opacity="0.22"/>
<ellipse cx="680.95" cy="303.818" rx="6.2" ry="6.19171" fill="#F8FFFF" fill-opacity="0.22"/>
<ellipse cx="708.075" cy="303.818" rx="6.2" ry="6.19171" fill="#F8FFFF" fill-opacity="0.22"/>
<ellipse cx="518.2" cy="278.277" rx="6.2" ry="6.19171" fill="#F8FFFF" fill-opacity="0.22"/>
<ellipse cx="545.325" cy="278.277" rx="6.2" ry="6.19171" fill="#F8FFFF" fill-opacity="0.22"/>
<ellipse cx="572.45" cy="278.277" rx="6.2" ry="6.19171" fill="#F8FFFF" fill-opacity="0.22"/>
<ellipse cx="599.575" cy="278.277" rx="6.2" ry="6.19171" fill="#F8FFFF" fill-opacity="0.22"/>
<ellipse cx="626.7" cy="278.277" rx="6.2" ry="6.19171" fill="#F8FFFF" fill-opacity="0.22"/>
<ellipse cx="653.825" cy="278.277" rx="6.2" ry="6.19171" fill="#F8FFFF" fill-opacity="0.22"/>
<ellipse cx="680.95" cy="278.277" rx="6.2" ry="6.19171" fill="#F8FFFF" fill-opacity="0.22"/>
<ellipse cx="708.075" cy="278.277" rx="6.2" ry="6.19171" fill="#F8FFFF" fill-opacity="0.22"/>
<ellipse cx="518.2" cy="252.737" rx="6.2" ry="6.19171" fill="#F8FFFF" fill-opacity="0.22"/>
<ellipse cx="545.325" cy="252.737" rx="6.2" ry="6.19171" fill="#F8FFFF" fill-opacity="0.22"/>
<ellipse cx="572.45" cy="252.737" rx="6.2" ry="6.19171" fill="#F8FFFF" fill-opacity="0.22"/>
<ellipse cx="599.575" cy="252.737" rx="6.2" ry="6.19171" fill="#F8FFFF" fill-opacity="0.22"/>
<ellipse cx="626.7" cy="252.737" rx="6.2" ry="6.19171" fill="#F8FFFF" fill-opacity="0.22"/>
<ellipse cx="653.825" cy="252.737" rx="6.2" ry="6.19171" fill="#F8FFFF" fill-opacity="0.22"/>
<ellipse cx="680.95" cy="252.737" rx="6.2" ry="6.19171" fill="#F8FFFF" fill-opacity="0.22"/>
<ellipse cx="708.075" cy="252.737" rx="6.2" ry="6.19171" fill="#F8FFFF" fill-opacity="0.22"/>
<ellipse cx="518.2" cy="227.196" rx="6.2" ry="6.19171" fill="#F8FFFF" fill-opacity="0.22"/>
<ellipse cx="545.325" cy="227.196" rx="6.2" ry="6.19171" fill="#F8FFFF" fill-opacity="0.22"/>
<ellipse cx="572.45" cy="227.196" rx="6.2" ry="6.19171" fill="#F8FFFF" fill-opacity="0.22"/>
<ellipse cx="599.575" cy="227.196" rx="6.2" ry="6.19171" fill="#F8FFFF" fill-opacity="0.22"/>
<ellipse cx="626.7" cy="227.196" rx="6.2" ry="6.19171" fill="#F8FFFF" fill-opacity="0.22"/>
<ellipse cx="653.825" cy="227.196" rx="6.2" ry="6.19171" fill="#F8FFFF" fill-opacity="0.22"/>
<ellipse cx="680.95" cy="227.196" rx="6.2" ry="6.19171" fill="#F8FFFF" fill-opacity="0.22"/>
<ellipse cx="708.075" cy="227.196" rx="6.2" ry="6.19171" fill="#F8FFFF" fill-opacity="0.22"/>
<ellipse cx="518.2" cy="201.655" rx="6.2" ry="6.19171" fill="#F8FFFF" fill-opacity="0.22"/>
<ellipse cx="545.325" cy="201.655" rx="6.2" ry="6.19171" fill="#F8FFFF" fill-opacity="0.22"/>
<ellipse cx="572.45" cy="201.655" rx="6.2" ry="6.19171" fill="#F8FFFF" fill-opacity="0.22"/>
<ellipse cx="599.575" cy="201.655" rx="6.2" ry="6.19171" fill="#F8FFFF" fill-opacity="0.22"/>
<ellipse cx="626.7" cy="201.655" rx="6.2" ry="6.19171" fill="#F8FFFF" fill-opacity="0.22"/>
<ellipse cx="653.825" cy="201.655" rx="6.2" ry="6.19171" fill="#F8FFFF" fill-opacity="0.22"/>
<ellipse cx="680.95" cy="201.655" rx="6.2" ry="6.19171" fill="#F8FFFF" fill-opacity="0.22"/>
<ellipse cx="708.075" cy="201.655" rx="6.2" ry="6.19171" fill="#F8FFFF" fill-opacity="0.22"/>
<ellipse cx="518.2" cy="176.114" rx="6.2" ry="6.19171" fill="#F8FFFF" fill-opacity="0.22"/>
<ellipse cx="545.325" cy="176.114" rx="6.2" ry="6.19171" fill="#F8FFFF" fill-opacity="0.22"/>
<ellipse cx="572.45" cy="176.114" rx="6.2" ry="6.19171" fill="#F8FFFF" fill-opacity="0.22"/>
<ellipse cx="599.575" cy="176.114" rx="6.2" ry="6.19171" fill="#F8FFFF" fill-opacity="0.22"/>
<ellipse cx="626.7" cy="176.114" rx="6.2" ry="6.19171" fill="#F8FFFF" fill-opacity="0.22"/>
<ellipse cx="653.825" cy="176.114" rx="6.2" ry="6.19171" fill="#F8FFFF" fill-opacity="0.22"/>
<ellipse cx="680.95" cy="176.114" rx="6.2" ry="6.19171" fill="#F8FFFF" fill-opacity="0.22"/>
<ellipse cx="708.075" cy="176.114" rx="6.2" ry="6.19171" fill="#F8FFFF" fill-opacity="0.22"/>
<ellipse cx="518.2" cy="150.574" rx="6.2" ry="6.19171" fill="#F8FFFF" fill-opacity="0.22"/>
<ellipse cx="545.325" cy="150.574" rx="6.2" ry="6.19171" fill="#F8FFFF" fill-opacity="0.22"/>
<ellipse cx="572.45" cy="150.574" rx="6.2" ry="6.19171" fill="#F8FFFF" fill-opacity="0.22"/>
<ellipse cx="599.575" cy="150.574" rx="6.2" ry="6.19171" fill="#F8FFFF" fill-opacity="0.22"/>
<ellipse cx="626.7" cy="150.574" rx="6.2" ry="6.19171" fill="#F8FFFF" fill-opacity="0.22"/>
<ellipse cx="653.825" cy="150.574" rx="6.2" ry="6.19171" fill="#F8FFFF" fill-opacity="0.22"/>
<ellipse cx="680.95" cy="150.574" rx="6.2" ry="6.19171" fill="#F8FFFF" fill-opacity="0.22"/>
<ellipse cx="708.075" cy="150.574" rx="6.2" ry="6.19171" fill="#F8FFFF" fill-opacity="0.22"/>
<ellipse cx="518.2" cy="125.033" rx="6.2" ry="6.19171" fill="#F8FFFF" fill-opacity="0.22"/>
<ellipse cx="545.325" cy="125.033" rx="6.2" ry="6.19171" fill="#F8FFFF" fill-opacity="0.22"/>
<ellipse cx="572.45" cy="125.033" rx="6.2" ry="6.19171" fill="#F8FFFF" fill-opacity="0.22"/>
<ellipse cx="599.575" cy="125.033" rx="6.2" ry="6.19171" fill="#F8FFFF" fill-opacity="0.22"/>
<ellipse cx="626.7" cy="125.033" rx="6.2" ry="6.19171" fill="#F8FFFF" fill-opacity="0.22"/>
<ellipse cx="653.825" cy="125.033" rx="6.2" ry="6.19171" fill="#F8FFFF" fill-opacity="0.22"/>
<ellipse cx="680.95" cy="125.033" rx="6.2" ry="6.19171" fill="#F8FFFF" fill-opacity="0.22"/>
<ellipse cx="708.075" cy="125.033" rx="6.2" ry="6.19171" fill="#F8FFFF" fill-opacity="0.22"/>
</svg>
