<svg width="635" height="601" viewBox="0 0 635 601" fill="none" xmlns="http://www.w3.org/2000/svg">
<path d="M130 117C130 92.1472 150.147 72 175 72H563C587.853 72 608 92.1472 608 117V515C608 539.853 587.853 560 563 560H175C150.147 560 130 539.853 130 515V117Z" fill="#EFFAFE" fill-opacity="0.17"/>
<path d="M497.142 218.5C497.142 218.5 380.029 218.5 350.751 238.869C321.473 259.238 350.751 280.492 288.013 286.691C225.274 292.89 223.183 278.721 183.448 286.691C143.714 294.661 106.07 327.429 106.07 327.429" stroke="#EFFAFE" stroke-opacity="0.17"/>
<rect x="548.5" y="515.5" width="86" height="85" rx="11.5" fill="#EFFAFE" stroke="#B3B3B3"/>
<rect x="557" y="522" width="70" height="71" rx="12" fill="#80D8FF"/>
<path d="M617.614 562.461C617.614 562.225 617.521 561.999 617.354 561.832C617.187 561.665 616.961 561.571 616.725 561.571H571.651C568.536 561.571 566 563.867 566 566.679V577.892C566 580.713 568.536 583 571.651 583H616.725C616.961 583 617.187 582.906 617.354 582.74C617.521 582.573 617.614 582.346 617.614 582.11V579.681C617.614 579.445 617.521 579.218 617.354 579.052C617.187 578.885 616.961 578.791 616.725 578.791H571.651C570.992 578.791 570.45 578.382 570.45 577.901V566.697C570.45 566.208 570.992 565.807 571.651 565.807H616.725C616.961 565.807 617.187 565.713 617.354 565.547C617.521 565.38 617.614 565.153 617.614 564.917V562.461Z" fill="#5C5D60"/>
<path d="M574.009 569.367H614.001C614.237 569.367 614.464 569.273 614.631 569.106C614.798 568.939 614.891 568.713 614.891 568.477C614.891 568.241 614.798 568.014 614.631 567.848C614.464 567.681 614.237 567.587 614.001 567.587H574.009C573.773 567.587 573.547 567.681 573.38 567.848C573.213 568.014 573.119 568.241 573.119 568.477C573.119 568.713 573.213 568.939 573.38 569.106C573.547 569.273 573.773 569.367 574.009 569.367Z" fill="#A9B3B6"/>
<path d="M614.001 571.404H574.009C573.773 571.404 573.547 571.498 573.38 571.665C573.213 571.832 573.119 572.058 573.119 572.294C573.119 572.53 573.213 572.757 573.38 572.924C573.547 573.09 573.773 573.184 574.009 573.184H614.001C614.237 573.184 614.464 573.09 614.631 572.924C614.798 572.757 614.891 572.53 614.891 572.294C614.891 572.058 614.798 571.832 614.631 571.665C614.464 571.498 614.237 571.404 614.001 571.404Z" fill="#A9B3B6"/>
<path d="M614.001 575.222H574.009C573.773 575.222 573.547 575.315 573.38 575.482C573.213 575.649 573.119 575.876 573.119 576.112C573.119 576.348 573.213 576.574 573.38 576.741C573.547 576.908 573.773 577.001 574.009 577.001H614.001C614.237 577.001 614.464 576.908 614.631 576.741C614.798 576.574 614.891 576.348 614.891 576.112C614.891 575.876 614.798 575.649 614.631 575.482C614.464 575.315 614.237 575.222 614.001 575.222Z" fill="#A9B3B6"/>
<path d="M594.485 554.069H589.146C588.91 554.069 588.683 554.162 588.516 554.329C588.35 554.496 588.256 554.722 588.256 554.958V556.685C588.256 557.535 588.593 558.349 589.194 558.95C589.795 559.551 590.61 559.889 591.459 559.889C591.934 559.975 592.421 559.957 592.888 559.837C593.355 559.717 593.79 559.497 594.164 559.193C594.538 558.888 594.841 558.506 595.053 558.074C595.266 557.641 595.381 557.167 595.393 556.685V554.958C595.393 554.84 595.369 554.723 595.323 554.614C595.278 554.505 595.21 554.406 595.126 554.323C595.041 554.24 594.941 554.175 594.831 554.131C594.721 554.087 594.603 554.066 594.485 554.069Z" fill="#85837D"/>
<path d="M591.807 532C591.571 532 591.345 532.094 591.178 532.261C591.011 532.428 590.917 532.654 590.917 532.89V535.604C590.917 535.84 591.011 536.066 591.178 536.233C591.345 536.4 591.571 536.494 591.807 536.494C592.043 536.494 592.269 536.4 592.436 536.233C592.603 536.066 592.697 535.84 592.697 535.604V532.89C592.697 532.654 592.603 532.428 592.436 532.261C592.269 532.094 592.043 532 591.807 532Z" fill="#A9B3B6"/>
<path d="M598.971 539.458C599.088 539.458 599.204 539.436 599.313 539.392C599.421 539.347 599.52 539.282 599.603 539.2L601.516 537.277C601.662 537.107 601.738 536.888 601.73 536.664C601.721 536.44 601.628 536.228 601.47 536.069C601.311 535.911 601.099 535.818 600.875 535.809C600.651 535.801 600.432 535.877 600.262 536.023L598.339 537.945C598.217 538.07 598.134 538.228 598.101 538.4C598.068 538.572 598.086 538.749 598.154 538.911C598.221 539.072 598.335 539.21 598.48 539.307C598.625 539.405 598.796 539.457 598.971 539.458Z" fill="#A9B3B6"/>
<path d="M604.658 544.85H601.935C601.699 544.85 601.473 544.943 601.306 545.11C601.139 545.277 601.045 545.503 601.045 545.74C601.045 545.976 601.139 546.202 601.306 546.369C601.473 546.536 601.699 546.629 601.935 546.629H604.658C604.894 546.629 605.12 546.536 605.287 546.369C605.454 546.202 605.548 545.976 605.548 545.74C605.548 545.503 605.454 545.277 605.287 545.11C605.12 544.943 604.894 544.85 604.658 544.85Z" fill="#A9B3B6"/>
<path d="M599.594 552.271C599.423 552.105 599.192 552.013 598.954 552.017C598.715 552.02 598.488 552.118 598.321 552.289C598.155 552.46 598.063 552.69 598.066 552.929C598.07 553.168 598.168 553.395 598.339 553.562L599.3 554.452L600.261 555.413C600.431 555.559 600.65 555.635 600.874 555.626C601.098 555.617 601.311 555.525 601.469 555.366C601.628 555.208 601.721 554.995 601.729 554.771C601.738 554.547 601.662 554.328 601.516 554.158L599.594 552.271Z" fill="#A9B3B6"/>
<path d="M584.013 552.271L582.09 554.193C581.965 554.318 581.879 554.477 581.845 554.65C581.81 554.824 581.827 555.003 581.895 555.167C581.963 555.33 582.078 555.469 582.225 555.567C582.372 555.665 582.545 555.716 582.722 555.715C582.957 555.712 583.181 555.616 583.345 555.448L585.267 553.562C585.438 553.395 585.536 553.168 585.54 552.929C585.543 552.69 585.452 552.46 585.285 552.289C585.119 552.118 584.891 552.02 584.653 552.017C584.414 552.013 584.184 552.105 584.013 552.271Z" fill="#A9B3B6"/>
<path d="M582.561 545.74C582.561 545.503 582.468 545.277 582.301 545.11C582.134 544.943 581.907 544.85 581.671 544.85H578.957C578.721 544.85 578.495 544.943 578.328 545.11C578.161 545.277 578.067 545.503 578.067 545.74C578.067 545.976 578.161 546.202 578.328 546.369C578.495 546.536 578.721 546.629 578.957 546.629H581.671C581.907 546.629 582.134 546.536 582.301 546.369C582.468 546.202 582.561 545.976 582.561 545.74Z" fill="#A9B3B6"/>
<path d="M584.297 536.983L583.345 536.022C583.22 535.9 583.062 535.817 582.89 535.784C582.718 535.751 582.54 535.769 582.379 535.836C582.218 535.904 582.08 536.017 581.982 536.163C581.885 536.308 581.833 536.479 581.832 536.654C581.833 536.887 581.926 537.111 582.09 537.277L584.012 539.199C584.095 539.281 584.194 539.347 584.302 539.391C584.411 539.435 584.527 539.458 584.644 539.457C584.818 539.455 584.988 539.401 585.132 539.303C585.276 539.205 585.388 539.067 585.454 538.906C585.521 538.745 585.538 538.568 585.505 538.397C585.472 538.226 585.389 538.069 585.267 537.944L584.297 536.983Z" fill="#A9B3B6"/>
<path d="M598.634 543.72C596.587 535.711 584.903 537.143 584.796 545.375C584.796 547.03 585.383 548.632 586.451 549.896C587.642 551.31 588.275 553.111 588.231 554.959C588.231 555.195 588.325 555.422 588.492 555.589C588.659 555.755 588.885 555.849 589.121 555.849H594.46C594.696 555.849 594.923 555.755 595.09 555.589C595.256 555.422 595.35 555.195 595.35 554.959C595.333 553.062 596.003 551.222 597.237 549.78C597.913 548.941 598.39 547.96 598.632 546.911C598.874 545.861 598.875 544.77 598.634 543.72Z" fill="#FEBE10"/>
<rect x="545.5" y="0.5" width="57" height="56.3333" rx="11.5" fill="#EFFAFE" stroke="#B3B3B3"/>
<rect x="551.001" y="4.66602" width="46.6667" height="47.3333" rx="12" fill="#80D8FF"/>
<rect x="0.5" y="34.5" width="67" height="66.2184" rx="11.5" fill="#EFFAFE" stroke="#B3B3B3"/>
<rect x="6" y="39" width="56" height="57" rx="12" fill="#80D8FF"/>
<path opacity="0.2" d="M54.75 59H14.25C13.0074 59 12 60.0144 12 61.2656V85.7344C12 86.9856 13.0074 88 14.25 88H54.75C55.9926 88 57 86.9856 57 85.7344V61.2656C57 60.0144 55.9926 59 54.75 59Z" fill="black"/>
<path d="M12 77.7703C12 79.0055 13.0035 80 14.25 80H54.75C55.9965 80 57 79.0055 57 77.7703V53.6892C57 52.4539 55.9965 51.4595 54.75 51.4595H31.8V49.2297C31.8 47.9945 30.7965 47 29.55 47H14.25C13.0035 47 12 47.9945 12 49.2297" fill="#B58F1B"/>
<path opacity="0.2" d="M54.75 57H14.25C13.0074 57 12 58.0144 12 59.2656V83.7344C12 84.9856 13.0074 86 14.25 86H54.75C55.9926 86 57 84.9856 57 83.7344V59.2656C57 58.0144 55.9926 57 54.75 57Z" fill="black"/>
<path d="M51.7841 54H17.2159C15.9921 54 15 55.0074 15 56.25V69.75C15 70.9926 15.9921 72 17.2159 72H51.7841C53.0079 72 54 70.9926 54 69.75V56.25C54 55.0074 53.0079 54 51.7841 54Z" fill="#E4E4E4"/>
<path d="M54.75 58H14.25C13.0074 58 12 59.0144 12 60.2656V84.7344C12 85.9856 13.0074 87 14.25 87H54.75C55.9926 87 57 85.9856 57 84.7344V60.2656C57 59.0144 55.9926 58 54.75 58Z" fill="#FFDC24"/>
<path d="M31.3 62C31.3 62 32.3386 62.6097 31.606 64.2126C30.4972 66.6291 32.6293 67.1818 32.6293 67.1818C32.6293 67.1818 31.9516 66.6153 32.8543 64.6211C33.8515 62.412 31.3 62 31.3 62ZM35.0791 65.3293C35.0791 65.3293 33.1918 66.1342 34.4077 68.3322C35.2114 69.7891 34.3195 70.5111 34.3195 70.5111C34.3195 70.5111 36.6001 69.79 35.5003 67.7786C34.5121 65.9606 35.0791 65.3293 35.0791 65.3293ZM29.2039 65.4545C29.2039 65.4545 27.8521 66.8355 29.1904 68.5308C30.0751 69.6596 29.4964 70.6364 29.4964 70.6364C29.4964 70.6364 31.1713 69.2105 29.9599 67.6508C28.8664 66.243 29.2039 65.4545 29.2039 65.4545ZM29.4964 70.6364H25L27.7 81H37.6L38.2111 79.2995C38.5108 79.3712 38.8204 79.4213 39.1426 79.4213C41.272 79.4204 43 78.1077 43 76.0635C43 74.3293 41.7517 72.8853 40.0732 72.4845L40.4287 70.6364L29.4955 70.6355L29.4964 70.6364ZM39.7654 73.6755C39.7798 73.6772 39.7933 73.6798 39.8077 73.6824C40.4935 73.8595 40.7509 75.0685 40.3837 76.3847C40.0246 77.6681 39.2011 78.5835 38.5207 78.4566L39.7654 73.6755Z" fill="#4F3E0C"/>
<path d="M584.012 25.0001C584.012 24.6943 583.76 24.4424 583.454 24.4424C583.148 24.4424 582.896 24.6943 582.896 25.0001C582.896 25.7018 582.896 26.6733 582.896 27.3209H582.914H583.994V25.0001H584.012Z" fill="#FDE4DF"/>
<path d="M586.855 36.8745C586.531 36.8745 586.279 36.6226 586.279 36.2987C586.279 35.9749 586.531 35.723 586.855 35.723C589.032 35.723 590.795 33.9599 590.795 31.783V29.4981C590.615 29.5521 590.435 29.5881 590.237 29.5881C589.805 29.5881 589.409 29.4262 589.104 29.1563C588.798 29.4262 588.402 29.5881 587.97 29.5881C587.79 29.5881 587.61 29.5521 587.448 29.4981C587.233 30.1998 586.585 30.7035 585.811 30.7035H584.624V31.5311L586.747 32.4487C587.035 32.5746 587.179 32.9164 587.053 33.2043C586.963 33.4202 586.747 33.5461 586.531 33.5461C586.459 33.5461 586.387 33.5281 586.297 33.4921L583.814 32.4307C583.598 32.3407 583.472 32.1248 583.472 31.9089V30.1278C583.472 29.9839 583.526 29.822 583.634 29.714C583.742 29.6061 583.886 29.5521 584.048 29.5521H585.811C586.117 29.5521 586.369 29.3002 586.369 28.9944C586.369 28.6885 586.135 28.4727 585.829 28.4727H582.933C582.825 28.4727 582.735 28.5086 582.645 28.5446C582.645 28.5446 582.627 28.5446 582.627 28.5626C582.465 28.6706 582.375 28.8325 582.375 29.0304V31.6751C582.375 33.1683 583.185 34.5716 584.48 35.3272C584.66 35.4352 584.768 35.6151 584.768 35.831V48.3347H588.942V36.4607C588.294 36.7125 587.592 36.8745 586.855 36.8745Z" fill="#FDE4DF"/>
<path d="M586.279 25.0001C586.279 24.6943 586.027 24.4424 585.721 24.4424C585.415 24.4424 585.163 24.6943 585.163 25.0001V27.3209H585.829C585.991 27.3209 586.135 27.3389 586.279 27.3749V25.0001Z" fill="#FDE4DF"/>
<path d="M588.545 26.0616V25.0001C588.545 24.6943 588.293 24.4424 587.987 24.4424C587.682 24.4424 587.43 24.6943 587.43 25.0001V27.8967C587.43 28.2025 587.682 28.4544 587.987 28.4544C588.293 28.4544 588.545 28.2025 588.545 27.8967V26.0616Z" fill="#FDE4DF"/>
<path d="M590.236 25.5039C589.931 25.5039 589.679 25.7558 589.679 26.0616V27.8967C589.679 28.2026 589.931 28.4544 590.236 28.4544C590.542 28.4544 590.794 28.2026 590.794 27.8967V26.0616C590.794 25.7558 590.542 25.5039 590.236 25.5039Z" fill="#FDE4DF"/>
<path d="M590.237 24.352C590.021 24.352 589.805 24.388 589.607 24.4779C589.392 23.7943 588.744 23.2905 587.988 23.2905C587.556 23.2905 587.161 23.4524 586.855 23.7223C586.549 23.4524 586.153 23.2905 585.721 23.2905C585.29 23.2905 584.894 23.4524 584.588 23.7223C584.282 23.4524 583.886 23.2905 583.455 23.2905C582.519 23.2905 581.763 24.0461 581.763 24.9997C581.763 26.6369 581.763 27.4105 581.763 27.7883C581.422 28.1121 581.224 28.5439 581.224 29.0297V31.6743C581.224 33.4734 582.141 35.1466 583.616 36.1361V48.316C583.616 48.6399 583.868 48.8917 584.192 48.8917C584.516 48.8917 584.768 48.6399 584.768 48.316V35.8123C584.768 35.6144 584.66 35.4165 584.48 35.3085C583.185 34.5529 582.375 33.1676 582.375 31.6563V29.0297C582.375 28.8318 582.465 28.6698 582.627 28.5619C582.627 28.5619 582.645 28.5619 582.645 28.5439C582.735 28.4899 582.825 28.4719 582.933 28.4719H585.829C586.135 28.4719 586.387 28.7238 586.387 29.0297C586.387 29.3355 586.135 29.5874 585.829 29.5874H584.066C583.922 29.5874 583.76 29.6414 583.652 29.7493C583.544 29.8572 583.491 30.0012 583.491 30.1631V31.9442C583.491 32.1781 583.634 32.376 583.832 32.4659L586.315 33.5274C586.387 33.5634 586.459 33.5814 586.549 33.5814C586.765 33.5814 586.981 33.4554 587.071 33.2396C587.197 32.9517 587.053 32.6099 586.765 32.4839L584.642 31.5664V30.7388H585.829C586.603 30.7388 587.251 30.2351 587.467 29.5334C587.628 29.5874 587.808 29.6234 587.988 29.6234C588.42 29.6234 588.816 29.4614 589.122 29.1916C589.428 29.4614 589.823 29.6234 590.255 29.6234C590.453 29.6234 590.633 29.5874 590.813 29.5334V31.8183C590.813 33.9952 589.05 35.7583 586.873 35.7583C586.549 35.7583 586.297 36.0102 586.297 36.334C586.297 36.6578 586.549 36.9097 586.873 36.9097C587.61 36.9097 588.312 36.7478 588.96 36.4599V48.334C588.96 48.6578 589.212 48.9097 589.535 48.9097C589.859 48.9097 590.111 48.6578 590.111 48.334V35.7403C591.245 34.8048 591.964 33.3835 591.964 31.8003V26.0611C591.946 25.1256 591.191 24.352 590.237 24.352ZM582.915 27.3205C582.915 26.6728 582.915 25.7013 582.915 24.9997C582.915 24.6938 583.167 24.442 583.473 24.442C583.778 24.442 584.03 24.6938 584.03 24.9997V27.3205H582.951C582.933 27.3205 582.915 27.3205 582.915 27.3205ZM585.829 27.3205H585.164V24.9997C585.164 24.6938 585.416 24.442 585.721 24.442C586.027 24.442 586.279 24.6938 586.279 24.9997V27.3745C586.135 27.3385 585.991 27.3205 585.829 27.3205ZM587.988 28.4539C587.682 28.4539 587.431 28.2021 587.431 27.8962V24.9997C587.431 24.6938 587.682 24.442 587.988 24.442C588.294 24.442 588.546 24.6938 588.546 24.9997V26.0611V27.8962C588.546 28.2021 588.294 28.4539 587.988 28.4539ZM590.237 28.4539C589.931 28.4539 589.679 28.2021 589.679 27.8962V26.0611C589.679 25.7553 589.931 25.5034 590.237 25.5034C590.543 25.5034 590.795 25.7553 590.795 26.0611V27.8962C590.795 28.2021 590.543 28.4539 590.237 28.4539Z" fill="#422938"/>
<path d="M563.808 26.9969C563.808 26.6371 563.52 26.3672 563.179 26.3672C562.819 26.3672 562.549 26.655 562.549 26.9969V30.0913C562.549 30.4511 562.837 30.721 563.179 30.721C563.538 30.721 563.808 30.4332 563.808 30.0913V26.9969Z" fill="#BB8C82"/>
<path d="M561.955 39.6806C561.631 39.6806 561.379 39.4287 561.379 39.1048C561.379 38.781 561.631 38.5291 561.955 38.5291C564.312 38.5291 566.219 36.6221 566.219 34.2653V31.7645C566.021 31.8365 565.805 31.8905 565.589 31.8905C565.121 31.8905 564.689 31.7105 564.384 31.4227C564.06 31.7105 563.628 31.8905 563.16 31.8905C562.962 31.8905 562.746 31.8545 562.567 31.7825C562.351 32.5381 561.667 33.0959 560.839 33.0959H559.526V34.0494L561.829 35.0389C562.117 35.1648 562.261 35.5066 562.135 35.7945C562.045 36.0104 561.829 36.1363 561.613 36.1363C561.541 36.1363 561.469 36.1183 561.379 36.0824L558.734 34.9489C558.519 34.859 558.393 34.6431 558.393 34.4272V32.5201C558.393 32.3762 558.447 32.2143 558.555 32.1063C558.662 31.9984 558.806 31.9444 558.968 31.9444H560.857C561.217 31.9444 561.487 31.6566 561.487 31.3147C561.487 30.9549 561.199 30.6851 560.857 30.6851H557.745C557.637 30.6851 557.511 30.721 557.421 30.775C557.421 30.775 557.403 30.775 557.403 30.793C557.223 30.901 557.115 31.0989 557.115 31.3327V34.1753C557.115 35.7945 557.997 37.3057 559.4 38.1153C559.58 38.2233 559.688 38.4032 559.688 38.6191V48.4422H564.24V39.2128C563.538 39.5006 562.764 39.6806 561.955 39.6806Z" fill="#BB8C82"/>
<path d="M558.951 26.9969C558.951 26.6371 558.663 26.3672 558.321 26.3672C557.979 26.3672 557.691 26.655 557.691 26.9969C557.691 27.7885 557.691 28.832 557.691 29.5336C557.709 29.5336 557.727 29.5336 557.763 29.5336H558.969V26.9969H558.951Z" fill="#BB8C82"/>
<path d="M561.379 26.9969C561.379 26.6371 561.091 26.3672 560.749 26.3672C560.389 26.3672 560.119 26.655 560.119 26.9969V29.5336H560.875C561.055 29.5336 561.235 29.5696 561.397 29.6056V26.9969H561.379Z" fill="#BB8C82"/>
<path d="M565.59 27.5005C565.23 27.5005 564.96 27.7883 564.96 28.1302V30.0912C564.96 30.451 565.248 30.7209 565.59 30.7209C565.949 30.7209 566.219 30.433 566.219 30.0912V28.1302C566.219 27.7883 565.931 27.5005 565.59 27.5005Z" fill="#BB8C82"/>
<path d="M565.589 26.3493C565.337 26.3493 565.103 26.4032 564.888 26.4932C564.672 25.7556 563.988 25.2158 563.178 25.2158C562.711 25.2158 562.279 25.3957 561.973 25.6836C561.649 25.3957 561.235 25.2158 560.768 25.2158C560.3 25.2158 559.868 25.3957 559.562 25.6836C559.238 25.3957 558.825 25.2158 558.357 25.2158C557.385 25.2158 556.576 26.0254 556.576 26.9969C556.576 28.778 556.576 29.6056 556.576 30.0014C556.216 30.3433 556 30.811 556 31.3148V34.1573C556 36.0824 556.972 37.8635 558.573 38.925V48.4242C558.573 48.7481 558.825 48.9999 559.148 48.9999C559.472 48.9999 559.724 48.7481 559.724 48.4242V38.6011C559.724 38.4032 559.616 38.2053 559.436 38.0974C558.033 37.2878 557.151 35.7765 557.151 34.1573V31.3148C557.151 31.0989 557.259 30.901 557.439 30.775C557.439 30.775 557.457 30.775 557.457 30.757C557.547 30.7031 557.673 30.6671 557.781 30.6671H560.876C561.235 30.6671 561.505 30.9549 561.505 31.2968C561.505 31.6566 561.217 31.9265 560.876 31.9265H558.969C558.825 31.9265 558.663 31.9804 558.555 32.0884C558.447 32.1963 558.393 32.3403 558.393 32.5022V34.4092C558.393 34.6431 558.537 34.841 558.735 34.931L561.379 36.0644C561.451 36.1004 561.523 36.1184 561.613 36.1184C561.829 36.1184 562.045 35.9924 562.135 35.7765C562.261 35.4887 562.117 35.1469 561.829 35.0209L559.526 34.0494V33.0959H560.84C561.667 33.0959 562.351 32.5382 562.567 31.7825C562.747 31.8545 562.945 31.8905 563.16 31.8905C563.628 31.8905 564.06 31.7106 564.366 31.4227C564.69 31.7106 565.103 31.8905 565.571 31.8905C565.787 31.8905 566.003 31.8545 566.201 31.7645V34.2653C566.201 36.6221 564.294 38.5292 561.937 38.5292C561.613 38.5292 561.361 38.781 561.361 39.1049C561.361 39.4287 561.613 39.6806 561.937 39.6806C562.747 39.6806 563.52 39.5007 564.204 39.1768V48.4062C564.204 48.7301 564.456 48.9819 564.78 48.9819C565.103 48.9819 565.355 48.7301 565.355 48.4062V38.4572C566.579 37.4677 567.352 35.9564 567.352 34.2653V28.1304C567.37 27.1588 566.579 26.3493 565.589 26.3493ZM557.691 29.5337C557.691 28.832 557.691 27.7885 557.691 26.9969C557.691 26.6371 557.979 26.3672 558.321 26.3672C558.681 26.3672 558.951 26.6551 558.951 26.9969V29.5337H557.745C557.727 29.5157 557.709 29.5337 557.691 29.5337ZM560.858 29.5157H560.102V26.9969C560.102 26.6371 560.39 26.3672 560.732 26.3672C561.091 26.3672 561.361 26.6551 561.361 26.9969V29.6056C561.217 29.5517 561.037 29.5157 560.858 29.5157ZM563.16 30.7391C562.801 30.7391 562.531 30.4512 562.531 30.1094V26.9969C562.531 26.6371 562.819 26.3672 563.16 26.3672C563.52 26.3672 563.79 26.6551 563.79 26.9969V30.0914C563.808 30.4512 563.52 30.7391 563.16 30.7391ZM565.589 30.7391C565.229 30.7391 564.96 30.4512 564.96 30.1094V28.1304C564.96 27.7705 565.247 27.5007 565.589 27.5007C565.949 27.5007 566.219 27.7885 566.219 28.1304V30.0914C566.219 30.4512 565.931 30.7391 565.589 30.7391Z" fill="#422938"/>
<path d="M578.632 15.501C578.146 15.501 577.769 15.8968 577.769 16.3645V18.7034C577.769 19.1891 578.164 19.5669 578.632 19.5669C579.118 19.5669 579.496 19.1711 579.496 18.7034V16.3645C579.496 15.8968 579.118 15.501 578.632 15.501Z" fill="#F7BAAD"/>
<path d="M576.618 16.3823V15.0149C576.618 14.5292 576.222 14.1514 575.754 14.1514C575.268 14.1514 574.891 14.5472 574.891 15.0149V18.7211C574.891 19.2068 575.286 19.5847 575.754 19.5847C576.222 19.5847 576.618 19.1888 576.618 18.7211V16.3823Z" fill="#F7BAAD"/>
<path d="M573.721 15.0149C573.721 14.5292 573.325 14.1514 572.857 14.1514C572.389 14.1514 571.976 14.5472 571.976 15.0149V18.1454H572.983C573.235 18.1454 573.487 18.1993 573.721 18.2893V15.0149Z" fill="#F7BAAD"/>
<path d="M570.824 15.0149C570.824 14.5292 570.428 14.1514 569.96 14.1514C569.492 14.1514 569.097 14.5472 569.097 15.0149C569.097 16.0044 569.097 17.3358 569.097 18.1634C569.151 18.1634 569.223 18.1454 569.277 18.1454H570.824V15.0149Z" fill="#F7BAAD"/>
<path d="M574.296 30.0555C573.972 30.0555 573.72 29.8036 573.72 29.4798C573.72 29.1559 573.972 28.9041 574.296 28.9041C577.175 28.9041 579.496 26.5652 579.496 23.7047V20.5562C579.226 20.6822 578.938 20.7541 578.632 20.7541C578.074 20.7541 577.553 20.5203 577.193 20.1425C576.833 20.5203 576.311 20.7541 575.753 20.7541C575.484 20.7541 575.214 20.7002 574.98 20.5922C574.782 21.5098 573.972 22.1934 573.001 22.1934H571.31V23.5248L574.134 24.7302C574.422 24.8561 574.566 25.1979 574.44 25.4858C574.35 25.7017 574.134 25.8276 573.918 25.8276C573.846 25.8276 573.774 25.8096 573.684 25.7736L570.518 24.4063C570.302 24.3164 570.176 24.1005 570.176 23.8846V21.5997C570.176 21.4558 570.23 21.2939 570.338 21.1859C570.446 21.078 570.59 21.024 570.752 21.024H573.019C573.505 21.024 573.882 20.6282 573.882 20.1604C573.882 19.6747 573.487 19.2969 573.019 19.2969H569.277C569.115 19.2969 568.953 19.3329 568.827 19.4228C568.827 19.4228 568.809 19.4228 568.809 19.4408C568.557 19.6027 568.413 19.8726 568.413 20.1784V23.5607C568.413 25.5398 569.475 27.3748 571.184 28.3643C571.364 28.4723 571.472 28.6522 571.472 28.8681V48.4063H577.121V29.4078C576.275 29.8216 575.322 30.0555 574.296 30.0555Z" fill="#F7BAAD"/>
<path d="M580.648 18.7211V16.3823C580.648 15.2669 579.748 14.3673 578.633 14.3673C578.309 14.3673 577.985 14.4393 577.715 14.5832C577.517 13.6837 576.708 13 575.736 13C575.178 13 574.657 13.2339 574.297 13.6117C573.937 13.2339 573.415 13 572.857 13C572.3 13 571.778 13.2339 571.418 13.6117C571.058 13.2339 570.537 13 569.979 13C568.863 13 567.964 13.8996 567.964 15.015C567.964 17.2459 567.964 18.2174 567.964 18.6492C567.532 19.027 567.28 19.5847 567.28 20.1784V23.5607C567.28 25.8276 568.45 27.9505 570.339 29.1919V48.4243C570.339 48.7481 570.591 49 570.914 49C571.238 49 571.49 48.7481 571.49 48.4243V28.8861C571.49 28.6882 571.382 28.4903 571.202 28.3823C569.493 27.3928 568.432 25.5577 568.432 23.5787V20.1784C568.432 19.8726 568.576 19.6027 568.827 19.4408C568.827 19.4408 568.845 19.4408 568.845 19.4228C568.989 19.3328 569.133 19.2969 569.295 19.2969H573.001C573.487 19.2969 573.865 19.6927 573.865 20.1604C573.865 20.6462 573.469 21.024 573.001 21.024H570.717C570.573 21.024 570.411 21.078 570.303 21.1859C570.195 21.2939 570.141 21.4378 570.141 21.5997V23.8846C570.141 24.1184 570.285 24.3163 570.483 24.4063L573.649 25.7736C573.721 25.8096 573.793 25.8276 573.883 25.8276C574.099 25.8276 574.315 25.7016 574.405 25.4858C574.531 25.1979 574.387 24.8561 574.099 24.7301L571.274 23.5247V22.1934H572.965C573.937 22.1934 574.747 21.5097 574.944 20.5922C575.178 20.7001 575.448 20.7541 575.718 20.7541C576.276 20.7541 576.798 20.5202 577.157 20.1424C577.517 20.5202 578.039 20.7541 578.597 20.7541C578.902 20.7541 579.208 20.6822 579.46 20.5562V23.7226C579.46 26.6012 577.121 28.922 574.261 28.922C573.937 28.922 573.685 29.1739 573.685 29.4977C573.685 29.8216 573.937 30.0735 574.261 30.0735C575.268 30.0735 576.24 29.8396 577.085 29.4078V48.4243C577.085 48.7481 577.337 49 577.661 49C577.985 49 578.237 48.7481 578.237 48.4243V28.6702C579.694 27.5007 580.612 25.7196 580.612 23.7226C580.648 23.7046 580.648 18.7211 580.648 18.7211ZM569.097 18.1634C569.097 17.3358 569.097 16.0045 569.097 15.015C569.097 14.5292 569.493 14.1514 569.961 14.1514C570.447 14.1514 570.825 14.5472 570.825 15.015V18.1454H569.277C569.205 18.1454 569.151 18.1634 569.097 18.1634ZM572.983 18.1454H571.976V15.015C571.976 14.5292 572.372 14.1514 572.839 14.1514C573.307 14.1514 573.703 14.5472 573.703 15.015V18.2894C573.487 18.1994 573.235 18.1454 572.983 18.1454ZM575.736 19.6027C575.25 19.6027 574.872 19.2069 574.872 18.7391V15.015C574.872 14.5292 575.268 14.1514 575.736 14.1514C576.222 14.1514 576.6 14.5472 576.6 15.015V16.3823V18.7211C576.618 19.2069 576.222 19.6027 575.736 19.6027ZM578.633 19.6027C578.147 19.6027 577.769 19.2069 577.769 18.7391V16.4003C577.769 15.9145 578.165 15.5367 578.633 15.5367C579.118 15.5367 579.496 15.9325 579.496 16.4003V18.7391C579.496 19.2069 579.118 19.6027 578.633 19.6027Z" fill="#422938"/>
</svg>
