<svg width="401" height="166" viewBox="0 0 401 166" fill="none" xmlns="http://www.w3.org/2000/svg">
<rect x="0.5" y="0.5" width="400" height="165" rx="11.5" fill="white" stroke="#C5C5C5"/>
<path d="M204.707 132.707C205.098 132.317 205.098 131.683 204.707 131.293L198.343 124.929C197.953 124.538 197.319 124.538 196.929 124.929C196.538 125.319 196.538 125.953 196.929 126.343L202.586 132L196.929 137.657C196.538 138.047 196.538 138.681 196.929 139.071C197.319 139.462 197.953 139.462 198.343 139.071L204.707 132.707ZM203 133H204V131H203V133Z" fill="#B1B1B1"/>
<path d="M123.526 86.454V87.786H120.106V99H118.468V87.786H115.03V86.454H123.526ZM129.844 99.162C128.92 99.162 128.08 98.952 127.324 98.532C126.58 98.112 125.992 97.518 125.56 96.75C125.14 95.97 124.93 95.07 124.93 94.05C124.93 93.042 125.146 92.154 125.578 91.386C126.022 90.606 126.622 90.012 127.378 89.604C128.134 89.184 128.98 88.974 129.916 88.974C130.852 88.974 131.698 89.184 132.454 89.604C133.21 90.012 133.804 90.6 134.236 91.368C134.68 92.136 134.902 93.03 134.902 94.05C134.902 95.07 134.674 95.97 134.218 96.75C133.774 97.518 133.168 98.112 132.4 98.532C131.632 98.952 130.78 99.162 129.844 99.162ZM129.844 97.722C130.432 97.722 130.984 97.584 131.5 97.308C132.016 97.032 132.43 96.618 132.742 96.066C133.066 95.514 133.228 94.842 133.228 94.05C133.228 93.258 133.072 92.586 132.76 92.034C132.448 91.482 132.04 91.074 131.536 90.81C131.032 90.534 130.486 90.396 129.898 90.396C129.298 90.396 128.746 90.534 128.242 90.81C127.75 91.074 127.354 91.482 127.054 92.034C126.754 92.586 126.604 93.258 126.604 94.05C126.604 94.854 126.748 95.532 127.036 96.084C127.336 96.636 127.732 97.05 128.224 97.326C128.716 97.59 129.256 97.722 129.844 97.722ZM139.054 90.486V96.3C139.054 96.78 139.156 97.122 139.36 97.326C139.564 97.518 139.918 97.614 140.422 97.614H141.628V99H140.152C139.24 99 138.556 98.79 138.1 98.37C137.644 97.95 137.416 97.26 137.416 96.3V90.486H136.138V89.136H137.416V86.652H139.054V89.136H141.628V90.486H139.054ZM143.001 94.032C143.001 93.024 143.205 92.142 143.613 91.386C144.021 90.618 144.579 90.024 145.287 89.604C146.007 89.184 146.805 88.974 147.681 88.974C148.545 88.974 149.295 89.16 149.931 89.532C150.567 89.904 151.041 90.372 151.353 90.936V89.136H153.009V99H151.353V97.164C151.029 97.74 150.543 98.22 149.895 98.604C149.259 98.976 148.515 99.162 147.663 99.162C146.787 99.162 145.995 98.946 145.287 98.514C144.579 98.082 144.021 97.476 143.613 96.696C143.205 95.916 143.001 95.028 143.001 94.032ZM151.353 94.05C151.353 93.306 151.203 92.658 150.903 92.106C150.603 91.554 150.195 91.134 149.679 90.846C149.175 90.546 148.617 90.396 148.005 90.396C147.393 90.396 146.835 90.54 146.331 90.828C145.827 91.116 145.425 91.536 145.125 92.088C144.825 92.64 144.675 93.288 144.675 94.032C144.675 94.788 144.825 95.448 145.125 96.012C145.425 96.564 145.827 96.99 146.331 97.29C146.835 97.578 147.393 97.722 148.005 97.722C148.617 97.722 149.175 97.578 149.679 97.29C150.195 96.99 150.603 96.564 150.903 96.012C151.203 95.448 151.353 94.794 151.353 94.05ZM157.415 85.68V99H155.777V85.68H157.415ZM173.393 90.126C173.393 91.17 173.033 92.04 172.313 92.736C171.605 93.42 170.519 93.762 169.055 93.762H166.643V99H165.005V86.454H169.055C170.471 86.454 171.545 86.796 172.277 87.48C173.021 88.164 173.393 89.046 173.393 90.126ZM169.055 92.412C169.967 92.412 170.639 92.214 171.071 91.818C171.503 91.422 171.719 90.858 171.719 90.126C171.719 88.578 170.831 87.804 169.055 87.804H166.643V92.412H169.055ZM174.817 94.032C174.817 93.024 175.021 92.142 175.429 91.386C175.837 90.618 176.395 90.024 177.103 89.604C177.823 89.184 178.621 88.974 179.497 88.974C180.361 88.974 181.111 89.16 181.747 89.532C182.383 89.904 182.857 90.372 183.169 90.936V89.136H184.825V99H183.169V97.164C182.845 97.74 182.359 98.22 181.711 98.604C181.075 98.976 180.331 99.162 179.479 99.162C178.603 99.162 177.811 98.946 177.103 98.514C176.395 98.082 175.837 97.476 175.429 96.696C175.021 95.916 174.817 95.028 174.817 94.032ZM183.169 94.05C183.169 93.306 183.019 92.658 182.719 92.106C182.419 91.554 182.011 91.134 181.495 90.846C180.991 90.546 180.433 90.396 179.821 90.396C179.209 90.396 178.651 90.54 178.147 90.828C177.643 91.116 177.241 91.536 176.941 92.088C176.641 92.64 176.491 93.288 176.491 94.032C176.491 94.788 176.641 95.448 176.941 96.012C177.241 96.564 177.643 96.99 178.147 97.29C178.651 97.578 179.209 97.722 179.821 97.722C180.433 97.722 180.991 97.578 181.495 97.29C182.011 96.99 182.419 96.564 182.719 96.012C183.019 95.448 183.169 94.794 183.169 94.05ZM196.089 89.136L190.149 103.644H188.457L190.401 98.892L186.423 89.136H188.241L191.337 97.128L194.397 89.136H196.089ZM199.374 90.738C199.662 90.174 200.07 89.736 200.598 89.424C201.138 89.112 201.792 88.956 202.56 88.956V90.648H202.128C200.292 90.648 199.374 91.644 199.374 93.636V99H197.736V89.136H199.374V90.738ZM208.752 99.162C207.828 99.162 206.988 98.952 206.232 98.532C205.488 98.112 204.9 97.518 204.468 96.75C204.048 95.97 203.838 95.07 203.838 94.05C203.838 93.042 204.054 92.154 204.486 91.386C204.93 90.606 205.53 90.012 206.286 89.604C207.042 89.184 207.888 88.974 208.824 88.974C209.76 88.974 210.606 89.184 211.362 89.604C212.118 90.012 212.712 90.6 213.144 91.368C213.588 92.136 213.81 93.03 213.81 94.05C213.81 95.07 213.582 95.97 213.126 96.75C212.682 97.518 212.076 98.112 211.308 98.532C210.54 98.952 209.688 99.162 208.752 99.162ZM208.752 97.722C209.34 97.722 209.892 97.584 210.408 97.308C210.924 97.032 211.338 96.618 211.65 96.066C211.974 95.514 212.136 94.842 212.136 94.05C212.136 93.258 211.98 92.586 211.668 92.034C211.356 91.482 210.948 91.074 210.444 90.81C209.94 90.534 209.394 90.396 208.806 90.396C208.206 90.396 207.654 90.534 207.15 90.81C206.658 91.074 206.262 91.482 205.962 92.034C205.662 92.586 205.512 93.258 205.512 94.05C205.512 94.854 205.656 95.532 205.944 96.084C206.244 96.636 206.64 97.05 207.132 97.326C207.624 97.59 208.164 97.722 208.752 97.722ZM217.602 85.68V99H215.964V85.68H217.602ZM222.032 85.68V99H220.394V85.68H222.032ZM231.62 90.486V96.3C231.62 96.78 231.722 97.122 231.926 97.326C232.13 97.518 232.484 97.614 232.988 97.614H234.194V99H232.718C231.806 99 231.122 98.79 230.666 98.37C230.21 97.95 229.982 97.26 229.982 96.3V90.486H228.704V89.136H229.982V86.652H231.62V89.136H234.194V90.486H231.62ZM241.075 88.956C241.819 88.956 242.491 89.118 243.091 89.442C243.691 89.754 244.159 90.228 244.495 90.864C244.843 91.5 245.017 92.274 245.017 93.186V99H243.397V93.42C243.397 92.436 243.151 91.686 242.659 91.17C242.167 90.642 241.495 90.378 240.643 90.378C239.779 90.378 239.089 90.648 238.573 91.188C238.069 91.728 237.817 92.514 237.817 93.546V99H236.179V85.68H237.817V90.54C238.141 90.036 238.585 89.646 239.149 89.37C239.725 89.094 240.367 88.956 241.075 88.956ZM248.539 87.534C248.227 87.534 247.963 87.426 247.747 87.21C247.531 86.994 247.423 86.73 247.423 86.418C247.423 86.106 247.531 85.842 247.747 85.626C247.963 85.41 248.227 85.302 248.539 85.302C248.839 85.302 249.091 85.41 249.295 85.626C249.511 85.842 249.619 86.106 249.619 86.418C249.619 86.73 249.511 86.994 249.295 87.21C249.091 87.426 248.839 87.534 248.539 87.534ZM249.331 89.136V99H247.693V89.136H249.331ZM255.614 99.162C254.858 99.162 254.18 99.036 253.58 98.784C252.98 98.52 252.506 98.16 252.158 97.704C251.81 97.236 251.618 96.702 251.582 96.102H253.274C253.322 96.594 253.55 96.996 253.958 97.308C254.378 97.62 254.924 97.776 255.596 97.776C256.22 97.776 256.712 97.638 257.072 97.362C257.432 97.086 257.612 96.738 257.612 96.318C257.612 95.886 257.42 95.568 257.036 95.364C256.652 95.148 256.058 94.938 255.254 94.734C254.522 94.542 253.922 94.35 253.454 94.158C252.998 93.954 252.602 93.66 252.266 93.276C251.942 92.88 251.78 92.364 251.78 91.728C251.78 91.224 251.93 90.762 252.23 90.342C252.53 89.922 252.956 89.592 253.508 89.352C254.06 89.1 254.69 88.974 255.398 88.974C256.49 88.974 257.372 89.25 258.044 89.802C258.716 90.354 259.076 91.11 259.124 92.07H257.486C257.45 91.554 257.24 91.14 256.856 90.828C256.484 90.516 255.98 90.36 255.344 90.36C254.756 90.36 254.288 90.486 253.94 90.738C253.592 90.99 253.418 91.32 253.418 91.728C253.418 92.052 253.52 92.322 253.724 92.538C253.94 92.742 254.204 92.91 254.516 93.042C254.84 93.162 255.284 93.3 255.848 93.456C256.556 93.648 257.132 93.84 257.576 94.032C258.02 94.212 258.398 94.488 258.71 94.86C259.034 95.232 259.202 95.718 259.214 96.318C259.214 96.858 259.064 97.344 258.764 97.776C258.464 98.208 258.038 98.55 257.486 98.802C256.946 99.042 256.322 99.162 255.614 99.162ZM278.187 88.956C278.955 88.956 279.639 89.118 280.239 89.442C280.839 89.754 281.313 90.228 281.661 90.864C282.009 91.5 282.183 92.274 282.183 93.186V99H280.563V93.42C280.563 92.436 280.317 91.686 279.825 91.17C279.345 90.642 278.691 90.378 277.863 90.378C277.011 90.378 276.333 90.654 275.829 91.206C275.325 91.746 275.073 92.532 275.073 93.564V99H273.453V93.42C273.453 92.436 273.207 91.686 272.715 91.17C272.235 90.642 271.581 90.378 270.753 90.378C269.901 90.378 269.223 90.654 268.719 91.206C268.215 91.746 267.963 92.532 267.963 93.564V99H266.325V89.136H267.963V90.558C268.287 90.042 268.719 89.646 269.259 89.37C269.811 89.094 270.417 88.956 271.077 88.956C271.905 88.956 272.637 89.142 273.273 89.514C273.909 89.886 274.383 90.432 274.695 91.152C274.971 90.456 275.427 89.916 276.063 89.532C276.699 89.148 277.407 88.956 278.187 88.956ZM289.172 99.162C288.248 99.162 287.408 98.952 286.652 98.532C285.908 98.112 285.32 97.518 284.888 96.75C284.468 95.97 284.258 95.07 284.258 94.05C284.258 93.042 284.474 92.154 284.906 91.386C285.35 90.606 285.95 90.012 286.706 89.604C287.462 89.184 288.308 88.974 289.244 88.974C290.18 88.974 291.026 89.184 291.782 89.604C292.538 90.012 293.132 90.6 293.564 91.368C294.008 92.136 294.23 93.03 294.23 94.05C294.23 95.07 294.002 95.97 293.546 96.75C293.102 97.518 292.496 98.112 291.728 98.532C290.96 98.952 290.108 99.162 289.172 99.162ZM289.172 97.722C289.76 97.722 290.312 97.584 290.828 97.308C291.344 97.032 291.758 96.618 292.07 96.066C292.394 95.514 292.556 94.842 292.556 94.05C292.556 93.258 292.4 92.586 292.088 92.034C291.776 91.482 291.368 91.074 290.864 90.81C290.36 90.534 289.814 90.396 289.226 90.396C288.626 90.396 288.074 90.534 287.57 90.81C287.078 91.074 286.682 91.482 286.382 92.034C286.082 92.586 285.932 93.258 285.932 94.05C285.932 94.854 286.076 95.532 286.364 96.084C286.664 96.636 287.06 97.05 287.552 97.326C288.044 97.59 288.584 97.722 289.172 97.722ZM301.19 88.956C302.39 88.956 303.362 89.322 304.106 90.054C304.85 90.774 305.222 91.818 305.222 93.186V99H303.602V93.42C303.602 92.436 303.356 91.686 302.864 91.17C302.372 90.642 301.7 90.378 300.848 90.378C299.984 90.378 299.294 90.648 298.778 91.188C298.274 91.728 298.022 92.514 298.022 93.546V99H296.384V89.136H298.022V90.54C298.346 90.036 298.784 89.646 299.336 89.37C299.9 89.094 300.518 88.956 301.19 88.956ZM309.896 90.486V96.3C309.896 96.78 309.998 97.122 310.202 97.326C310.406 97.518 310.76 97.614 311.264 97.614H312.47V99H310.994C310.082 99 309.398 98.79 308.942 98.37C308.486 97.95 308.258 97.26 308.258 96.3V90.486H306.98V89.136H308.258V86.652H309.896V89.136H312.47V90.486H309.896ZM319.35 88.956C320.094 88.956 320.766 89.118 321.366 89.442C321.966 89.754 322.434 90.228 322.77 90.864C323.118 91.5 323.292 92.274 323.292 93.186V99H321.672V93.42C321.672 92.436 321.426 91.686 320.934 91.17C320.442 90.642 319.77 90.378 318.918 90.378C318.054 90.378 317.364 90.648 316.848 91.188C316.344 91.728 316.092 92.514 316.092 93.546V99H314.454V85.68H316.092V90.54C316.416 90.036 316.86 89.646 317.424 89.37C318 89.094 318.642 88.956 319.35 88.956Z" fill="#848484"/>
<path d="M127.267 65L122.647 56.84H120.667V65H116.467V44.06H124.327C125.947 44.06 127.327 44.35 128.467 44.93C129.607 45.49 130.457 46.26 131.017 47.24C131.597 48.2 131.887 49.28 131.887 50.48C131.887 51.86 131.487 53.11 130.687 54.23C129.887 55.33 128.697 56.09 127.117 56.51L132.127 65H127.267ZM120.667 53.69H124.177C125.317 53.69 126.167 53.42 126.727 52.88C127.287 52.32 127.567 51.55 127.567 50.57C127.567 49.61 127.287 48.87 126.727 48.35C126.167 47.81 125.317 47.54 124.177 47.54H120.667V53.69ZM139.886 50.78C140.426 50.02 141.166 49.39 142.106 48.89C143.066 48.37 144.156 48.11 145.376 48.11C146.796 48.11 148.076 48.46 149.216 49.16C150.376 49.86 151.286 50.86 151.946 52.16C152.626 53.44 152.966 54.93 152.966 56.63C152.966 58.33 152.626 59.84 151.946 61.16C151.286 62.46 150.376 63.47 149.216 64.19C148.076 64.91 146.796 65.27 145.376 65.27C144.156 65.27 143.076 65.02 142.136 64.52C141.216 64.02 140.466 63.39 139.886 62.63V72.92H135.686V48.38H139.886V50.78ZM148.676 56.63C148.676 55.63 148.466 54.77 148.046 54.05C147.646 53.31 147.106 52.75 146.426 52.37C145.766 51.99 145.046 51.8 144.266 51.8C143.506 51.8 142.786 52 142.106 52.4C141.446 52.78 140.906 53.34 140.486 54.08C140.086 54.82 139.886 55.69 139.886 56.69C139.886 57.69 140.086 58.56 140.486 59.3C140.906 60.04 141.446 60.61 142.106 61.01C142.786 61.39 143.506 61.58 144.266 61.58C145.046 61.58 145.766 61.38 146.426 60.98C147.106 60.58 147.646 60.01 148.046 59.27C148.466 58.53 148.676 57.65 148.676 56.63ZM170.238 46.76H160.518V51.89C160.938 51.37 161.538 50.95 162.318 50.63C163.098 50.29 163.928 50.12 164.808 50.12C166.408 50.12 167.718 50.47 168.738 51.17C169.758 51.87 170.498 52.77 170.958 53.87C171.418 54.95 171.648 56.11 171.648 57.35C171.648 59.65 170.988 61.5 169.668 62.9C168.368 64.3 166.508 65 164.088 65C161.808 65 159.988 64.43 158.628 63.29C157.268 62.15 156.498 60.66 156.318 58.82H160.398C160.578 59.62 160.978 60.26 161.598 60.74C162.238 61.22 163.048 61.46 164.028 61.46C165.208 61.46 166.098 61.09 166.698 60.35C167.298 59.61 167.598 58.63 167.598 57.41C167.598 56.17 167.288 55.23 166.668 54.59C166.068 53.93 165.178 53.6 163.998 53.6C163.158 53.6 162.458 53.81 161.898 54.23C161.338 54.65 160.938 55.21 160.698 55.91H156.678V43.07H170.238V46.76ZM174.845 53.78C174.845 50.32 175.465 47.61 176.705 45.65C177.965 43.69 180.045 42.71 182.945 42.71C185.845 42.71 187.915 43.69 189.155 45.65C190.415 47.61 191.045 50.32 191.045 53.78C191.045 57.26 190.415 59.99 189.155 61.97C187.915 63.95 185.845 64.94 182.945 64.94C180.045 64.94 177.965 63.95 176.705 61.97C175.465 59.99 174.845 57.26 174.845 53.78ZM186.905 53.78C186.905 52.3 186.805 51.06 186.605 50.06C186.425 49.04 186.045 48.21 185.465 47.57C184.905 46.93 184.065 46.61 182.945 46.61C181.825 46.61 180.975 46.93 180.395 47.57C179.835 48.21 179.455 49.04 179.255 50.06C179.075 51.06 178.985 52.3 178.985 53.78C178.985 55.3 179.075 56.58 179.255 57.62C179.435 58.64 179.815 59.47 180.395 60.11C180.975 60.73 181.825 61.04 182.945 61.04C184.065 61.04 184.915 60.73 185.495 60.11C186.075 59.47 186.455 58.64 186.635 57.62C186.815 56.58 186.905 55.3 186.905 53.78ZM196.579 65.21C195.819 65.21 195.189 64.98 194.689 64.52C194.209 64.04 193.969 63.45 193.969 62.75C193.969 62.05 194.209 61.47 194.689 61.01C195.189 60.53 195.819 60.29 196.579 60.29C197.319 60.29 197.929 60.53 198.409 61.01C198.889 61.47 199.129 62.05 199.129 62.75C199.129 63.45 198.889 64.04 198.409 64.52C197.929 64.98 197.319 65.21 196.579 65.21ZM202.032 53.78C202.032 50.32 202.652 47.61 203.892 45.65C205.152 43.69 207.232 42.71 210.132 42.71C213.032 42.71 215.102 43.69 216.342 45.65C217.602 47.61 218.232 50.32 218.232 53.78C218.232 57.26 217.602 59.99 216.342 61.97C215.102 63.95 213.032 64.94 210.132 64.94C207.232 64.94 205.152 63.95 203.892 61.97C202.652 59.99 202.032 57.26 202.032 53.78ZM214.092 53.78C214.092 52.3 213.992 51.06 213.792 50.06C213.612 49.04 213.232 48.21 212.652 47.57C212.092 46.93 211.252 46.61 210.132 46.61C209.012 46.61 208.162 46.93 207.582 47.57C207.022 48.21 206.642 49.04 206.442 50.06C206.262 51.06 206.172 52.3 206.172 53.78C206.172 55.3 206.262 56.58 206.442 57.62C206.622 58.64 207.002 59.47 207.582 60.11C208.162 60.73 209.012 61.04 210.132 61.04C211.252 61.04 212.102 60.73 212.682 60.11C213.262 59.47 213.642 58.64 213.822 57.62C214.002 56.58 214.092 55.3 214.092 53.78ZM221.427 53.78C221.427 50.32 222.047 47.61 223.287 45.65C224.547 43.69 226.627 42.71 229.527 42.71C232.427 42.71 234.497 43.69 235.737 45.65C236.997 47.61 237.627 50.32 237.627 53.78C237.627 57.26 236.997 59.99 235.737 61.97C234.497 63.95 232.427 64.94 229.527 64.94C226.627 64.94 224.547 63.95 223.287 61.97C222.047 59.99 221.427 57.26 221.427 53.78ZM233.487 53.78C233.487 52.3 233.387 51.06 233.187 50.06C233.007 49.04 232.627 48.21 232.047 47.57C231.487 46.93 230.647 46.61 229.527 46.61C228.407 46.61 227.557 46.93 226.977 47.57C226.417 48.21 226.037 49.04 225.837 50.06C225.657 51.06 225.567 52.3 225.567 53.78C225.567 55.3 225.657 56.58 225.837 57.62C226.017 58.64 226.397 59.47 226.977 60.11C227.557 60.73 228.407 61.04 229.527 61.04C230.647 61.04 231.497 60.73 232.077 60.11C232.657 59.47 233.037 58.64 233.217 57.62C233.397 56.58 233.487 55.3 233.487 53.78ZM240.821 53.78C240.821 50.32 241.441 47.61 242.681 45.65C243.941 43.69 246.021 42.71 248.921 42.71C251.821 42.71 253.891 43.69 255.131 45.65C256.391 47.61 257.021 50.32 257.021 53.78C257.021 57.26 256.391 59.99 255.131 61.97C253.891 63.95 251.821 64.94 248.921 64.94C246.021 64.94 243.941 63.95 242.681 61.97C241.441 59.99 240.821 57.26 240.821 53.78ZM252.881 53.78C252.881 52.3 252.781 51.06 252.581 50.06C252.401 49.04 252.021 48.21 251.441 47.57C250.881 46.93 250.041 46.61 248.921 46.61C247.801 46.61 246.951 46.93 246.371 47.57C245.811 48.21 245.431 49.04 245.231 50.06C245.051 51.06 244.961 52.3 244.961 53.78C244.961 55.3 245.051 56.58 245.231 57.62C245.411 58.64 245.791 59.47 246.371 60.11C246.951 60.73 247.801 61.04 248.921 61.04C250.041 61.04 250.891 60.73 251.471 60.11C252.051 59.47 252.431 58.64 252.611 57.62C252.791 56.58 252.881 55.3 252.881 53.78ZM262.556 65.21C261.796 65.21 261.166 64.98 260.666 64.52C260.186 64.04 259.946 63.45 259.946 62.75C259.946 62.05 260.186 61.47 260.666 61.01C261.166 60.53 261.796 60.29 262.556 60.29C263.296 60.29 263.906 60.53 264.386 61.01C264.866 61.47 265.106 62.05 265.106 62.75C265.106 63.45 264.866 64.04 264.386 64.52C263.906 64.98 263.296 65.21 262.556 65.21ZM268.009 53.78C268.009 50.32 268.629 47.61 269.869 45.65C271.129 43.69 273.209 42.71 276.109 42.71C279.009 42.71 281.079 43.69 282.319 45.65C283.579 47.61 284.209 50.32 284.209 53.78C284.209 57.26 283.579 59.99 282.319 61.97C281.079 63.95 279.009 64.94 276.109 64.94C273.209 64.94 271.129 63.95 269.869 61.97C268.629 59.99 268.009 57.26 268.009 53.78ZM280.069 53.78C280.069 52.3 279.969 51.06 279.769 50.06C279.589 49.04 279.209 48.21 278.629 47.57C278.069 46.93 277.229 46.61 276.109 46.61C274.989 46.61 274.139 46.93 273.559 47.57C272.999 48.21 272.619 49.04 272.419 50.06C272.239 51.06 272.149 52.3 272.149 53.78C272.149 55.3 272.239 56.58 272.419 57.62C272.599 58.64 272.979 59.47 273.559 60.11C274.139 60.73 274.989 61.04 276.109 61.04C277.229 61.04 278.079 60.73 278.659 60.11C279.239 59.47 279.619 58.64 279.799 57.62C279.979 56.58 280.069 55.3 280.069 53.78ZM287.403 53.78C287.403 50.32 288.023 47.61 289.263 45.65C290.523 43.69 292.603 42.71 295.503 42.71C298.403 42.71 300.473 43.69 301.713 45.65C302.973 47.61 303.603 50.32 303.603 53.78C303.603 57.26 302.973 59.99 301.713 61.97C300.473 63.95 298.403 64.94 295.503 64.94C292.603 64.94 290.523 63.95 289.263 61.97C288.023 59.99 287.403 57.26 287.403 53.78ZM299.463 53.78C299.463 52.3 299.363 51.06 299.163 50.06C298.983 49.04 298.603 48.21 298.023 47.57C297.463 46.93 296.623 46.61 295.503 46.61C294.383 46.61 293.533 46.93 292.953 47.57C292.393 48.21 292.013 49.04 291.813 50.06C291.633 51.06 291.543 52.3 291.543 53.78C291.543 55.3 291.633 56.58 291.813 57.62C291.993 58.64 292.373 59.47 292.953 60.11C293.533 60.73 294.383 61.04 295.503 61.04C296.623 61.04 297.473 60.73 298.053 60.11C298.633 59.47 299.013 58.64 299.193 57.62C299.373 56.58 299.463 55.3 299.463 53.78ZM306.798 53.78C306.798 50.32 307.418 47.61 308.658 45.65C309.918 43.69 311.998 42.71 314.898 42.71C317.798 42.71 319.868 43.69 321.108 45.65C322.368 47.61 322.998 50.32 322.998 53.78C322.998 57.26 322.368 59.99 321.108 61.97C319.868 63.95 317.798 64.94 314.898 64.94C311.998 64.94 309.918 63.95 308.658 61.97C307.418 59.99 306.798 57.26 306.798 53.78ZM318.858 53.78C318.858 52.3 318.758 51.06 318.558 50.06C318.378 49.04 317.998 48.21 317.418 47.57C316.858 46.93 316.018 46.61 314.898 46.61C313.778 46.61 312.928 46.93 312.348 47.57C311.788 48.21 311.408 49.04 311.208 50.06C311.028 51.06 310.938 52.3 310.938 53.78C310.938 55.3 311.028 56.58 311.208 57.62C311.388 58.64 311.768 59.47 312.348 60.11C312.928 60.73 313.778 61.04 314.898 61.04C316.018 61.04 316.868 60.73 317.448 60.11C318.028 59.47 318.408 58.64 318.588 57.62C318.768 56.58 318.858 55.3 318.858 53.78Z" fill="#00A2E9"/>
<path d="M108 71.5C108 93.3152 90.3152 111 68.5 111C46.6848 111 29 93.3152 29 71.5C29 49.6848 46.6848 32 68.5 32C90.3152 32 108 49.6848 108 71.5ZM35.8834 71.5C35.8834 89.5136 50.4864 104.117 68.5 104.117C86.5136 104.117 101.117 89.5136 101.117 71.5C101.117 53.4864 86.5136 38.8834 68.5 38.8834C50.4864 38.8834 35.8834 53.4864 35.8834 71.5Z" fill="#C4C4C4"/>
<path d="M99.5089 89.827C101.164 90.805 101.724 92.9497 100.605 94.5119C96.9886 99.5567 92.224 103.692 86.685 106.565C80.1134 109.973 72.7163 111.466 65.3373 110.873C57.9582 110.28 50.8942 107.626 44.9509 103.213C39.0076 98.7992 34.424 92.8045 31.723 85.912C29.0221 79.0195 28.3123 71.5067 29.6747 64.2304C31.0371 56.954 34.4169 50.207 39.4286 44.7586C44.4402 39.3103 50.8821 35.3799 58.0196 33.4157C64.0355 31.7602 70.3414 31.5577 76.4222 32.8026C78.3051 33.1881 79.3509 35.1428 78.8012 36.9845V36.9845C78.2516 38.8262 76.3142 39.8539 74.4243 39.504C69.6018 38.6111 64.6239 38.8172 59.8663 40.1265C53.9865 41.7445 48.6797 44.9823 44.5512 49.4706C40.4226 53.959 37.6384 59.5171 36.516 65.5113C35.3937 71.5056 35.9783 77.6945 38.2034 83.3725C40.4285 89.0505 44.2043 93.9889 49.1004 97.6246C53.9965 101.26 59.8158 103.447 65.8945 103.935C71.9733 104.424 78.067 103.194 83.4807 100.386C87.8611 98.1146 91.6537 94.8838 94.5856 90.9521C95.7345 89.4113 97.8543 88.8491 99.5089 89.827V89.827Z" fill="#00A2E9"/>
<path d="M43.2561 135.21H37.7841L36.7761 138H35.0481L39.5841 125.526H41.4741L45.9921 138H44.2641L43.2561 135.21ZM42.7881 133.878L40.5201 127.542L38.2521 133.878H42.7881ZM51.461 138.162C50.705 138.162 50.027 138.036 49.427 137.784C48.827 137.52 48.353 137.16 48.005 136.704C47.657 136.236 47.465 135.702 47.429 135.102H49.121C49.169 135.594 49.397 135.996 49.805 136.308C50.225 136.62 50.771 136.776 51.443 136.776C52.067 136.776 52.559 136.638 52.919 136.362C53.279 136.086 53.459 135.738 53.459 135.318C53.459 134.886 53.267 134.568 52.883 134.364C52.499 134.148 51.905 133.938 51.101 133.734C50.369 133.542 49.769 133.35 49.301 133.158C48.845 132.954 48.449 132.66 48.113 132.276C47.789 131.88 47.627 131.364 47.627 130.728C47.627 130.224 47.777 129.762 48.077 129.342C48.377 128.922 48.803 128.592 49.355 128.352C49.907 128.1 50.537 127.974 51.245 127.974C52.337 127.974 53.219 128.25 53.891 128.802C54.563 129.354 54.923 130.11 54.971 131.07H53.333C53.297 130.554 53.087 130.14 52.703 129.828C52.331 129.516 51.827 129.36 51.191 129.36C50.603 129.36 50.135 129.486 49.787 129.738C49.439 129.99 49.265 130.32 49.265 130.728C49.265 131.052 49.367 131.322 49.571 131.538C49.787 131.742 50.051 131.91 50.363 132.042C50.687 132.162 51.131 132.3 51.695 132.456C52.403 132.648 52.979 132.84 53.423 133.032C53.867 133.212 54.245 133.488 54.557 133.86C54.881 134.232 55.049 134.718 55.061 135.318C55.061 135.858 54.911 136.344 54.611 136.776C54.311 137.208 53.885 137.55 53.333 137.802C52.793 138.042 52.169 138.162 51.461 138.162ZM60.8653 138.162C60.1093 138.162 59.4313 138.036 58.8313 137.784C58.2313 137.52 57.7573 137.16 57.4093 136.704C57.0613 136.236 56.8693 135.702 56.8333 135.102H58.5253C58.5733 135.594 58.8013 135.996 59.2093 136.308C59.6293 136.62 60.1753 136.776 60.8473 136.776C61.4713 136.776 61.9633 136.638 62.3233 136.362C62.6833 136.086 62.8633 135.738 62.8633 135.318C62.8633 134.886 62.6713 134.568 62.2873 134.364C61.9033 134.148 61.3093 133.938 60.5053 133.734C59.7733 133.542 59.1733 133.35 58.7053 133.158C58.2493 132.954 57.8533 132.66 57.5173 132.276C57.1933 131.88 57.0313 131.364 57.0313 130.728C57.0313 130.224 57.1813 129.762 57.4813 129.342C57.7813 128.922 58.2073 128.592 58.7593 128.352C59.3113 128.1 59.9413 127.974 60.6493 127.974C61.7413 127.974 62.6233 128.25 63.2953 128.802C63.9673 129.354 64.3273 130.11 64.3753 131.07H62.7373C62.7013 130.554 62.4913 130.14 62.1073 129.828C61.7353 129.516 61.2313 129.36 60.5953 129.36C60.0073 129.36 59.5393 129.486 59.1913 129.738C58.8433 129.99 58.6693 130.32 58.6693 130.728C58.6693 131.052 58.7713 131.322 58.9753 131.538C59.1913 131.742 59.4553 131.91 59.7673 132.042C60.0913 132.162 60.5353 132.3 61.0993 132.456C61.8073 132.648 62.3833 132.84 62.8273 133.032C63.2713 133.212 63.6493 133.488 63.9613 133.86C64.2853 134.232 64.4533 134.718 64.4653 135.318C64.4653 135.858 64.3153 136.344 64.0153 136.776C63.7153 137.208 63.2893 137.55 62.7373 137.802C62.1973 138.042 61.5733 138.162 60.8653 138.162ZM67.6236 126.534C67.3116 126.534 67.0476 126.426 66.8316 126.21C66.6156 125.994 66.5076 125.73 66.5076 125.418C66.5076 125.106 66.6156 124.842 66.8316 124.626C67.0476 124.41 67.3116 124.302 67.6236 124.302C67.9236 124.302 68.1756 124.41 68.3796 124.626C68.5956 124.842 68.7036 125.106 68.7036 125.418C68.7036 125.73 68.5956 125.994 68.3796 126.21C68.1756 126.426 67.9236 126.534 67.6236 126.534ZM68.4156 128.136V138H66.7776V128.136H68.4156ZM75.2753 127.974C76.1273 127.974 76.8713 128.16 77.5073 128.532C78.1553 128.904 78.6353 129.372 78.9473 129.936V128.136H80.6033V138.216C80.6033 139.116 80.4113 139.914 80.0273 140.61C79.6433 141.318 79.0913 141.87 78.3713 142.266C77.6633 142.662 76.8353 142.86 75.8873 142.86C74.5913 142.86 73.5113 142.554 72.6473 141.942C71.7833 141.33 71.2733 140.496 71.1173 139.44H72.7373C72.9173 140.04 73.2893 140.52 73.8533 140.88C74.4173 141.252 75.0953 141.438 75.8873 141.438C76.7873 141.438 77.5193 141.156 78.0833 140.592C78.6593 140.028 78.9473 139.236 78.9473 138.216V136.146C78.6233 136.722 78.1433 137.202 77.5073 137.586C76.8713 137.97 76.1273 138.162 75.2753 138.162C74.3993 138.162 73.6013 137.946 72.8813 137.514C72.1733 137.082 71.6153 136.476 71.2073 135.696C70.7993 134.916 70.5953 134.028 70.5953 133.032C70.5953 132.024 70.7993 131.142 71.2073 130.386C71.6153 129.618 72.1733 129.024 72.8813 128.604C73.6013 128.184 74.3993 127.974 75.2753 127.974ZM78.9473 133.05C78.9473 132.306 78.7973 131.658 78.4973 131.106C78.1973 130.554 77.7893 130.134 77.2733 129.846C76.7693 129.546 76.2113 129.396 75.5993 129.396C74.9873 129.396 74.4293 129.54 73.9253 129.828C73.4213 130.116 73.0193 130.536 72.7193 131.088C72.4193 131.64 72.2693 132.288 72.2693 133.032C72.2693 133.788 72.4193 134.448 72.7193 135.012C73.0193 135.564 73.4213 135.99 73.9253 136.29C74.4293 136.578 74.9873 136.722 75.5993 136.722C76.2113 136.722 76.7693 136.578 77.2733 136.29C77.7893 135.99 78.1973 135.564 78.4973 135.012C78.7973 134.448 78.9473 133.794 78.9473 133.05ZM88.1774 127.956C89.3774 127.956 90.3494 128.322 91.0934 129.054C91.8374 129.774 92.2094 130.818 92.2094 132.186V138H90.5894V132.42C90.5894 131.436 90.3434 130.686 89.8514 130.17C89.3594 129.642 88.6874 129.378 87.8354 129.378C86.9714 129.378 86.2814 129.648 85.7654 130.188C85.2614 130.728 85.0094 131.514 85.0094 132.546V138H83.3714V128.136H85.0094V129.54C85.3334 129.036 85.7714 128.646 86.3234 128.37C86.8874 128.094 87.5054 127.956 88.1774 127.956ZM101.322 129.954C101.646 129.39 102.126 128.922 102.762 128.55C103.41 128.166 104.16 127.974 105.012 127.974C105.888 127.974 106.68 128.184 107.388 128.604C108.108 129.024 108.672 129.618 109.08 130.386C109.488 131.142 109.692 132.024 109.692 133.032C109.692 134.028 109.488 134.916 109.08 135.696C108.672 136.476 108.108 137.082 107.388 137.514C106.68 137.946 105.888 138.162 105.012 138.162C104.172 138.162 103.428 137.976 102.78 137.604C102.144 137.22 101.658 136.746 101.322 136.182V142.68H99.6839V128.136H101.322V129.954ZM108.018 133.032C108.018 132.288 107.868 131.64 107.568 131.088C107.268 130.536 106.86 130.116 106.344 129.828C105.84 129.54 105.282 129.396 104.67 129.396C104.07 129.396 103.512 129.546 102.996 129.846C102.492 130.134 102.084 130.56 101.772 131.124C101.472 131.676 101.322 132.318 101.322 133.05C101.322 133.794 101.472 134.448 101.772 135.012C102.084 135.564 102.492 135.99 102.996 136.29C103.512 136.578 104.07 136.722 104.67 136.722C105.282 136.722 105.84 136.578 106.344 136.29C106.86 135.99 107.268 135.564 107.568 135.012C107.868 134.448 108.018 133.788 108.018 133.032ZM111.236 133.032C111.236 132.024 111.44 131.142 111.848 130.386C112.256 129.618 112.814 129.024 113.522 128.604C114.242 128.184 115.04 127.974 115.916 127.974C116.78 127.974 117.53 128.16 118.166 128.532C118.802 128.904 119.276 129.372 119.588 129.936V128.136H121.244V138H119.588V136.164C119.264 136.74 118.778 137.22 118.13 137.604C117.494 137.976 116.75 138.162 115.898 138.162C115.022 138.162 114.23 137.946 113.522 137.514C112.814 137.082 112.256 136.476 111.848 135.696C111.44 134.916 111.236 134.028 111.236 133.032ZM119.588 133.05C119.588 132.306 119.438 131.658 119.138 131.106C118.838 130.554 118.43 130.134 117.914 129.846C117.41 129.546 116.852 129.396 116.24 129.396C115.628 129.396 115.07 129.54 114.566 129.828C114.062 130.116 113.66 130.536 113.36 131.088C113.06 131.64 112.91 132.288 112.91 133.032C112.91 133.788 113.06 134.448 113.36 135.012C113.66 135.564 114.062 135.99 114.566 136.29C115.07 136.578 115.628 136.722 116.24 136.722C116.852 136.722 117.41 136.578 117.914 136.29C118.43 135.99 118.838 135.564 119.138 135.012C119.438 134.448 119.588 133.794 119.588 133.05ZM132.508 128.136L126.568 142.644H124.876L126.82 137.892L122.842 128.136H124.66L127.756 136.128L130.816 128.136H132.508ZM146.017 127.956C146.785 127.956 147.469 128.118 148.069 128.442C148.669 128.754 149.143 129.228 149.491 129.864C149.839 130.5 150.013 131.274 150.013 132.186V138H148.393V132.42C148.393 131.436 148.147 130.686 147.655 130.17C147.175 129.642 146.521 129.378 145.693 129.378C144.841 129.378 144.163 129.654 143.659 130.206C143.155 130.746 142.903 131.532 142.903 132.564V138H141.283V132.42C141.283 131.436 141.037 130.686 140.545 130.17C140.065 129.642 139.411 129.378 138.583 129.378C137.731 129.378 137.053 129.654 136.549 130.206C136.045 130.746 135.793 131.532 135.793 132.564V138H134.155V128.136H135.793V129.558C136.117 129.042 136.549 128.646 137.089 128.37C137.641 128.094 138.247 127.956 138.907 127.956C139.735 127.956 140.467 128.142 141.103 128.514C141.739 128.886 142.213 129.432 142.525 130.152C142.801 129.456 143.257 128.916 143.893 128.532C144.529 128.148 145.237 127.956 146.017 127.956ZM161.699 132.69C161.699 133.002 161.681 133.332 161.645 133.68H153.761C153.821 134.652 154.151 135.414 154.751 135.966C155.363 136.506 156.101 136.776 156.965 136.776C157.673 136.776 158.261 136.614 158.729 136.29C159.209 135.954 159.545 135.51 159.737 134.958H161.501C161.237 135.906 160.709 136.68 159.917 137.28C159.125 137.868 158.141 138.162 156.965 138.162C156.029 138.162 155.189 137.952 154.445 137.532C153.713 137.112 153.137 136.518 152.717 135.75C152.297 134.97 152.087 134.07 152.087 133.05C152.087 132.03 152.291 131.136 152.699 130.368C153.107 129.6 153.677 129.012 154.409 128.604C155.153 128.184 156.005 127.974 156.965 127.974C157.901 127.974 158.729 128.178 159.449 128.586C160.169 128.994 160.721 129.558 161.105 130.278C161.501 130.986 161.699 131.79 161.699 132.69ZM160.007 132.348C160.007 131.724 159.869 131.19 159.593 130.746C159.317 130.29 158.939 129.948 158.459 129.72C157.991 129.48 157.469 129.36 156.893 129.36C156.065 129.36 155.357 129.624 154.769 130.152C154.193 130.68 153.863 131.412 153.779 132.348H160.007ZM168.668 127.956C169.868 127.956 170.84 128.322 171.584 129.054C172.328 129.774 172.7 130.818 172.7 132.186V138H171.08V132.42C171.08 131.436 170.834 130.686 170.342 130.17C169.85 129.642 169.178 129.378 168.326 129.378C167.462 129.378 166.772 129.648 166.256 130.188C165.752 130.728 165.5 131.514 165.5 132.546V138H163.862V128.136H165.5V129.54C165.824 129.036 166.262 128.646 166.814 128.37C167.378 128.094 167.996 127.956 168.668 127.956ZM177.373 129.486V135.3C177.373 135.78 177.475 136.122 177.679 136.326C177.883 136.518 178.237 136.614 178.741 136.614H179.947V138H178.471C177.559 138 176.875 137.79 176.419 137.37C175.963 136.95 175.735 136.26 175.735 135.3V129.486H174.457V128.136H175.735V125.652H177.373V128.136H179.947V129.486H177.373Z" fill="#B1B1B1"/>
</svg>
