<svg width="922" height="747" viewBox="0 0 922 747" fill="none" xmlns="http://www.w3.org/2000/svg">
<ellipse cx="69.2" cy="740.808" rx="6.2" ry="6.19171" fill="#F8FFFF" fill-opacity="0.22"/>
<ellipse cx="96.325" cy="740.808" rx="6.2" ry="6.19171" fill="#F8FFFF" fill-opacity="0.22"/>
<ellipse cx="123.45" cy="740.808" rx="6.2" ry="6.19171" fill="#F8FFFF" fill-opacity="0.22"/>
<ellipse cx="150.575" cy="740.808" rx="6.2" ry="6.19171" fill="#F8FFFF" fill-opacity="0.22"/>
<ellipse cx="177.7" cy="740.808" rx="6.2" ry="6.19171" fill="#F8FFFF" fill-opacity="0.22"/>
<ellipse cx="204.825" cy="740.808" rx="6.2" ry="6.19171" fill="#F8FFFF" fill-opacity="0.22"/>
<ellipse cx="231.95" cy="740.808" rx="6.2" ry="6.19171" fill="#F8FFFF" fill-opacity="0.22"/>
<ellipse cx="259.075" cy="740.808" rx="6.2" ry="6.19171" fill="#F8FFFF" fill-opacity="0.22"/>
<ellipse cx="69.2" cy="715.267" rx="6.2" ry="6.19171" fill="#F8FFFF" fill-opacity="0.22"/>
<ellipse cx="96.325" cy="715.267" rx="6.2" ry="6.19171" fill="#F8FFFF" fill-opacity="0.22"/>
<ellipse cx="123.45" cy="715.267" rx="6.2" ry="6.19171" fill="#F8FFFF" fill-opacity="0.22"/>
<ellipse cx="150.575" cy="715.267" rx="6.2" ry="6.19171" fill="#F8FFFF" fill-opacity="0.22"/>
<ellipse cx="177.7" cy="715.267" rx="6.2" ry="6.19171" fill="#F8FFFF" fill-opacity="0.22"/>
<ellipse cx="204.825" cy="715.267" rx="6.2" ry="6.19171" fill="#F8FFFF" fill-opacity="0.22"/>
<ellipse cx="231.95" cy="715.267" rx="6.2" ry="6.19171" fill="#F8FFFF" fill-opacity="0.22"/>
<ellipse cx="259.075" cy="715.267" rx="6.2" ry="6.19171" fill="#F8FFFF" fill-opacity="0.22"/>
<ellipse cx="69.2" cy="689.726" rx="6.2" ry="6.19171" fill="#F8FFFF" fill-opacity="0.22"/>
<ellipse cx="96.325" cy="689.726" rx="6.2" ry="6.19171" fill="#F8FFFF" fill-opacity="0.22"/>
<ellipse cx="123.45" cy="689.726" rx="6.2" ry="6.19171" fill="#F8FFFF" fill-opacity="0.22"/>
<ellipse cx="150.575" cy="689.726" rx="6.2" ry="6.19171" fill="#F8FFFF" fill-opacity="0.22"/>
<ellipse cx="177.7" cy="689.726" rx="6.2" ry="6.19171" fill="#F8FFFF" fill-opacity="0.22"/>
<ellipse cx="204.825" cy="689.726" rx="6.2" ry="6.19171" fill="#F8FFFF" fill-opacity="0.22"/>
<ellipse cx="231.95" cy="689.726" rx="6.2" ry="6.19171" fill="#F8FFFF" fill-opacity="0.22"/>
<ellipse cx="259.075" cy="689.726" rx="6.2" ry="6.19171" fill="#F8FFFF" fill-opacity="0.22"/>
<ellipse cx="69.2" cy="664.186" rx="6.2" ry="6.19171" fill="#F8FFFF" fill-opacity="0.22"/>
<ellipse cx="96.325" cy="664.186" rx="6.2" ry="6.19171" fill="#F8FFFF" fill-opacity="0.22"/>
<ellipse cx="123.45" cy="664.186" rx="6.2" ry="6.19171" fill="#F8FFFF" fill-opacity="0.22"/>
<ellipse cx="150.575" cy="664.186" rx="6.2" ry="6.19171" fill="#F8FFFF" fill-opacity="0.22"/>
<ellipse cx="177.7" cy="664.186" rx="6.2" ry="6.19171" fill="#F8FFFF" fill-opacity="0.22"/>
<ellipse cx="204.825" cy="664.186" rx="6.2" ry="6.19171" fill="#F8FFFF" fill-opacity="0.22"/>
<ellipse cx="231.95" cy="664.186" rx="6.2" ry="6.19171" fill="#F8FFFF" fill-opacity="0.22"/>
<ellipse cx="259.075" cy="664.186" rx="6.2" ry="6.19171" fill="#F8FFFF" fill-opacity="0.22"/>
<ellipse cx="69.2" cy="638.645" rx="6.2" ry="6.19171" fill="#F8FFFF" fill-opacity="0.22"/>
<ellipse cx="96.325" cy="638.645" rx="6.2" ry="6.19171" fill="#F8FFFF" fill-opacity="0.22"/>
<ellipse cx="123.45" cy="638.645" rx="6.2" ry="6.19171" fill="#F8FFFF" fill-opacity="0.22"/>
<ellipse cx="150.575" cy="638.645" rx="6.2" ry="6.19171" fill="#F8FFFF" fill-opacity="0.22"/>
<ellipse cx="177.7" cy="638.645" rx="6.2" ry="6.19171" fill="#F8FFFF" fill-opacity="0.22"/>
<ellipse cx="204.825" cy="638.645" rx="6.2" ry="6.19171" fill="#F8FFFF" fill-opacity="0.22"/>
<ellipse cx="231.95" cy="638.645" rx="6.2" ry="6.19171" fill="#F8FFFF" fill-opacity="0.22"/>
<ellipse cx="259.075" cy="638.645" rx="6.2" ry="6.19171" fill="#F8FFFF" fill-opacity="0.22"/>
<ellipse cx="69.2" cy="613.104" rx="6.2" ry="6.19171" fill="#F8FFFF" fill-opacity="0.22"/>
<ellipse cx="96.325" cy="613.104" rx="6.2" ry="6.19171" fill="#F8FFFF" fill-opacity="0.22"/>
<ellipse cx="123.45" cy="613.104" rx="6.2" ry="6.19171" fill="#F8FFFF" fill-opacity="0.22"/>
<ellipse cx="150.575" cy="613.104" rx="6.2" ry="6.19171" fill="#F8FFFF" fill-opacity="0.22"/>
<ellipse cx="177.7" cy="613.104" rx="6.2" ry="6.19171" fill="#F8FFFF" fill-opacity="0.22"/>
<ellipse cx="204.825" cy="613.104" rx="6.2" ry="6.19171" fill="#F8FFFF" fill-opacity="0.22"/>
<ellipse cx="231.95" cy="613.104" rx="6.2" ry="6.19171" fill="#F8FFFF" fill-opacity="0.22"/>
<ellipse cx="259.075" cy="613.104" rx="6.2" ry="6.19171" fill="#F8FFFF" fill-opacity="0.22"/>
<ellipse cx="69.2" cy="587.563" rx="6.2" ry="6.19171" fill="#F8FFFF" fill-opacity="0.22"/>
<ellipse cx="96.325" cy="587.563" rx="6.2" ry="6.19171" fill="#F8FFFF" fill-opacity="0.22"/>
<ellipse cx="123.45" cy="587.563" rx="6.2" ry="6.19171" fill="#F8FFFF" fill-opacity="0.22"/>
<ellipse cx="150.575" cy="587.563" rx="6.2" ry="6.19171" fill="#F8FFFF" fill-opacity="0.22"/>
<ellipse cx="177.7" cy="587.563" rx="6.2" ry="6.19171" fill="#F8FFFF" fill-opacity="0.22"/>
<ellipse cx="204.825" cy="587.563" rx="6.2" ry="6.19171" fill="#F8FFFF" fill-opacity="0.22"/>
<ellipse cx="231.95" cy="587.563" rx="6.2" ry="6.19171" fill="#F8FFFF" fill-opacity="0.22"/>
<ellipse cx="259.075" cy="587.563" rx="6.2" ry="6.19171" fill="#F8FFFF" fill-opacity="0.22"/>
<ellipse cx="69.2" cy="562.023" rx="6.2" ry="6.19171" fill="#F8FFFF" fill-opacity="0.22"/>
<ellipse cx="96.325" cy="562.023" rx="6.2" ry="6.19171" fill="#F8FFFF" fill-opacity="0.22"/>
<ellipse cx="123.45" cy="562.023" rx="6.2" ry="6.19171" fill="#F8FFFF" fill-opacity="0.22"/>
<ellipse cx="150.575" cy="562.023" rx="6.2" ry="6.19171" fill="#F8FFFF" fill-opacity="0.22"/>
<ellipse cx="177.7" cy="562.023" rx="6.2" ry="6.19171" fill="#F8FFFF" fill-opacity="0.22"/>
<ellipse cx="204.825" cy="562.023" rx="6.2" ry="6.19171" fill="#F8FFFF" fill-opacity="0.22"/>
<ellipse cx="231.95" cy="562.023" rx="6.2" ry="6.19171" fill="#F8FFFF" fill-opacity="0.22"/>
<ellipse cx="259.075" cy="562.023" rx="6.2" ry="6.19171" fill="#F8FFFF" fill-opacity="0.22"/>
<ellipse cx="69.2" cy="536.482" rx="6.2" ry="6.19171" fill="#F8FFFF" fill-opacity="0.22"/>
<ellipse cx="96.325" cy="536.482" rx="6.2" ry="6.19171" fill="#F8FFFF" fill-opacity="0.22"/>
<ellipse cx="123.45" cy="536.482" rx="6.2" ry="6.19171" fill="#F8FFFF" fill-opacity="0.22"/>
<ellipse cx="150.575" cy="536.482" rx="6.2" ry="6.19171" fill="#F8FFFF" fill-opacity="0.22"/>
<ellipse cx="177.7" cy="536.482" rx="6.2" ry="6.19171" fill="#F8FFFF" fill-opacity="0.22"/>
<ellipse cx="204.825" cy="536.482" rx="6.2" ry="6.19171" fill="#F8FFFF" fill-opacity="0.22"/>
<ellipse cx="231.95" cy="536.482" rx="6.2" ry="6.19171" fill="#F8FFFF" fill-opacity="0.22"/>
<ellipse cx="259.075" cy="536.482" rx="6.2" ry="6.19171" fill="#F8FFFF" fill-opacity="0.22"/>
<rect x="370" width="552" height="433.42" fill="#F8FFFF" fill-opacity="0.22"/>
<rect y="242.675" width="219" height="211.717" fill="#F8FFFF" fill-opacity="0.22"/>
<ellipse cx="524.2" cy="329.359" rx="6.2" ry="6.19171" fill="#F8FFFF" fill-opacity="0.22"/>
<ellipse cx="551.325" cy="329.359" rx="6.2" ry="6.19171" fill="#F8FFFF" fill-opacity="0.22"/>
<ellipse cx="578.45" cy="329.359" rx="6.2" ry="6.19171" fill="#F8FFFF" fill-opacity="0.22"/>
<ellipse cx="605.575" cy="329.359" rx="6.2" ry="6.19171" fill="#F8FFFF" fill-opacity="0.22"/>
<ellipse cx="632.7" cy="329.359" rx="6.2" ry="6.19171" fill="#F8FFFF" fill-opacity="0.22"/>
<ellipse cx="659.825" cy="329.359" rx="6.2" ry="6.19171" fill="#F8FFFF" fill-opacity="0.22"/>
<ellipse cx="686.95" cy="329.359" rx="6.2" ry="6.19171" fill="#F8FFFF" fill-opacity="0.22"/>
<ellipse cx="714.075" cy="329.359" rx="6.2" ry="6.19171" fill="#F8FFFF" fill-opacity="0.22"/>
<ellipse cx="524.2" cy="303.818" rx="6.2" ry="6.19171" fill="#F8FFFF" fill-opacity="0.22"/>
<ellipse cx="551.325" cy="303.818" rx="6.2" ry="6.19171" fill="#F8FFFF" fill-opacity="0.22"/>
<ellipse cx="578.45" cy="303.818" rx="6.2" ry="6.19171" fill="#F8FFFF" fill-opacity="0.22"/>
<ellipse cx="605.575" cy="303.818" rx="6.2" ry="6.19171" fill="#F8FFFF" fill-opacity="0.22"/>
<ellipse cx="632.7" cy="303.818" rx="6.2" ry="6.19171" fill="#F8FFFF" fill-opacity="0.22"/>
<ellipse cx="659.825" cy="303.818" rx="6.2" ry="6.19171" fill="#F8FFFF" fill-opacity="0.22"/>
<ellipse cx="686.95" cy="303.818" rx="6.2" ry="6.19171" fill="#F8FFFF" fill-opacity="0.22"/>
<ellipse cx="714.075" cy="303.818" rx="6.2" ry="6.19171" fill="#F8FFFF" fill-opacity="0.22"/>
<ellipse cx="524.2" cy="278.277" rx="6.2" ry="6.19171" fill="#F8FFFF" fill-opacity="0.22"/>
<ellipse cx="551.325" cy="278.277" rx="6.2" ry="6.19171" fill="#F8FFFF" fill-opacity="0.22"/>
<ellipse cx="578.45" cy="278.277" rx="6.2" ry="6.19171" fill="#F8FFFF" fill-opacity="0.22"/>
<ellipse cx="605.575" cy="278.277" rx="6.2" ry="6.19171" fill="#F8FFFF" fill-opacity="0.22"/>
<ellipse cx="632.7" cy="278.277" rx="6.2" ry="6.19171" fill="#F8FFFF" fill-opacity="0.22"/>
<ellipse cx="659.825" cy="278.277" rx="6.2" ry="6.19171" fill="#F8FFFF" fill-opacity="0.22"/>
<ellipse cx="686.95" cy="278.277" rx="6.2" ry="6.19171" fill="#F8FFFF" fill-opacity="0.22"/>
<ellipse cx="714.075" cy="278.277" rx="6.2" ry="6.19171" fill="#F8FFFF" fill-opacity="0.22"/>
<ellipse cx="524.2" cy="252.737" rx="6.2" ry="6.19171" fill="#F8FFFF" fill-opacity="0.22"/>
<ellipse cx="551.325" cy="252.737" rx="6.2" ry="6.19171" fill="#F8FFFF" fill-opacity="0.22"/>
<ellipse cx="578.45" cy="252.737" rx="6.2" ry="6.19171" fill="#F8FFFF" fill-opacity="0.22"/>
<ellipse cx="605.575" cy="252.737" rx="6.2" ry="6.19171" fill="#F8FFFF" fill-opacity="0.22"/>
<ellipse cx="632.7" cy="252.737" rx="6.2" ry="6.19171" fill="#F8FFFF" fill-opacity="0.22"/>
<ellipse cx="659.825" cy="252.737" rx="6.2" ry="6.19171" fill="#F8FFFF" fill-opacity="0.22"/>
<ellipse cx="686.95" cy="252.737" rx="6.2" ry="6.19171" fill="#F8FFFF" fill-opacity="0.22"/>
<ellipse cx="714.075" cy="252.737" rx="6.2" ry="6.19171" fill="#F8FFFF" fill-opacity="0.22"/>
<ellipse cx="524.2" cy="227.196" rx="6.2" ry="6.19171" fill="#F8FFFF" fill-opacity="0.22"/>
<ellipse cx="551.325" cy="227.196" rx="6.2" ry="6.19171" fill="#F8FFFF" fill-opacity="0.22"/>
<ellipse cx="578.45" cy="227.196" rx="6.2" ry="6.19171" fill="#F8FFFF" fill-opacity="0.22"/>
<ellipse cx="605.575" cy="227.196" rx="6.2" ry="6.19171" fill="#F8FFFF" fill-opacity="0.22"/>
<ellipse cx="632.7" cy="227.196" rx="6.2" ry="6.19171" fill="#F8FFFF" fill-opacity="0.22"/>
<ellipse cx="659.825" cy="227.196" rx="6.2" ry="6.19171" fill="#F8FFFF" fill-opacity="0.22"/>
<ellipse cx="686.95" cy="227.196" rx="6.2" ry="6.19171" fill="#F8FFFF" fill-opacity="0.22"/>
<ellipse cx="714.075" cy="227.196" rx="6.2" ry="6.19171" fill="#F8FFFF" fill-opacity="0.22"/>
<ellipse cx="524.2" cy="201.655" rx="6.2" ry="6.19171" fill="#F8FFFF" fill-opacity="0.22"/>
<ellipse cx="551.325" cy="201.655" rx="6.2" ry="6.19171" fill="#F8FFFF" fill-opacity="0.22"/>
<ellipse cx="578.45" cy="201.655" rx="6.2" ry="6.19171" fill="#F8FFFF" fill-opacity="0.22"/>
<ellipse cx="605.575" cy="201.655" rx="6.2" ry="6.19171" fill="#F8FFFF" fill-opacity="0.22"/>
<ellipse cx="632.7" cy="201.655" rx="6.2" ry="6.19171" fill="#F8FFFF" fill-opacity="0.22"/>
<ellipse cx="659.825" cy="201.655" rx="6.2" ry="6.19171" fill="#F8FFFF" fill-opacity="0.22"/>
<ellipse cx="686.95" cy="201.655" rx="6.2" ry="6.19171" fill="#F8FFFF" fill-opacity="0.22"/>
<ellipse cx="714.075" cy="201.655" rx="6.2" ry="6.19171" fill="#F8FFFF" fill-opacity="0.22"/>
<ellipse cx="524.2" cy="176.114" rx="6.2" ry="6.19171" fill="#F8FFFF" fill-opacity="0.22"/>
<ellipse cx="551.325" cy="176.114" rx="6.2" ry="6.19171" fill="#F8FFFF" fill-opacity="0.22"/>
<ellipse cx="578.45" cy="176.114" rx="6.2" ry="6.19171" fill="#F8FFFF" fill-opacity="0.22"/>
<ellipse cx="605.575" cy="176.114" rx="6.2" ry="6.19171" fill="#F8FFFF" fill-opacity="0.22"/>
<ellipse cx="632.7" cy="176.114" rx="6.2" ry="6.19171" fill="#F8FFFF" fill-opacity="0.22"/>
<ellipse cx="659.825" cy="176.114" rx="6.2" ry="6.19171" fill="#F8FFFF" fill-opacity="0.22"/>
<ellipse cx="686.95" cy="176.114" rx="6.2" ry="6.19171" fill="#F8FFFF" fill-opacity="0.22"/>
<ellipse cx="714.075" cy="176.114" rx="6.2" ry="6.19171" fill="#F8FFFF" fill-opacity="0.22"/>
<ellipse cx="524.2" cy="150.573" rx="6.2" ry="6.19171" fill="#F8FFFF" fill-opacity="0.22"/>
<ellipse cx="551.325" cy="150.573" rx="6.2" ry="6.19171" fill="#F8FFFF" fill-opacity="0.22"/>
<ellipse cx="578.45" cy="150.573" rx="6.2" ry="6.19171" fill="#F8FFFF" fill-opacity="0.22"/>
<ellipse cx="605.575" cy="150.573" rx="6.2" ry="6.19171" fill="#F8FFFF" fill-opacity="0.22"/>
<ellipse cx="632.7" cy="150.573" rx="6.2" ry="6.19171" fill="#F8FFFF" fill-opacity="0.22"/>
<ellipse cx="659.825" cy="150.573" rx="6.2" ry="6.19171" fill="#F8FFFF" fill-opacity="0.22"/>
<ellipse cx="686.95" cy="150.573" rx="6.2" ry="6.19171" fill="#F8FFFF" fill-opacity="0.22"/>
<ellipse cx="714.075" cy="150.573" rx="6.2" ry="6.19171" fill="#F8FFFF" fill-opacity="0.22"/>
<ellipse cx="524.2" cy="125.033" rx="6.2" ry="6.19171" fill="#F8FFFF" fill-opacity="0.22"/>
<ellipse cx="551.325" cy="125.033" rx="6.2" ry="6.19171" fill="#F8FFFF" fill-opacity="0.22"/>
<ellipse cx="578.45" cy="125.033" rx="6.2" ry="6.19171" fill="#F8FFFF" fill-opacity="0.22"/>
<ellipse cx="605.575" cy="125.033" rx="6.2" ry="6.19171" fill="#F8FFFF" fill-opacity="0.22"/>
<ellipse cx="632.7" cy="125.033" rx="6.2" ry="6.19171" fill="#F8FFFF" fill-opacity="0.22"/>
<ellipse cx="659.825" cy="125.033" rx="6.2" ry="6.19171" fill="#F8FFFF" fill-opacity="0.22"/>
<ellipse cx="686.95" cy="125.033" rx="6.2" ry="6.19171" fill="#F8FFFF" fill-opacity="0.22"/>
<ellipse cx="714.075" cy="125.033" rx="6.2" ry="6.19171" fill="#F8FFFF" fill-opacity="0.22"/>
<g filter="url(#filter0_d_5_1348)">
<rect x="64" y="271" width="504" height="297" rx="12" fill="white"/>
</g>
<path d="M220.35 370.786V374.98H224.922V376.33H220.35V380.65H225.462V382H218.712V369.436H225.462V370.786H220.35ZM239.803 371.956C240.571 371.956 241.255 372.118 241.855 372.442C242.455 372.754 242.929 373.228 243.277 373.864C243.625 374.5 243.799 375.274 243.799 376.186V382H242.179V376.42C242.179 375.436 241.933 374.686 241.441 374.17C240.961 373.642 240.307 373.378 239.479 373.378C238.627 373.378 237.949 373.654 237.445 374.206C236.941 374.746 236.689 375.532 236.689 376.564V382H235.069V376.42C235.069 375.436 234.823 374.686 234.331 374.17C233.851 373.642 233.197 373.378 232.369 373.378C231.517 373.378 230.839 373.654 230.335 374.206C229.831 374.746 229.579 375.532 229.579 376.564V382H227.941V372.136H229.579V373.558C229.903 373.042 230.335 372.646 230.875 372.37C231.427 372.094 232.033 371.956 232.693 371.956C233.521 371.956 234.253 372.142 234.889 372.514C235.525 372.886 235.999 373.432 236.311 374.152C236.587 373.456 237.043 372.916 237.679 372.532C238.315 372.148 239.023 371.956 239.803 371.956ZM248.124 373.954C248.448 373.39 248.928 372.922 249.564 372.55C250.212 372.166 250.962 371.974 251.814 371.974C252.69 371.974 253.482 372.184 254.19 372.604C254.91 373.024 255.474 373.618 255.882 374.386C256.29 375.142 256.494 376.024 256.494 377.032C256.494 378.028 256.29 378.916 255.882 379.696C255.474 380.476 254.91 381.082 254.19 381.514C253.482 381.946 252.69 382.162 251.814 382.162C250.974 382.162 250.23 381.976 249.582 381.604C248.946 381.22 248.46 380.746 248.124 380.182V386.68H246.486V372.136H248.124V373.954ZM254.82 377.032C254.82 376.288 254.67 375.64 254.37 375.088C254.07 374.536 253.662 374.116 253.146 373.828C252.642 373.54 252.084 373.396 251.472 373.396C250.872 373.396 250.314 373.546 249.798 373.846C249.294 374.134 248.886 374.56 248.574 375.124C248.274 375.676 248.124 376.318 248.124 377.05C248.124 377.794 248.274 378.448 248.574 379.012C248.886 379.564 249.294 379.99 249.798 380.29C250.314 380.578 250.872 380.722 251.472 380.722C252.084 380.722 252.642 380.578 253.146 380.29C253.662 379.99 254.07 379.564 254.37 379.012C254.67 378.448 254.82 377.788 254.82 377.032ZM260.288 368.68V382H258.65V368.68H260.288ZM267.381 382.162C266.457 382.162 265.617 381.952 264.861 381.532C264.117 381.112 263.529 380.518 263.097 379.75C262.677 378.97 262.467 378.07 262.467 377.05C262.467 376.042 262.683 375.154 263.115 374.386C263.559 373.606 264.159 373.012 264.915 372.604C265.671 372.184 266.517 371.974 267.453 371.974C268.389 371.974 269.235 372.184 269.991 372.604C270.747 373.012 271.341 373.6 271.773 374.368C272.217 375.136 272.439 376.03 272.439 377.05C272.439 378.07 272.211 378.97 271.755 379.75C271.311 380.518 270.705 381.112 269.937 381.532C269.169 381.952 268.317 382.162 267.381 382.162ZM267.381 380.722C267.969 380.722 268.521 380.584 269.037 380.308C269.553 380.032 269.967 379.618 270.279 379.066C270.603 378.514 270.765 377.842 270.765 377.05C270.765 376.258 270.609 375.586 270.297 375.034C269.985 374.482 269.577 374.074 269.073 373.81C268.569 373.534 268.023 373.396 267.435 373.396C266.835 373.396 266.283 373.534 265.779 373.81C265.287 374.074 264.891 374.482 264.591 375.034C264.291 375.586 264.141 376.258 264.141 377.05C264.141 377.854 264.285 378.532 264.573 379.084C264.873 379.636 265.269 380.05 265.761 380.326C266.253 380.59 266.793 380.722 267.381 380.722ZM283.089 372.136L277.149 386.644H275.457L277.401 381.892L273.423 372.136H275.241L278.337 380.128L281.397 372.136H283.089ZM293.736 376.69C293.736 377.002 293.718 377.332 293.682 377.68H285.798C285.858 378.652 286.188 379.414 286.788 379.966C287.4 380.506 288.138 380.776 289.002 380.776C289.71 380.776 290.298 380.614 290.766 380.29C291.246 379.954 291.582 379.51 291.774 378.958H293.538C293.274 379.906 292.746 380.68 291.954 381.28C291.162 381.868 290.178 382.162 289.002 382.162C288.066 382.162 287.226 381.952 286.482 381.532C285.75 381.112 285.174 380.518 284.754 379.75C284.334 378.97 284.124 378.07 284.124 377.05C284.124 376.03 284.328 375.136 284.736 374.368C285.144 373.6 285.714 373.012 286.446 372.604C287.19 372.184 288.042 371.974 289.002 371.974C289.938 371.974 290.766 372.178 291.486 372.586C292.206 372.994 292.758 373.558 293.142 374.278C293.538 374.986 293.736 375.79 293.736 376.69ZM292.044 376.348C292.044 375.724 291.906 375.19 291.63 374.746C291.354 374.29 290.976 373.948 290.496 373.72C290.028 373.48 289.506 373.36 288.93 373.36C288.102 373.36 287.394 373.624 286.806 374.152C286.23 374.68 285.9 375.412 285.816 376.348H292.044ZM304.898 376.69C304.898 377.002 304.88 377.332 304.844 377.68H296.96C297.02 378.652 297.35 379.414 297.95 379.966C298.562 380.506 299.3 380.776 300.164 380.776C300.872 380.776 301.46 380.614 301.928 380.29C302.408 379.954 302.744 379.51 302.936 378.958H304.7C304.436 379.906 303.908 380.68 303.116 381.28C302.324 381.868 301.34 382.162 300.164 382.162C299.228 382.162 298.388 381.952 297.644 381.532C296.912 381.112 296.336 380.518 295.916 379.75C295.496 378.97 295.286 378.07 295.286 377.05C295.286 376.03 295.49 375.136 295.898 374.368C296.306 373.6 296.876 373.012 297.608 372.604C298.352 372.184 299.204 371.974 300.164 371.974C301.1 371.974 301.928 372.178 302.648 372.586C303.368 372.994 303.92 373.558 304.304 374.278C304.7 374.986 304.898 375.79 304.898 376.69ZM303.206 376.348C303.206 375.724 303.068 375.19 302.792 374.746C302.516 374.29 302.138 373.948 301.658 373.72C301.19 373.48 300.668 373.36 300.092 373.36C299.264 373.36 298.556 373.624 297.968 374.152C297.392 374.68 297.062 375.412 296.978 376.348H303.206Z" fill="#B1B1B1"/>
<path d="M180.957 440.454V449.724C180.957 450.756 180.639 451.584 180.003 452.208C179.367 452.82 178.527 453.126 177.483 453.126C176.427 453.126 175.581 452.814 174.945 452.19C174.309 451.554 173.991 450.69 173.991 449.598H175.629C175.641 450.21 175.797 450.708 176.097 451.092C176.409 451.476 176.871 451.668 177.483 451.668C178.095 451.668 178.551 451.488 178.851 451.128C179.151 450.756 179.301 450.288 179.301 449.724V440.454H180.957ZM188.486 453.162C187.562 453.162 186.722 452.952 185.966 452.532C185.222 452.112 184.634 451.518 184.202 450.75C183.782 449.97 183.572 449.07 183.572 448.05C183.572 447.042 183.788 446.154 184.22 445.386C184.664 444.606 185.264 444.012 186.02 443.604C186.776 443.184 187.622 442.974 188.558 442.974C189.494 442.974 190.34 443.184 191.096 443.604C191.852 444.012 192.446 444.6 192.878 445.368C193.322 446.136 193.544 447.03 193.544 448.05C193.544 449.07 193.316 449.97 192.86 450.75C192.416 451.518 191.81 452.112 191.042 452.532C190.274 452.952 189.422 453.162 188.486 453.162ZM188.486 451.722C189.074 451.722 189.626 451.584 190.142 451.308C190.658 451.032 191.072 450.618 191.384 450.066C191.708 449.514 191.87 448.842 191.87 448.05C191.87 447.258 191.714 446.586 191.402 446.034C191.09 445.482 190.682 445.074 190.178 444.81C189.674 444.534 189.128 444.396 188.54 444.396C187.94 444.396 187.388 444.534 186.884 444.81C186.392 445.074 185.996 445.482 185.696 446.034C185.396 446.586 185.246 447.258 185.246 448.05C185.246 448.854 185.39 449.532 185.678 450.084C185.978 450.636 186.374 451.05 186.866 451.326C187.358 451.59 187.898 451.722 188.486 451.722ZM200.594 442.956C201.338 442.956 202.01 443.118 202.61 443.442C203.21 443.754 203.678 444.228 204.014 444.864C204.362 445.5 204.536 446.274 204.536 447.186V453H202.916V447.42C202.916 446.436 202.67 445.686 202.178 445.17C201.686 444.642 201.014 444.378 200.162 444.378C199.298 444.378 198.608 444.648 198.092 445.188C197.588 445.728 197.336 446.514 197.336 447.546V453H195.698V439.68H197.336V444.54C197.66 444.036 198.104 443.646 198.668 443.37C199.244 443.094 199.886 442.956 200.594 442.956ZM212.017 442.956C213.217 442.956 214.189 443.322 214.933 444.054C215.677 444.774 216.049 445.818 216.049 447.186V453H214.429V447.42C214.429 446.436 214.183 445.686 213.691 445.17C213.199 444.642 212.527 444.378 211.675 444.378C210.811 444.378 210.121 444.648 209.605 445.188C209.101 445.728 208.849 446.514 208.849 447.546V453H207.211V443.136H208.849V444.54C209.173 444.036 209.611 443.646 210.163 443.37C210.727 443.094 211.345 442.956 212.017 442.956ZM218.113 448.032C218.113 447.024 218.317 446.142 218.725 445.386C219.133 444.618 219.691 444.024 220.399 443.604C221.119 443.184 221.923 442.974 222.811 442.974C223.579 442.974 224.293 443.154 224.953 443.514C225.613 443.862 226.117 444.324 226.465 444.9V439.68H228.121V453H226.465V451.146C226.141 451.734 225.661 452.22 225.025 452.604C224.389 452.976 223.645 453.162 222.793 453.162C221.917 453.162 221.119 452.946 220.399 452.514C219.691 452.082 219.133 451.476 218.725 450.696C218.317 449.916 218.113 449.028 218.113 448.032ZM226.465 448.05C226.465 447.306 226.315 446.658 226.015 446.106C225.715 445.554 225.307 445.134 224.791 444.846C224.287 444.546 223.729 444.396 223.117 444.396C222.505 444.396 221.947 444.54 221.443 444.828C220.939 445.116 220.537 445.536 220.237 446.088C219.937 446.64 219.787 447.288 219.787 448.032C219.787 448.788 219.937 449.448 220.237 450.012C220.537 450.564 220.939 450.99 221.443 451.29C221.947 451.578 222.505 451.722 223.117 451.722C223.729 451.722 224.287 451.578 224.791 451.29C225.307 450.99 225.715 450.564 226.015 450.012C226.315 449.448 226.465 448.794 226.465 448.05ZM235.191 453.162C234.267 453.162 233.427 452.952 232.671 452.532C231.927 452.112 231.339 451.518 230.907 450.75C230.487 449.97 230.277 449.07 230.277 448.05C230.277 447.042 230.493 446.154 230.925 445.386C231.369 444.606 231.969 444.012 232.725 443.604C233.481 443.184 234.327 442.974 235.263 442.974C236.199 442.974 237.045 443.184 237.801 443.604C238.557 444.012 239.151 444.6 239.583 445.368C240.027 446.136 240.249 447.03 240.249 448.05C240.249 449.07 240.021 449.97 239.565 450.75C239.121 451.518 238.515 452.112 237.747 452.532C236.979 452.952 236.127 453.162 235.191 453.162ZM235.191 451.722C235.779 451.722 236.331 451.584 236.847 451.308C237.363 451.032 237.777 450.618 238.089 450.066C238.413 449.514 238.575 448.842 238.575 448.05C238.575 447.258 238.419 446.586 238.107 446.034C237.795 445.482 237.387 445.074 236.883 444.81C236.379 444.534 235.833 444.396 235.245 444.396C234.645 444.396 234.093 444.534 233.589 444.81C233.097 445.074 232.701 445.482 232.401 446.034C232.101 446.586 231.951 447.258 231.951 448.05C231.951 448.854 232.095 449.532 232.383 450.084C232.683 450.636 233.079 451.05 233.571 451.326C234.063 451.59 234.603 451.722 235.191 451.722ZM251.403 447.69C251.403 448.002 251.385 448.332 251.349 448.68H243.465C243.525 449.652 243.855 450.414 244.455 450.966C245.067 451.506 245.805 451.776 246.669 451.776C247.377 451.776 247.965 451.614 248.433 451.29C248.913 450.954 249.249 450.51 249.441 449.958H251.205C250.941 450.906 250.413 451.68 249.621 452.28C248.829 452.868 247.845 453.162 246.669 453.162C245.733 453.162 244.893 452.952 244.149 452.532C243.417 452.112 242.841 451.518 242.421 450.75C242.001 449.97 241.791 449.07 241.791 448.05C241.791 447.03 241.995 446.136 242.403 445.368C242.811 444.6 243.381 444.012 244.113 443.604C244.857 443.184 245.709 442.974 246.669 442.974C247.605 442.974 248.433 443.178 249.153 443.586C249.873 443.994 250.425 444.558 250.809 445.278C251.205 445.986 251.403 446.79 251.403 447.69ZM249.711 447.348C249.711 446.724 249.573 446.19 249.297 445.746C249.021 445.29 248.643 444.948 248.163 444.72C247.695 444.48 247.173 444.36 246.597 444.36C245.769 444.36 245.061 444.624 244.473 445.152C243.897 445.68 243.567 446.412 243.483 447.348H249.711ZM262.565 441.462C263.897 441.462 265.055 441.714 266.039 442.218C267.023 442.722 267.779 443.43 268.307 444.342C268.835 445.242 269.099 446.286 269.099 447.474C269.099 448.422 268.943 449.334 268.631 450.21C268.319 451.074 267.863 451.776 267.263 452.316C266.675 452.856 265.985 453.126 265.193 453.126C264.593 453.126 264.131 452.976 263.807 452.676C263.483 452.376 263.297 451.968 263.249 451.452C262.877 451.968 262.403 452.376 261.827 452.676C261.263 452.976 260.663 453.126 260.027 453.126C259.115 453.126 258.395 452.85 257.867 452.298C257.351 451.734 257.093 450.978 257.093 450.03C257.093 449.13 257.279 448.29 257.651 447.51C258.035 446.73 258.563 446.106 259.235 445.638C259.907 445.158 260.669 444.918 261.521 444.918C262.661 444.918 263.429 445.35 263.825 446.214L264.023 445.098H265.445L264.545 450.3C264.509 450.528 264.491 450.738 264.491 450.93C264.491 451.65 264.809 452.01 265.445 452.01C265.925 452.01 266.339 451.782 266.687 451.326C267.047 450.87 267.317 450.3 267.497 449.616C267.677 448.92 267.767 448.236 267.767 447.564C267.767 445.992 267.293 444.774 266.345 443.91C265.409 443.046 264.083 442.614 262.367 442.614C260.939 442.614 259.649 442.962 258.497 443.658C257.357 444.342 256.463 445.284 255.815 446.484C255.167 447.684 254.843 449.01 254.843 450.462C254.831 452.046 255.305 453.264 256.265 454.116C257.225 454.98 258.557 455.412 260.261 455.412C261.389 455.412 262.385 455.208 263.249 454.8L263.465 455.916C262.397 456.36 261.221 456.582 259.937 456.582C258.653 456.582 257.519 456.336 256.535 455.844C255.563 455.364 254.807 454.668 254.267 453.756C253.739 452.856 253.475 451.806 253.475 450.606C253.475 448.914 253.865 447.372 254.645 445.98C255.425 444.576 256.505 443.472 257.885 442.668C259.277 441.864 260.837 441.462 262.565 441.462ZM260.513 451.848C261.053 451.848 261.551 451.692 262.007 451.38C262.463 451.056 262.823 450.624 263.087 450.084C263.351 449.532 263.483 448.932 263.483 448.284C263.483 447.66 263.309 447.156 262.961 446.772C262.625 446.376 262.145 446.178 261.521 446.178C260.945 446.178 260.435 446.352 259.991 446.7C259.559 447.036 259.223 447.486 258.983 448.05C258.743 448.602 258.623 449.178 258.623 449.778C258.623 450.414 258.785 450.918 259.109 451.29C259.433 451.662 259.901 451.848 260.513 451.848ZM283.655 442.956C284.423 442.956 285.107 443.118 285.707 443.442C286.307 443.754 286.781 444.228 287.129 444.864C287.477 445.5 287.651 446.274 287.651 447.186V453H286.031V447.42C286.031 446.436 285.785 445.686 285.293 445.17C284.813 444.642 284.159 444.378 283.331 444.378C282.479 444.378 281.801 444.654 281.297 445.206C280.793 445.746 280.541 446.532 280.541 447.564V453H278.921V447.42C278.921 446.436 278.675 445.686 278.183 445.17C277.703 444.642 277.049 444.378 276.221 444.378C275.369 444.378 274.691 444.654 274.187 445.206C273.683 445.746 273.431 446.532 273.431 447.564V453H271.793V443.136H273.431V444.558C273.755 444.042 274.187 443.646 274.727 443.37C275.279 443.094 275.885 442.956 276.545 442.956C277.373 442.956 278.105 443.142 278.741 443.514C279.377 443.886 279.851 444.432 280.163 445.152C280.439 444.456 280.895 443.916 281.531 443.532C282.167 443.148 282.875 442.956 283.655 442.956ZM289.726 448.032C289.726 447.024 289.93 446.142 290.338 445.386C290.746 444.618 291.304 444.024 292.012 443.604C292.732 443.184 293.53 442.974 294.406 442.974C295.27 442.974 296.02 443.16 296.656 443.532C297.292 443.904 297.766 444.372 298.078 444.936V443.136H299.734V453H298.078V451.164C297.754 451.74 297.268 452.22 296.62 452.604C295.984 452.976 295.24 453.162 294.388 453.162C293.512 453.162 292.72 452.946 292.012 452.514C291.304 452.082 290.746 451.476 290.338 450.696C289.93 449.916 289.726 449.028 289.726 448.032ZM298.078 448.05C298.078 447.306 297.928 446.658 297.628 446.106C297.328 445.554 296.92 445.134 296.404 444.846C295.9 444.546 295.342 444.396 294.73 444.396C294.118 444.396 293.56 444.54 293.056 444.828C292.552 445.116 292.15 445.536 291.85 446.088C291.55 446.64 291.4 447.288 291.4 448.032C291.4 448.788 291.55 449.448 291.85 450.012C292.15 450.564 292.552 450.99 293.056 451.29C293.56 451.578 294.118 451.722 294.73 451.722C295.342 451.722 295.9 451.578 296.404 451.29C296.92 450.99 297.328 450.564 297.628 450.012C297.928 449.448 298.078 448.794 298.078 448.05ZM303.348 441.534C303.036 441.534 302.772 441.426 302.556 441.21C302.34 440.994 302.232 440.73 302.232 440.418C302.232 440.106 302.34 439.842 302.556 439.626C302.772 439.41 303.036 439.302 303.348 439.302C303.648 439.302 303.9 439.41 304.104 439.626C304.32 439.842 304.428 440.106 304.428 440.418C304.428 440.73 304.32 440.994 304.104 441.21C303.9 441.426 303.648 441.534 303.348 441.534ZM304.14 443.136V453H302.502V443.136H304.14ZM308.57 439.68V453H306.932V439.68H308.57ZM311.884 453.108C311.572 453.108 311.308 453 311.092 452.784C310.876 452.568 310.768 452.304 310.768 451.992C310.768 451.68 310.876 451.416 311.092 451.2C311.308 450.984 311.572 450.876 311.884 450.876C312.184 450.876 312.436 450.984 312.64 451.2C312.856 451.416 312.964 451.68 312.964 451.992C312.964 452.304 312.856 452.568 312.64 452.784C312.436 453 312.184 453.108 311.884 453.108ZM314.529 448.05C314.529 447.03 314.733 446.142 315.141 445.386C315.549 444.618 316.113 444.024 316.833 443.604C317.565 443.184 318.399 442.974 319.335 442.974C320.547 442.974 321.543 443.268 322.323 443.856C323.115 444.444 323.637 445.26 323.889 446.304H322.125C321.957 445.704 321.627 445.23 321.135 444.882C320.655 444.534 320.055 444.36 319.335 444.36C318.399 444.36 317.643 444.684 317.067 445.332C316.491 445.968 316.203 446.874 316.203 448.05C316.203 449.238 316.491 450.156 317.067 450.804C317.643 451.452 318.399 451.776 319.335 451.776C320.055 451.776 320.655 451.608 321.135 451.272C321.615 450.936 321.945 450.456 322.125 449.832H323.889C323.625 450.84 323.097 451.65 322.305 452.262C321.513 452.862 320.523 453.162 319.335 453.162C318.399 453.162 317.565 452.952 316.833 452.532C316.113 452.112 315.549 451.518 315.141 450.75C314.733 449.982 314.529 449.082 314.529 448.05ZM330.376 453.162C329.452 453.162 328.612 452.952 327.856 452.532C327.112 452.112 326.524 451.518 326.092 450.75C325.672 449.97 325.462 449.07 325.462 448.05C325.462 447.042 325.678 446.154 326.11 445.386C326.554 444.606 327.154 444.012 327.91 443.604C328.666 443.184 329.512 442.974 330.448 442.974C331.384 442.974 332.23 443.184 332.986 443.604C333.742 444.012 334.336 444.6 334.768 445.368C335.212 446.136 335.434 447.03 335.434 448.05C335.434 449.07 335.206 449.97 334.75 450.75C334.306 451.518 333.7 452.112 332.932 452.532C332.164 452.952 331.312 453.162 330.376 453.162ZM330.376 451.722C330.964 451.722 331.516 451.584 332.032 451.308C332.548 451.032 332.962 450.618 333.274 450.066C333.598 449.514 333.76 448.842 333.76 448.05C333.76 447.258 333.604 446.586 333.292 446.034C332.98 445.482 332.572 445.074 332.068 444.81C331.564 444.534 331.018 444.396 330.43 444.396C329.83 444.396 329.278 444.534 328.774 444.81C328.282 445.074 327.886 445.482 327.586 446.034C327.286 446.586 327.136 447.258 327.136 448.05C327.136 448.854 327.28 449.532 327.568 450.084C327.868 450.636 328.264 451.05 328.756 451.326C329.248 451.59 329.788 451.722 330.376 451.722ZM349.45 442.956C350.218 442.956 350.902 443.118 351.502 443.442C352.102 443.754 352.576 444.228 352.924 444.864C353.272 445.5 353.446 446.274 353.446 447.186V453H351.826V447.42C351.826 446.436 351.58 445.686 351.088 445.17C350.608 444.642 349.954 444.378 349.126 444.378C348.274 444.378 347.596 444.654 347.092 445.206C346.588 445.746 346.336 446.532 346.336 447.564V453H344.716V447.42C344.716 446.436 344.47 445.686 343.978 445.17C343.498 444.642 342.844 444.378 342.016 444.378C341.164 444.378 340.486 444.654 339.982 445.206C339.478 445.746 339.226 446.532 339.226 447.564V453H337.588V443.136H339.226V444.558C339.55 444.042 339.982 443.646 340.522 443.37C341.074 443.094 341.68 442.956 342.34 442.956C343.168 442.956 343.9 443.142 344.536 443.514C345.172 443.886 345.646 444.432 345.958 445.152C346.234 444.456 346.69 443.916 347.326 443.532C347.962 443.148 348.67 442.956 349.45 442.956Z" fill="#848484"/>
<path d="M184.104 495.114H180.27V499.002H178.74V495.114H174.924V493.728H178.74V489.822H180.27V493.728H184.104V495.114ZM194.016 491.082C193.752 489.75 192.93 489.084 191.55 489.084C190.482 489.084 189.684 489.498 189.156 490.326C188.628 491.142 188.37 492.492 188.382 494.376C188.658 493.752 189.114 493.266 189.75 492.918C190.398 492.558 191.118 492.378 191.91 492.378C193.146 492.378 194.13 492.762 194.862 493.53C195.606 494.298 195.978 495.36 195.978 496.716C195.978 497.532 195.816 498.264 195.492 498.912C195.18 499.56 194.7 500.076 194.052 500.46C193.416 500.844 192.642 501.036 191.73 501.036C190.494 501.036 189.528 500.76 188.832 500.208C188.136 499.656 187.65 498.894 187.374 497.922C187.098 496.95 186.96 495.75 186.96 494.322C186.96 489.918 188.496 487.716 191.568 487.716C192.744 487.716 193.668 488.034 194.34 488.67C195.012 489.306 195.408 490.11 195.528 491.082H194.016ZM191.568 493.764C191.052 493.764 190.566 493.872 190.11 494.088C189.654 494.292 189.282 494.61 188.994 495.042C188.718 495.462 188.58 495.978 188.58 496.59C188.58 497.502 188.844 498.246 189.372 498.822C189.9 499.386 190.656 499.668 191.64 499.668C192.48 499.668 193.146 499.41 193.638 498.894C194.142 498.366 194.394 497.658 194.394 496.77C194.394 495.834 194.154 495.102 193.674 494.574C193.194 494.034 192.492 493.764 191.568 493.764ZM197.989 499.686C199.513 498.462 200.707 497.46 201.571 496.68C202.435 495.888 203.161 495.066 203.749 494.214C204.349 493.35 204.649 492.504 204.649 491.676C204.649 490.896 204.457 490.284 204.073 489.84C203.701 489.384 203.095 489.156 202.255 489.156C201.439 489.156 200.803 489.414 200.347 489.93C199.903 490.434 199.663 491.112 199.627 491.964H198.043C198.091 490.62 198.499 489.582 199.267 488.85C200.035 488.118 201.025 487.752 202.237 487.752C203.473 487.752 204.451 488.094 205.171 488.778C205.903 489.462 206.269 490.404 206.269 491.604C206.269 492.6 205.969 493.572 205.369 494.52C204.781 495.456 204.109 496.284 203.353 497.004C202.597 497.712 201.631 498.54 200.455 499.488H206.647V500.856H197.989V499.686ZM210.917 494.232C210.245 493.968 209.729 493.584 209.369 493.08C209.009 492.576 208.829 491.964 208.829 491.244C208.829 490.596 208.991 490.014 209.315 489.498C209.639 488.97 210.119 488.556 210.755 488.256C211.403 487.944 212.183 487.788 213.095 487.788C214.007 487.788 214.781 487.944 215.417 488.256C216.065 488.556 216.551 488.97 216.875 489.498C217.211 490.014 217.379 490.596 217.379 491.244C217.379 491.94 217.193 492.552 216.821 493.08C216.449 493.596 215.939 493.98 215.291 494.232C216.035 494.46 216.623 494.862 217.055 495.438C217.499 496.002 217.721 496.686 217.721 497.49C217.721 498.27 217.529 498.954 217.145 499.542C216.761 500.118 216.215 500.568 215.507 500.892C214.811 501.204 214.007 501.36 213.095 501.36C212.183 501.36 211.379 501.204 210.683 500.892C209.999 500.568 209.465 500.118 209.081 499.542C208.697 498.954 208.505 498.27 208.505 497.49C208.505 496.686 208.721 495.996 209.153 495.42C209.585 494.844 210.173 494.448 210.917 494.232ZM215.795 491.442C215.795 490.71 215.555 490.146 215.075 489.75C214.595 489.354 213.935 489.156 213.095 489.156C212.267 489.156 211.613 489.354 211.133 489.75C210.653 490.146 210.413 490.716 210.413 491.46C210.413 492.132 210.659 492.672 211.151 493.08C211.655 493.488 212.303 493.692 213.095 493.692C213.899 493.692 214.547 493.488 215.039 493.08C215.543 492.66 215.795 492.114 215.795 491.442ZM213.095 494.952C212.207 494.952 211.481 495.162 210.917 495.582C210.353 495.99 210.071 496.608 210.071 497.436C210.071 498.204 210.341 498.822 210.881 499.29C211.433 499.758 212.171 499.992 213.095 499.992C214.019 499.992 214.751 499.758 215.291 499.29C215.831 498.822 216.101 498.204 216.101 497.436C216.101 496.632 215.825 496.02 215.273 495.6C214.721 495.168 213.995 494.952 213.095 494.952ZM222.002 497.508C222.122 498.192 222.398 498.72 222.83 499.092C223.274 499.464 223.868 499.65 224.612 499.65C225.608 499.65 226.34 499.26 226.808 498.48C227.288 497.7 227.516 496.386 227.492 494.538C227.24 495.078 226.82 495.504 226.232 495.816C225.644 496.116 224.99 496.266 224.27 496.266C223.466 496.266 222.746 496.104 222.11 495.78C221.486 495.444 220.994 494.958 220.634 494.322C220.274 493.686 220.094 492.918 220.094 492.018C220.094 490.734 220.466 489.702 221.21 488.922C221.954 488.13 223.01 487.734 224.378 487.734C226.058 487.734 227.234 488.28 227.906 489.372C228.59 490.464 228.932 492.09 228.932 494.25C228.932 495.762 228.794 497.01 228.518 497.994C228.254 498.978 227.798 499.728 227.15 500.244C226.514 500.76 225.638 501.018 224.522 501.018C223.298 501.018 222.344 500.688 221.66 500.028C220.976 499.368 220.586 498.528 220.49 497.508H222.002ZM224.54 494.88C225.344 494.88 226.004 494.634 226.52 494.142C227.036 493.638 227.294 492.96 227.294 492.108C227.294 491.208 227.042 490.482 226.538 489.93C226.034 489.378 225.326 489.102 224.414 489.102C223.574 489.102 222.902 489.366 222.398 489.894C221.906 490.422 221.66 491.118 221.66 491.982C221.66 492.858 221.906 493.56 222.398 494.088C222.89 494.616 223.604 494.88 224.54 494.88ZM233.61 494.232C232.938 493.968 232.422 493.584 232.062 493.08C231.702 492.576 231.522 491.964 231.522 491.244C231.522 490.596 231.684 490.014 232.008 489.498C232.332 488.97 232.812 488.556 233.448 488.256C234.096 487.944 234.876 487.788 235.788 487.788C236.7 487.788 237.474 487.944 238.11 488.256C238.758 488.556 239.244 488.97 239.568 489.498C239.904 490.014 240.072 490.596 240.072 491.244C240.072 491.94 239.886 492.552 239.514 493.08C239.142 493.596 238.632 493.98 237.984 494.232C238.728 494.46 239.316 494.862 239.748 495.438C240.192 496.002 240.414 496.686 240.414 497.49C240.414 498.27 240.222 498.954 239.838 499.542C239.454 500.118 238.908 500.568 238.2 500.892C237.504 501.204 236.7 501.36 235.788 501.36C234.876 501.36 234.072 501.204 233.376 500.892C232.692 500.568 232.158 500.118 231.774 499.542C231.39 498.954 231.198 498.27 231.198 497.49C231.198 496.686 231.414 495.996 231.846 495.42C232.278 494.844 232.866 494.448 233.61 494.232ZM238.488 491.442C238.488 490.71 238.248 490.146 237.768 489.75C237.288 489.354 236.628 489.156 235.788 489.156C234.96 489.156 234.306 489.354 233.826 489.75C233.346 490.146 233.106 490.716 233.106 491.46C233.106 492.132 233.352 492.672 233.844 493.08C234.348 493.488 234.996 493.692 235.788 493.692C236.592 493.692 237.24 493.488 237.732 493.08C238.236 492.66 238.488 492.114 238.488 491.442ZM235.788 494.952C234.9 494.952 234.174 495.162 233.61 495.582C233.046 495.99 232.764 496.608 232.764 497.436C232.764 498.204 233.034 498.822 233.574 499.29C234.126 499.758 234.864 499.992 235.788 499.992C236.712 499.992 237.444 499.758 237.984 499.29C238.524 498.822 238.794 498.204 238.794 497.436C238.794 496.632 238.518 496.02 237.966 495.6C237.414 495.168 236.688 494.952 235.788 494.952ZM250.6 489.264L245.596 501H243.94L249.016 489.426H242.068V488.022H250.6V489.264ZM252.02 498.102V496.86L258.338 488.112H260.3V496.68H262.1V498.102H260.3V501H258.68V498.102H252.02ZM258.752 489.822L253.91 496.68H258.752V489.822ZM272.034 489.408H265.716V493.512C265.992 493.128 266.4 492.816 266.94 492.576C267.48 492.324 268.062 492.198 268.686 492.198C269.682 492.198 270.492 492.408 271.116 492.828C271.74 493.236 272.184 493.77 272.448 494.43C272.724 495.078 272.862 495.768 272.862 496.5C272.862 497.364 272.7 498.138 272.376 498.822C272.052 499.506 271.554 500.046 270.882 500.442C270.222 500.838 269.4 501.036 268.416 501.036C267.156 501.036 266.136 500.712 265.356 500.064C264.576 499.416 264.102 498.552 263.934 497.472H265.536C265.692 498.156 266.022 498.69 266.526 499.074C267.03 499.458 267.666 499.65 268.434 499.65C269.382 499.65 270.096 499.368 270.576 498.804C271.056 498.228 271.296 497.472 271.296 496.536C271.296 495.6 271.056 494.88 270.576 494.376C270.096 493.86 269.388 493.602 268.452 493.602C267.816 493.602 267.258 493.758 266.778 494.07C266.31 494.37 265.968 494.784 265.752 495.312H264.204V487.968H272.034V489.408ZM275.003 491.262C275.087 490.158 275.513 489.294 276.281 488.67C277.049 488.046 278.045 487.734 279.269 487.734C280.085 487.734 280.787 487.884 281.375 488.184C281.975 488.472 282.425 488.868 282.725 489.372C283.037 489.876 283.193 490.446 283.193 491.082C283.193 491.826 282.977 492.468 282.545 493.008C282.125 493.548 281.573 493.896 280.889 494.052V494.142C281.669 494.334 282.287 494.712 282.743 495.276C283.199 495.84 283.427 496.578 283.427 497.49C283.427 498.174 283.271 498.792 282.959 499.344C282.647 499.884 282.179 500.31 281.555 500.622C280.931 500.934 280.181 501.09 279.305 501.09C278.033 501.09 276.989 500.76 276.173 500.1C275.357 499.428 274.901 498.48 274.805 497.256H276.389C276.473 497.976 276.767 498.564 277.271 499.02C277.775 499.476 278.447 499.704 279.287 499.704C280.127 499.704 280.763 499.488 281.195 499.056C281.639 498.612 281.861 498.042 281.861 497.346C281.861 496.446 281.561 495.798 280.961 495.402C280.361 495.006 279.455 494.808 278.243 494.808H277.829V493.44H278.261C279.365 493.428 280.199 493.248 280.763 492.9C281.327 492.54 281.609 491.988 281.609 491.244C281.609 490.608 281.399 490.098 280.979 489.714C280.571 489.33 279.983 489.138 279.215 489.138C278.471 489.138 277.871 489.33 277.415 489.714C276.959 490.098 276.689 490.614 276.605 491.262H275.003ZM285.44 499.686C286.964 498.462 288.158 497.46 289.022 496.68C289.886 495.888 290.612 495.066 291.2 494.214C291.8 493.35 292.1 492.504 292.1 491.676C292.1 490.896 291.908 490.284 291.524 489.84C291.152 489.384 290.546 489.156 289.706 489.156C288.89 489.156 288.254 489.414 287.798 489.93C287.354 490.434 287.114 491.112 287.078 491.964H285.494C285.542 490.62 285.95 489.582 286.718 488.85C287.486 488.118 288.476 487.752 289.688 487.752C290.924 487.752 291.902 488.094 292.622 488.778C293.354 489.462 293.72 490.404 293.72 491.604C293.72 492.6 293.42 493.572 292.82 494.52C292.232 495.456 291.56 496.284 290.804 497.004C290.048 497.712 289.082 498.54 287.906 499.488H294.098V500.856H285.44V499.686ZM295.56 489.48V487.986H298.944V501H297.288V489.48H295.56Z" fill="#848484"/>
<g clip-path="url(#clip0_5_1348)">
<path d="M151.525 365.767C143.194 365.767 136.415 358.988 136.415 350.657C136.415 342.325 143.194 335.547 151.525 335.547C159.857 335.547 166.635 342.325 166.635 350.657C166.635 358.988 159.857 365.767 151.525 365.767Z" fill="#B3B3B3"/>
<path d="M178.749 335.276C171.476 328.005 161.809 324 151.526 324C141.242 324 131.573 328.005 124.302 335.276C117.031 342.548 113.026 352.216 113.026 362.5C113.026 372.784 117.031 382.452 124.302 389.724C131.573 396.995 141.242 401 151.526 401C161.809 401 171.476 396.995 178.749 389.724C186.021 382.452 190.026 372.784 190.026 362.5C190.026 352.216 186.021 342.548 178.749 335.276ZM123.424 384.062C118.828 378.085 116.091 370.606 116.091 362.5C116.091 342.961 131.987 327.065 151.526 327.065C171.064 327.065 186.959 342.961 186.959 362.5C186.959 370.609 184.222 378.091 179.622 384.069C178.482 380.255 175.579 376.85 171.172 374.247C165.847 371.101 158.837 369.368 151.435 369.368C144.042 369.368 137.062 371.101 131.782 374.25C127.424 376.849 124.553 380.248 123.424 384.062Z" fill="#B3B3B3"/>
</g>
<path d="M229.626 334.45V346.4C229.626 348.25 229.101 349.675 228.051 350.675C227.018 351.675 225.618 352.175 223.851 352.175C222.001 352.175 220.518 351.65 219.401 350.6C218.285 349.55 217.726 348.058 217.726 346.125H221.976C221.976 346.858 222.126 347.417 222.426 347.8C222.726 348.167 223.16 348.35 223.726 348.35C224.243 348.35 224.643 348.183 224.926 347.85C225.21 347.517 225.351 347.033 225.351 346.4V334.45H229.626ZM239.429 352.2C238.063 352.2 236.829 351.908 235.729 351.325C234.646 350.742 233.788 349.908 233.154 348.825C232.538 347.742 232.229 346.475 232.229 345.025C232.229 343.592 232.546 342.333 233.179 341.25C233.813 340.15 234.679 339.308 235.779 338.725C236.879 338.142 238.113 337.85 239.479 337.85C240.846 337.85 242.079 338.142 243.179 338.725C244.279 339.308 245.146 340.15 245.779 341.25C246.413 342.333 246.729 343.592 246.729 345.025C246.729 346.458 246.404 347.725 245.754 348.825C245.121 349.908 244.246 350.742 243.129 351.325C242.029 351.908 240.796 352.2 239.429 352.2ZM239.429 348.5C240.246 348.5 240.938 348.2 241.504 347.6C242.088 347 242.379 346.142 242.379 345.025C242.379 343.908 242.096 343.05 241.529 342.45C240.979 341.85 240.296 341.55 239.479 341.55C238.646 341.55 237.954 341.85 237.404 342.45C236.854 343.033 236.579 343.892 236.579 345.025C236.579 346.142 236.846 347 237.379 347.6C237.929 348.2 238.613 348.5 239.429 348.5ZM257.572 337.9C259.172 337.9 260.456 338.433 261.422 339.5C262.389 340.55 262.872 342 262.872 343.85V352H258.622V344.425C258.622 343.492 258.381 342.767 257.897 342.25C257.414 341.733 256.764 341.475 255.947 341.475C255.131 341.475 254.481 341.733 253.997 342.25C253.514 342.767 253.272 343.492 253.272 344.425V352H248.997V333.5H253.272V339.925C253.706 339.308 254.297 338.817 255.047 338.45C255.797 338.083 256.639 337.9 257.572 337.9ZM274.343 337.9C275.976 337.9 277.276 338.433 278.243 339.5C279.226 340.55 279.718 342 279.718 343.85V352H275.468V344.425C275.468 343.492 275.226 342.767 274.743 342.25C274.26 341.733 273.61 341.475 272.793 341.475C271.976 341.475 271.326 341.733 270.843 342.25C270.36 342.767 270.118 343.492 270.118 344.425V352H265.843V338.05H270.118V339.9C270.551 339.283 271.135 338.8 271.868 338.45C272.601 338.083 273.426 337.9 274.343 337.9ZM294.562 334.45C296.412 334.45 298.028 334.817 299.412 335.55C300.795 336.283 301.862 337.317 302.612 338.65C303.378 339.967 303.762 341.492 303.762 343.225C303.762 344.942 303.378 346.467 302.612 347.8C301.862 349.133 300.787 350.167 299.387 350.9C298.003 351.633 296.395 352 294.562 352H287.987V334.45H294.562ZM294.287 348.3C295.903 348.3 297.162 347.858 298.062 346.975C298.962 346.092 299.412 344.842 299.412 343.225C299.412 341.608 298.962 340.35 298.062 339.45C297.162 338.55 295.903 338.1 294.287 338.1H292.262V348.3H294.287ZM312.501 352.2C311.134 352.2 309.901 351.908 308.801 351.325C307.717 350.742 306.859 349.908 306.226 348.825C305.609 347.742 305.301 346.475 305.301 345.025C305.301 343.592 305.617 342.333 306.251 341.25C306.884 340.15 307.751 339.308 308.851 338.725C309.951 338.142 311.184 337.85 312.551 337.85C313.917 337.85 315.151 338.142 316.251 338.725C317.351 339.308 318.217 340.15 318.851 341.25C319.484 342.333 319.801 343.592 319.801 345.025C319.801 346.458 319.476 347.725 318.826 348.825C318.192 349.908 317.317 350.742 316.201 351.325C315.101 351.908 313.867 352.2 312.501 352.2ZM312.501 348.5C313.317 348.5 314.009 348.2 314.576 347.6C315.159 347 315.451 346.142 315.451 345.025C315.451 343.908 315.167 343.05 314.601 342.45C314.051 341.85 313.367 341.55 312.551 341.55C311.717 341.55 311.026 341.85 310.476 342.45C309.926 343.033 309.651 343.892 309.651 345.025C309.651 346.142 309.917 347 310.451 347.6C311.001 348.2 311.684 348.5 312.501 348.5ZM335.219 344.8C335.219 345.2 335.194 345.617 335.144 346.05H325.469C325.535 346.917 325.81 347.583 326.294 348.05C326.794 348.5 327.402 348.725 328.119 348.725C329.185 348.725 329.927 348.275 330.344 347.375H334.894C334.66 348.292 334.235 349.117 333.619 349.85C333.019 350.583 332.26 351.158 331.344 351.575C330.427 351.992 329.402 352.2 328.269 352.2C326.902 352.2 325.685 351.908 324.619 351.325C323.552 350.742 322.719 349.908 322.119 348.825C321.519 347.742 321.219 346.475 321.219 345.025C321.219 343.575 321.51 342.308 322.094 341.225C322.694 340.142 323.527 339.308 324.594 338.725C325.66 338.142 326.885 337.85 328.269 337.85C329.619 337.85 330.819 338.133 331.869 338.7C332.919 339.267 333.735 340.075 334.319 341.125C334.919 342.175 335.219 343.4 335.219 344.8ZM330.844 343.675C330.844 342.942 330.594 342.358 330.094 341.925C329.594 341.492 328.969 341.275 328.219 341.275C327.502 341.275 326.894 341.483 326.394 341.9C325.91 342.317 325.61 342.908 325.494 343.675H330.844Z" fill="#848484"/>
<path d="M141 446.8L154.8 437.6C154.2 435.5 152.3 434 150 434H132C129.7 434 127.8 435.5 127.2 437.6L141 446.8Z" fill="#B3B3B3"/>
<path d="M141.6 448.8C141.4 448.9 141.2 449 141 449C140.8 449 140.6 448.9 140.4 448.8L127 439.9V453C127 455.8 129.2 458 132 458H150C152.8 458 155 455.8 155 453V439.9L141.6 448.8Z" fill="#B3B3B3"/>
<g clip-path="url(#clip1_5_1348)">
<path fill-rule="evenodd" clip-rule="evenodd" d="M149.738 498.665L146.493 498.295C145.713 498.205 144.947 498.474 144.397 499.023L142.046 501.374C138.43 499.534 135.466 496.583 133.626 492.954L135.989 490.59C136.539 490.04 136.807 489.274 136.718 488.494L136.347 485.274C136.194 483.984 135.108 483.013 133.804 483.013H131.594C130.15 483.013 128.949 484.214 129.038 485.658C129.716 496.57 138.443 505.284 149.342 505.962C150.786 506.051 151.987 504.85 151.987 503.406V501.195C152 499.905 151.029 498.819 149.738 498.665Z" fill="#B3B3B3"/>
</g>
<rect x="258.5" y="507.5" width="400" height="165" rx="11.5" fill="white" stroke="#C5C5C5"/>
<path d="M462.707 639.707C463.098 639.317 463.098 638.683 462.707 638.293L456.343 631.929C455.953 631.538 455.319 631.538 454.929 631.929C454.538 632.319 454.538 632.953 454.929 633.343L460.586 639L454.929 644.657C454.538 645.047 454.538 645.681 454.929 646.071C455.319 646.462 455.953 646.462 456.343 646.071L462.707 639.707ZM461 640H462V638H461V640Z" fill="#B1B1B1"/>
<path d="M381.526 593.454V594.786H378.106V606H376.468V594.786H373.03V593.454H381.526ZM387.844 606.162C386.92 606.162 386.08 605.952 385.324 605.532C384.58 605.112 383.992 604.518 383.56 603.75C383.14 602.97 382.93 602.07 382.93 601.05C382.93 600.042 383.146 599.154 383.578 598.386C384.022 597.606 384.622 597.012 385.378 596.604C386.134 596.184 386.98 595.974 387.916 595.974C388.852 595.974 389.698 596.184 390.454 596.604C391.21 597.012 391.804 597.6 392.236 598.368C392.68 599.136 392.902 600.03 392.902 601.05C392.902 602.07 392.674 602.97 392.218 603.75C391.774 604.518 391.168 605.112 390.4 605.532C389.632 605.952 388.78 606.162 387.844 606.162ZM387.844 604.722C388.432 604.722 388.984 604.584 389.5 604.308C390.016 604.032 390.43 603.618 390.742 603.066C391.066 602.514 391.228 601.842 391.228 601.05C391.228 600.258 391.072 599.586 390.76 599.034C390.448 598.482 390.04 598.074 389.536 597.81C389.032 597.534 388.486 597.396 387.898 597.396C387.298 597.396 386.746 597.534 386.242 597.81C385.75 598.074 385.354 598.482 385.054 599.034C384.754 599.586 384.604 600.258 384.604 601.05C384.604 601.854 384.748 602.532 385.036 603.084C385.336 603.636 385.732 604.05 386.224 604.326C386.716 604.59 387.256 604.722 387.844 604.722ZM397.054 597.486V603.3C397.054 603.78 397.156 604.122 397.36 604.326C397.564 604.518 397.918 604.614 398.422 604.614H399.628V606H398.152C397.24 606 396.556 605.79 396.1 605.37C395.644 604.95 395.416 604.26 395.416 603.3V597.486H394.138V596.136H395.416V593.652H397.054V596.136H399.628V597.486H397.054ZM401.001 601.032C401.001 600.024 401.205 599.142 401.613 598.386C402.021 597.618 402.579 597.024 403.287 596.604C404.007 596.184 404.805 595.974 405.681 595.974C406.545 595.974 407.295 596.16 407.931 596.532C408.567 596.904 409.041 597.372 409.353 597.936V596.136H411.009V606H409.353V604.164C409.029 604.74 408.543 605.22 407.895 605.604C407.259 605.976 406.515 606.162 405.663 606.162C404.787 606.162 403.995 605.946 403.287 605.514C402.579 605.082 402.021 604.476 401.613 603.696C401.205 602.916 401.001 602.028 401.001 601.032ZM409.353 601.05C409.353 600.306 409.203 599.658 408.903 599.106C408.603 598.554 408.195 598.134 407.679 597.846C407.175 597.546 406.617 597.396 406.005 597.396C405.393 597.396 404.835 597.54 404.331 597.828C403.827 598.116 403.425 598.536 403.125 599.088C402.825 599.64 402.675 600.288 402.675 601.032C402.675 601.788 402.825 602.448 403.125 603.012C403.425 603.564 403.827 603.99 404.331 604.29C404.835 604.578 405.393 604.722 406.005 604.722C406.617 604.722 407.175 604.578 407.679 604.29C408.195 603.99 408.603 603.564 408.903 603.012C409.203 602.448 409.353 601.794 409.353 601.05ZM415.415 592.68V606H413.777V592.68H415.415ZM431.393 597.126C431.393 598.17 431.033 599.04 430.313 599.736C429.605 600.42 428.519 600.762 427.055 600.762H424.643V606H423.005V593.454H427.055C428.471 593.454 429.545 593.796 430.277 594.48C431.021 595.164 431.393 596.046 431.393 597.126ZM427.055 599.412C427.967 599.412 428.639 599.214 429.071 598.818C429.503 598.422 429.719 597.858 429.719 597.126C429.719 595.578 428.831 594.804 427.055 594.804H424.643V599.412H427.055ZM432.817 601.032C432.817 600.024 433.021 599.142 433.429 598.386C433.837 597.618 434.395 597.024 435.103 596.604C435.823 596.184 436.621 595.974 437.497 595.974C438.361 595.974 439.111 596.16 439.747 596.532C440.383 596.904 440.857 597.372 441.169 597.936V596.136H442.825V606H441.169V604.164C440.845 604.74 440.359 605.22 439.711 605.604C439.075 605.976 438.331 606.162 437.479 606.162C436.603 606.162 435.811 605.946 435.103 605.514C434.395 605.082 433.837 604.476 433.429 603.696C433.021 602.916 432.817 602.028 432.817 601.032ZM441.169 601.05C441.169 600.306 441.019 599.658 440.719 599.106C440.419 598.554 440.011 598.134 439.495 597.846C438.991 597.546 438.433 597.396 437.821 597.396C437.209 597.396 436.651 597.54 436.147 597.828C435.643 598.116 435.241 598.536 434.941 599.088C434.641 599.64 434.491 600.288 434.491 601.032C434.491 601.788 434.641 602.448 434.941 603.012C435.241 603.564 435.643 603.99 436.147 604.29C436.651 604.578 437.209 604.722 437.821 604.722C438.433 604.722 438.991 604.578 439.495 604.29C440.011 603.99 440.419 603.564 440.719 603.012C441.019 602.448 441.169 601.794 441.169 601.05ZM454.089 596.136L448.149 610.644H446.457L448.401 605.892L444.423 596.136H446.241L449.337 604.128L452.397 596.136H454.089ZM457.374 597.738C457.662 597.174 458.07 596.736 458.598 596.424C459.138 596.112 459.792 595.956 460.56 595.956V597.648H460.128C458.292 597.648 457.374 598.644 457.374 600.636V606H455.736V596.136H457.374V597.738ZM466.752 606.162C465.828 606.162 464.988 605.952 464.232 605.532C463.488 605.112 462.9 604.518 462.468 603.75C462.048 602.97 461.838 602.07 461.838 601.05C461.838 600.042 462.054 599.154 462.486 598.386C462.93 597.606 463.53 597.012 464.286 596.604C465.042 596.184 465.888 595.974 466.824 595.974C467.76 595.974 468.606 596.184 469.362 596.604C470.118 597.012 470.712 597.6 471.144 598.368C471.588 599.136 471.81 600.03 471.81 601.05C471.81 602.07 471.582 602.97 471.126 603.75C470.682 604.518 470.076 605.112 469.308 605.532C468.54 605.952 467.688 606.162 466.752 606.162ZM466.752 604.722C467.34 604.722 467.892 604.584 468.408 604.308C468.924 604.032 469.338 603.618 469.65 603.066C469.974 602.514 470.136 601.842 470.136 601.05C470.136 600.258 469.98 599.586 469.668 599.034C469.356 598.482 468.948 598.074 468.444 597.81C467.94 597.534 467.394 597.396 466.806 597.396C466.206 597.396 465.654 597.534 465.15 597.81C464.658 598.074 464.262 598.482 463.962 599.034C463.662 599.586 463.512 600.258 463.512 601.05C463.512 601.854 463.656 602.532 463.944 603.084C464.244 603.636 464.64 604.05 465.132 604.326C465.624 604.59 466.164 604.722 466.752 604.722ZM475.602 592.68V606H473.964V592.68H475.602ZM480.032 592.68V606H478.394V592.68H480.032ZM489.62 597.486V603.3C489.62 603.78 489.722 604.122 489.926 604.326C490.13 604.518 490.484 604.614 490.988 604.614H492.194V606H490.718C489.806 606 489.122 605.79 488.666 605.37C488.21 604.95 487.982 604.26 487.982 603.3V597.486H486.704V596.136H487.982V593.652H489.62V596.136H492.194V597.486H489.62ZM499.075 595.956C499.819 595.956 500.491 596.118 501.091 596.442C501.691 596.754 502.159 597.228 502.495 597.864C502.843 598.5 503.017 599.274 503.017 600.186V606H501.397V600.42C501.397 599.436 501.151 598.686 500.659 598.17C500.167 597.642 499.495 597.378 498.643 597.378C497.779 597.378 497.089 597.648 496.573 598.188C496.069 598.728 495.817 599.514 495.817 600.546V606H494.179V592.68H495.817V597.54C496.141 597.036 496.585 596.646 497.149 596.37C497.725 596.094 498.367 595.956 499.075 595.956ZM506.539 594.534C506.227 594.534 505.963 594.426 505.747 594.21C505.531 593.994 505.423 593.73 505.423 593.418C505.423 593.106 505.531 592.842 505.747 592.626C505.963 592.41 506.227 592.302 506.539 592.302C506.839 592.302 507.091 592.41 507.295 592.626C507.511 592.842 507.619 593.106 507.619 593.418C507.619 593.73 507.511 593.994 507.295 594.21C507.091 594.426 506.839 594.534 506.539 594.534ZM507.331 596.136V606H505.693V596.136H507.331ZM513.614 606.162C512.858 606.162 512.18 606.036 511.58 605.784C510.98 605.52 510.506 605.16 510.158 604.704C509.81 604.236 509.618 603.702 509.582 603.102H511.274C511.322 603.594 511.55 603.996 511.958 604.308C512.378 604.62 512.924 604.776 513.596 604.776C514.22 604.776 514.712 604.638 515.072 604.362C515.432 604.086 515.612 603.738 515.612 603.318C515.612 602.886 515.42 602.568 515.036 602.364C514.652 602.148 514.058 601.938 513.254 601.734C512.522 601.542 511.922 601.35 511.454 601.158C510.998 600.954 510.602 600.66 510.266 600.276C509.942 599.88 509.78 599.364 509.78 598.728C509.78 598.224 509.93 597.762 510.23 597.342C510.53 596.922 510.956 596.592 511.508 596.352C512.06 596.1 512.69 595.974 513.398 595.974C514.49 595.974 515.372 596.25 516.044 596.802C516.716 597.354 517.076 598.11 517.124 599.07H515.486C515.45 598.554 515.24 598.14 514.856 597.828C514.484 597.516 513.98 597.36 513.344 597.36C512.756 597.36 512.288 597.486 511.94 597.738C511.592 597.99 511.418 598.32 511.418 598.728C511.418 599.052 511.52 599.322 511.724 599.538C511.94 599.742 512.204 599.91 512.516 600.042C512.84 600.162 513.284 600.3 513.848 600.456C514.556 600.648 515.132 600.84 515.576 601.032C516.02 601.212 516.398 601.488 516.71 601.86C517.034 602.232 517.202 602.718 517.214 603.318C517.214 603.858 517.064 604.344 516.764 604.776C516.464 605.208 516.038 605.55 515.486 605.802C514.946 606.042 514.322 606.162 513.614 606.162ZM536.187 595.956C536.955 595.956 537.639 596.118 538.239 596.442C538.839 596.754 539.313 597.228 539.661 597.864C540.009 598.5 540.183 599.274 540.183 600.186V606H538.563V600.42C538.563 599.436 538.317 598.686 537.825 598.17C537.345 597.642 536.691 597.378 535.863 597.378C535.011 597.378 534.333 597.654 533.829 598.206C533.325 598.746 533.073 599.532 533.073 600.564V606H531.453V600.42C531.453 599.436 531.207 598.686 530.715 598.17C530.235 597.642 529.581 597.378 528.753 597.378C527.901 597.378 527.223 597.654 526.719 598.206C526.215 598.746 525.963 599.532 525.963 600.564V606H524.325V596.136H525.963V597.558C526.287 597.042 526.719 596.646 527.259 596.37C527.811 596.094 528.417 595.956 529.077 595.956C529.905 595.956 530.637 596.142 531.273 596.514C531.909 596.886 532.383 597.432 532.695 598.152C532.971 597.456 533.427 596.916 534.063 596.532C534.699 596.148 535.407 595.956 536.187 595.956ZM547.172 606.162C546.248 606.162 545.408 605.952 544.652 605.532C543.908 605.112 543.32 604.518 542.888 603.75C542.468 602.97 542.258 602.07 542.258 601.05C542.258 600.042 542.474 599.154 542.906 598.386C543.35 597.606 543.95 597.012 544.706 596.604C545.462 596.184 546.308 595.974 547.244 595.974C548.18 595.974 549.026 596.184 549.782 596.604C550.538 597.012 551.132 597.6 551.564 598.368C552.008 599.136 552.23 600.03 552.23 601.05C552.23 602.07 552.002 602.97 551.546 603.75C551.102 604.518 550.496 605.112 549.728 605.532C548.96 605.952 548.108 606.162 547.172 606.162ZM547.172 604.722C547.76 604.722 548.312 604.584 548.828 604.308C549.344 604.032 549.758 603.618 550.07 603.066C550.394 602.514 550.556 601.842 550.556 601.05C550.556 600.258 550.4 599.586 550.088 599.034C549.776 598.482 549.368 598.074 548.864 597.81C548.36 597.534 547.814 597.396 547.226 597.396C546.626 597.396 546.074 597.534 545.57 597.81C545.078 598.074 544.682 598.482 544.382 599.034C544.082 599.586 543.932 600.258 543.932 601.05C543.932 601.854 544.076 602.532 544.364 603.084C544.664 603.636 545.06 604.05 545.552 604.326C546.044 604.59 546.584 604.722 547.172 604.722ZM559.19 595.956C560.39 595.956 561.362 596.322 562.106 597.054C562.85 597.774 563.222 598.818 563.222 600.186V606H561.602V600.42C561.602 599.436 561.356 598.686 560.864 598.17C560.372 597.642 559.7 597.378 558.848 597.378C557.984 597.378 557.294 597.648 556.778 598.188C556.274 598.728 556.022 599.514 556.022 600.546V606H554.384V596.136H556.022V597.54C556.346 597.036 556.784 596.646 557.336 596.37C557.9 596.094 558.518 595.956 559.19 595.956ZM567.896 597.486V603.3C567.896 603.78 567.998 604.122 568.202 604.326C568.406 604.518 568.76 604.614 569.264 604.614H570.47V606H568.994C568.082 606 567.398 605.79 566.942 605.37C566.486 604.95 566.258 604.26 566.258 603.3V597.486H564.98V596.136H566.258V593.652H567.896V596.136H570.47V597.486H567.896ZM577.35 595.956C578.094 595.956 578.766 596.118 579.366 596.442C579.966 596.754 580.434 597.228 580.77 597.864C581.118 598.5 581.292 599.274 581.292 600.186V606H579.672V600.42C579.672 599.436 579.426 598.686 578.934 598.17C578.442 597.642 577.77 597.378 576.918 597.378C576.054 597.378 575.364 597.648 574.848 598.188C574.344 598.728 574.092 599.514 574.092 600.546V606H572.454V592.68H574.092V597.54C574.416 597.036 574.86 596.646 575.424 596.37C576 596.094 576.642 595.956 577.35 595.956Z" fill="#848484"/>
<path d="M385.267 572L380.647 563.84H378.667V572H374.467V551.06H382.327C383.947 551.06 385.327 551.35 386.467 551.93C387.607 552.49 388.457 553.26 389.017 554.24C389.597 555.2 389.887 556.28 389.887 557.48C389.887 558.86 389.487 560.11 388.687 561.23C387.887 562.33 386.697 563.09 385.117 563.51L390.127 572H385.267ZM378.667 560.69H382.177C383.317 560.69 384.167 560.42 384.727 559.88C385.287 559.32 385.567 558.55 385.567 557.57C385.567 556.61 385.287 555.87 384.727 555.35C384.167 554.81 383.317 554.54 382.177 554.54H378.667V560.69ZM397.886 557.78C398.426 557.02 399.166 556.39 400.106 555.89C401.066 555.37 402.156 555.11 403.376 555.11C404.796 555.11 406.076 555.46 407.216 556.16C408.376 556.86 409.286 557.86 409.946 559.16C410.626 560.44 410.966 561.93 410.966 563.63C410.966 565.33 410.626 566.84 409.946 568.16C409.286 569.46 408.376 570.47 407.216 571.19C406.076 571.91 404.796 572.27 403.376 572.27C402.156 572.27 401.076 572.02 400.136 571.52C399.216 571.02 398.466 570.39 397.886 569.63V579.92H393.686V555.38H397.886V557.78ZM406.676 563.63C406.676 562.63 406.466 561.77 406.046 561.05C405.646 560.31 405.106 559.75 404.426 559.37C403.766 558.99 403.046 558.8 402.266 558.8C401.506 558.8 400.786 559 400.106 559.4C399.446 559.78 398.906 560.34 398.486 561.08C398.086 561.82 397.886 562.69 397.886 563.69C397.886 564.69 398.086 565.56 398.486 566.3C398.906 567.04 399.446 567.61 400.106 568.01C400.786 568.39 401.506 568.58 402.266 568.58C403.046 568.58 403.766 568.38 404.426 567.98C405.106 567.58 405.646 567.01 406.046 566.27C406.466 565.53 406.676 564.65 406.676 563.63ZM428.238 553.76H418.518V558.89C418.938 558.37 419.538 557.95 420.318 557.63C421.098 557.29 421.928 557.12 422.808 557.12C424.408 557.12 425.718 557.47 426.738 558.17C427.758 558.87 428.498 559.77 428.958 560.87C429.418 561.95 429.648 563.11 429.648 564.35C429.648 566.65 428.988 568.5 427.668 569.9C426.368 571.3 424.508 572 422.088 572C419.808 572 417.988 571.43 416.628 570.29C415.268 569.15 414.498 567.66 414.318 565.82H418.398C418.578 566.62 418.978 567.26 419.598 567.74C420.238 568.22 421.048 568.46 422.028 568.46C423.208 568.46 424.098 568.09 424.698 567.35C425.298 566.61 425.598 565.63 425.598 564.41C425.598 563.17 425.288 562.23 424.668 561.59C424.068 560.93 423.178 560.6 421.998 560.6C421.158 560.6 420.458 560.81 419.898 561.23C419.338 561.65 418.938 562.21 418.698 562.91H414.678V550.07H428.238V553.76ZM432.845 560.78C432.845 557.32 433.465 554.61 434.705 552.65C435.965 550.69 438.045 549.71 440.945 549.71C443.845 549.71 445.915 550.69 447.155 552.65C448.415 554.61 449.045 557.32 449.045 560.78C449.045 564.26 448.415 566.99 447.155 568.97C445.915 570.95 443.845 571.94 440.945 571.94C438.045 571.94 435.965 570.95 434.705 568.97C433.465 566.99 432.845 564.26 432.845 560.78ZM444.905 560.78C444.905 559.3 444.805 558.06 444.605 557.06C444.425 556.04 444.045 555.21 443.465 554.57C442.905 553.93 442.065 553.61 440.945 553.61C439.825 553.61 438.975 553.93 438.395 554.57C437.835 555.21 437.455 556.04 437.255 557.06C437.075 558.06 436.985 559.3 436.985 560.78C436.985 562.3 437.075 563.58 437.255 564.62C437.435 565.64 437.815 566.47 438.395 567.11C438.975 567.73 439.825 568.04 440.945 568.04C442.065 568.04 442.915 567.73 443.495 567.11C444.075 566.47 444.455 565.64 444.635 564.62C444.815 563.58 444.905 562.3 444.905 560.78ZM454.579 572.21C453.819 572.21 453.189 571.98 452.689 571.52C452.209 571.04 451.969 570.45 451.969 569.75C451.969 569.05 452.209 568.47 452.689 568.01C453.189 567.53 453.819 567.29 454.579 567.29C455.319 567.29 455.929 567.53 456.409 568.01C456.889 568.47 457.129 569.05 457.129 569.75C457.129 570.45 456.889 571.04 456.409 571.52C455.929 571.98 455.319 572.21 454.579 572.21ZM460.032 560.78C460.032 557.32 460.652 554.61 461.892 552.65C463.152 550.69 465.232 549.71 468.132 549.71C471.032 549.71 473.102 550.69 474.342 552.65C475.602 554.61 476.232 557.32 476.232 560.78C476.232 564.26 475.602 566.99 474.342 568.97C473.102 570.95 471.032 571.94 468.132 571.94C465.232 571.94 463.152 570.95 461.892 568.97C460.652 566.99 460.032 564.26 460.032 560.78ZM472.092 560.78C472.092 559.3 471.992 558.06 471.792 557.06C471.612 556.04 471.232 555.21 470.652 554.57C470.092 553.93 469.252 553.61 468.132 553.61C467.012 553.61 466.162 553.93 465.582 554.57C465.022 555.21 464.642 556.04 464.442 557.06C464.262 558.06 464.172 559.3 464.172 560.78C464.172 562.3 464.262 563.58 464.442 564.62C464.622 565.64 465.002 566.47 465.582 567.11C466.162 567.73 467.012 568.04 468.132 568.04C469.252 568.04 470.102 567.73 470.682 567.11C471.262 566.47 471.642 565.64 471.822 564.62C472.002 563.58 472.092 562.3 472.092 560.78ZM479.427 560.78C479.427 557.32 480.047 554.61 481.287 552.65C482.547 550.69 484.627 549.71 487.527 549.71C490.427 549.71 492.497 550.69 493.737 552.65C494.997 554.61 495.627 557.32 495.627 560.78C495.627 564.26 494.997 566.99 493.737 568.97C492.497 570.95 490.427 571.94 487.527 571.94C484.627 571.94 482.547 570.95 481.287 568.97C480.047 566.99 479.427 564.26 479.427 560.78ZM491.487 560.78C491.487 559.3 491.387 558.06 491.187 557.06C491.007 556.04 490.627 555.21 490.047 554.57C489.487 553.93 488.647 553.61 487.527 553.61C486.407 553.61 485.557 553.93 484.977 554.57C484.417 555.21 484.037 556.04 483.837 557.06C483.657 558.06 483.567 559.3 483.567 560.78C483.567 562.3 483.657 563.58 483.837 564.62C484.017 565.64 484.397 566.47 484.977 567.11C485.557 567.73 486.407 568.04 487.527 568.04C488.647 568.04 489.497 567.73 490.077 567.11C490.657 566.47 491.037 565.64 491.217 564.62C491.397 563.58 491.487 562.3 491.487 560.78ZM498.821 560.78C498.821 557.32 499.441 554.61 500.681 552.65C501.941 550.69 504.021 549.71 506.921 549.71C509.821 549.71 511.891 550.69 513.131 552.65C514.391 554.61 515.021 557.32 515.021 560.78C515.021 564.26 514.391 566.99 513.131 568.97C511.891 570.95 509.821 571.94 506.921 571.94C504.021 571.94 501.941 570.95 500.681 568.97C499.441 566.99 498.821 564.26 498.821 560.78ZM510.881 560.78C510.881 559.3 510.781 558.06 510.581 557.06C510.401 556.04 510.021 555.21 509.441 554.57C508.881 553.93 508.041 553.61 506.921 553.61C505.801 553.61 504.951 553.93 504.371 554.57C503.811 555.21 503.431 556.04 503.231 557.06C503.051 558.06 502.961 559.3 502.961 560.78C502.961 562.3 503.051 563.58 503.231 564.62C503.411 565.64 503.791 566.47 504.371 567.11C504.951 567.73 505.801 568.04 506.921 568.04C508.041 568.04 508.891 567.73 509.471 567.11C510.051 566.47 510.431 565.64 510.611 564.62C510.791 563.58 510.881 562.3 510.881 560.78ZM520.556 572.21C519.796 572.21 519.166 571.98 518.666 571.52C518.186 571.04 517.946 570.45 517.946 569.75C517.946 569.05 518.186 568.47 518.666 568.01C519.166 567.53 519.796 567.29 520.556 567.29C521.296 567.29 521.906 567.53 522.386 568.01C522.866 568.47 523.106 569.05 523.106 569.75C523.106 570.45 522.866 571.04 522.386 571.52C521.906 571.98 521.296 572.21 520.556 572.21ZM526.009 560.78C526.009 557.32 526.629 554.61 527.869 552.65C529.129 550.69 531.209 549.71 534.109 549.71C537.009 549.71 539.079 550.69 540.319 552.65C541.579 554.61 542.209 557.32 542.209 560.78C542.209 564.26 541.579 566.99 540.319 568.97C539.079 570.95 537.009 571.94 534.109 571.94C531.209 571.94 529.129 570.95 527.869 568.97C526.629 566.99 526.009 564.26 526.009 560.78ZM538.069 560.78C538.069 559.3 537.969 558.06 537.769 557.06C537.589 556.04 537.209 555.21 536.629 554.57C536.069 553.93 535.229 553.61 534.109 553.61C532.989 553.61 532.139 553.93 531.559 554.57C530.999 555.21 530.619 556.04 530.419 557.06C530.239 558.06 530.149 559.3 530.149 560.78C530.149 562.3 530.239 563.58 530.419 564.62C530.599 565.64 530.979 566.47 531.559 567.11C532.139 567.73 532.989 568.04 534.109 568.04C535.229 568.04 536.079 567.73 536.659 567.11C537.239 566.47 537.619 565.64 537.799 564.62C537.979 563.58 538.069 562.3 538.069 560.78ZM545.403 560.78C545.403 557.32 546.023 554.61 547.263 552.65C548.523 550.69 550.603 549.71 553.503 549.71C556.403 549.71 558.473 550.69 559.713 552.65C560.973 554.61 561.603 557.32 561.603 560.78C561.603 564.26 560.973 566.99 559.713 568.97C558.473 570.95 556.403 571.94 553.503 571.94C550.603 571.94 548.523 570.95 547.263 568.97C546.023 566.99 545.403 564.26 545.403 560.78ZM557.463 560.78C557.463 559.3 557.363 558.06 557.163 557.06C556.983 556.04 556.603 555.21 556.023 554.57C555.463 553.93 554.623 553.61 553.503 553.61C552.383 553.61 551.533 553.93 550.953 554.57C550.393 555.21 550.013 556.04 549.813 557.06C549.633 558.06 549.543 559.3 549.543 560.78C549.543 562.3 549.633 563.58 549.813 564.62C549.993 565.64 550.373 566.47 550.953 567.11C551.533 567.73 552.383 568.04 553.503 568.04C554.623 568.04 555.473 567.73 556.053 567.11C556.633 566.47 557.013 565.64 557.193 564.62C557.373 563.58 557.463 562.3 557.463 560.78ZM564.798 560.78C564.798 557.32 565.418 554.61 566.658 552.65C567.918 550.69 569.998 549.71 572.898 549.71C575.798 549.71 577.868 550.69 579.108 552.65C580.368 554.61 580.998 557.32 580.998 560.78C580.998 564.26 580.368 566.99 579.108 568.97C577.868 570.95 575.798 571.94 572.898 571.94C569.998 571.94 567.918 570.95 566.658 568.97C565.418 566.99 564.798 564.26 564.798 560.78ZM576.858 560.78C576.858 559.3 576.758 558.06 576.558 557.06C576.378 556.04 575.998 555.21 575.418 554.57C574.858 553.93 574.018 553.61 572.898 553.61C571.778 553.61 570.928 553.93 570.348 554.57C569.788 555.21 569.408 556.04 569.208 557.06C569.028 558.06 568.938 559.3 568.938 560.78C568.938 562.3 569.028 563.58 569.208 564.62C569.388 565.64 569.768 566.47 570.348 567.11C570.928 567.73 571.778 568.04 572.898 568.04C574.018 568.04 574.868 567.73 575.448 567.11C576.028 566.47 576.408 565.64 576.588 564.62C576.768 563.58 576.858 562.3 576.858 560.78Z" fill="#00A2E9"/>
<path d="M366 578.5C366 600.315 348.315 618 326.5 618C304.685 618 287 600.315 287 578.5C287 556.685 304.685 539 326.5 539C348.315 539 366 556.685 366 578.5ZM293.883 578.5C293.883 596.514 308.486 611.117 326.5 611.117C344.514 611.117 359.117 596.514 359.117 578.5C359.117 560.486 344.514 545.883 326.5 545.883C308.486 545.883 293.883 560.486 293.883 578.5Z" fill="#C4C4C4"/>
<path d="M357.509 596.827C359.164 597.805 359.724 599.95 358.605 601.512C354.989 606.557 350.224 610.692 344.685 613.565C338.113 616.973 330.716 618.466 323.337 617.873C315.958 617.28 308.894 614.626 302.951 610.213C297.008 605.799 292.424 599.804 289.723 592.912C287.022 586.02 286.312 578.507 287.675 571.23C289.037 563.954 292.417 557.207 297.429 551.759C302.44 546.31 308.882 542.38 316.02 540.416C322.035 538.76 328.341 538.558 334.422 539.803C336.305 540.188 337.351 542.143 336.801 543.985V543.985C336.252 545.826 334.314 546.854 332.424 546.504C327.602 545.611 322.624 545.817 317.866 547.126C311.987 548.745 306.68 551.982 302.551 556.471C298.423 560.959 295.638 566.517 294.516 572.511C293.394 578.506 293.978 584.695 296.203 590.372C298.428 596.05 302.204 600.989 307.1 604.625C311.997 608.26 317.816 610.447 323.895 610.935C329.973 611.424 336.067 610.194 341.481 607.386C345.861 605.115 349.654 601.884 352.586 597.952C353.735 596.411 355.854 595.849 357.509 596.827V596.827Z" fill="#00A2E9"/>
<path d="M301.256 642.21H295.784L294.776 645H293.048L297.584 632.526H299.474L303.992 645H302.264L301.256 642.21ZM300.788 640.878L298.52 634.542L296.252 640.878H300.788ZM309.461 645.162C308.705 645.162 308.027 645.036 307.427 644.784C306.827 644.52 306.353 644.16 306.005 643.704C305.657 643.236 305.465 642.702 305.429 642.102H307.121C307.169 642.594 307.397 642.996 307.805 643.308C308.225 643.62 308.771 643.776 309.443 643.776C310.067 643.776 310.559 643.638 310.919 643.362C311.279 643.086 311.459 642.738 311.459 642.318C311.459 641.886 311.267 641.568 310.883 641.364C310.499 641.148 309.905 640.938 309.101 640.734C308.369 640.542 307.769 640.35 307.301 640.158C306.845 639.954 306.449 639.66 306.113 639.276C305.789 638.88 305.627 638.364 305.627 637.728C305.627 637.224 305.777 636.762 306.077 636.342C306.377 635.922 306.803 635.592 307.355 635.352C307.907 635.1 308.537 634.974 309.245 634.974C310.337 634.974 311.219 635.25 311.891 635.802C312.563 636.354 312.923 637.11 312.971 638.07H311.333C311.297 637.554 311.087 637.14 310.703 636.828C310.331 636.516 309.827 636.36 309.191 636.36C308.603 636.36 308.135 636.486 307.787 636.738C307.439 636.99 307.265 637.32 307.265 637.728C307.265 638.052 307.367 638.322 307.571 638.538C307.787 638.742 308.051 638.91 308.363 639.042C308.687 639.162 309.131 639.3 309.695 639.456C310.403 639.648 310.979 639.84 311.423 640.032C311.867 640.212 312.245 640.488 312.557 640.86C312.881 641.232 313.049 641.718 313.061 642.318C313.061 642.858 312.911 643.344 312.611 643.776C312.311 644.208 311.885 644.55 311.333 644.802C310.793 645.042 310.169 645.162 309.461 645.162ZM318.865 645.162C318.109 645.162 317.431 645.036 316.831 644.784C316.231 644.52 315.757 644.16 315.409 643.704C315.061 643.236 314.869 642.702 314.833 642.102H316.525C316.573 642.594 316.801 642.996 317.209 643.308C317.629 643.62 318.175 643.776 318.847 643.776C319.471 643.776 319.963 643.638 320.323 643.362C320.683 643.086 320.863 642.738 320.863 642.318C320.863 641.886 320.671 641.568 320.287 641.364C319.903 641.148 319.309 640.938 318.505 640.734C317.773 640.542 317.173 640.35 316.705 640.158C316.249 639.954 315.853 639.66 315.517 639.276C315.193 638.88 315.031 638.364 315.031 637.728C315.031 637.224 315.181 636.762 315.481 636.342C315.781 635.922 316.207 635.592 316.759 635.352C317.311 635.1 317.941 634.974 318.649 634.974C319.741 634.974 320.623 635.25 321.295 635.802C321.967 636.354 322.327 637.11 322.375 638.07H320.737C320.701 637.554 320.491 637.14 320.107 636.828C319.735 636.516 319.231 636.36 318.595 636.36C318.007 636.36 317.539 636.486 317.191 636.738C316.843 636.99 316.669 637.32 316.669 637.728C316.669 638.052 316.771 638.322 316.975 638.538C317.191 638.742 317.455 638.91 317.767 639.042C318.091 639.162 318.535 639.3 319.099 639.456C319.807 639.648 320.383 639.84 320.827 640.032C321.271 640.212 321.649 640.488 321.961 640.86C322.285 641.232 322.453 641.718 322.465 642.318C322.465 642.858 322.315 643.344 322.015 643.776C321.715 644.208 321.289 644.55 320.737 644.802C320.197 645.042 319.573 645.162 318.865 645.162ZM325.624 633.534C325.312 633.534 325.048 633.426 324.832 633.21C324.616 632.994 324.508 632.73 324.508 632.418C324.508 632.106 324.616 631.842 324.832 631.626C325.048 631.41 325.312 631.302 325.624 631.302C325.924 631.302 326.176 631.41 326.38 631.626C326.596 631.842 326.704 632.106 326.704 632.418C326.704 632.73 326.596 632.994 326.38 633.21C326.176 633.426 325.924 633.534 325.624 633.534ZM326.416 635.136V645H324.778V635.136H326.416ZM333.275 634.974C334.127 634.974 334.871 635.16 335.507 635.532C336.155 635.904 336.635 636.372 336.947 636.936V635.136H338.603V645.216C338.603 646.116 338.411 646.914 338.027 647.61C337.643 648.318 337.091 648.87 336.371 649.266C335.663 649.662 334.835 649.86 333.887 649.86C332.591 649.86 331.511 649.554 330.647 648.942C329.783 648.33 329.273 647.496 329.117 646.44H330.737C330.917 647.04 331.289 647.52 331.853 647.88C332.417 648.252 333.095 648.438 333.887 648.438C334.787 648.438 335.519 648.156 336.083 647.592C336.659 647.028 336.947 646.236 336.947 645.216V643.146C336.623 643.722 336.143 644.202 335.507 644.586C334.871 644.97 334.127 645.162 333.275 645.162C332.399 645.162 331.601 644.946 330.881 644.514C330.173 644.082 329.615 643.476 329.207 642.696C328.799 641.916 328.595 641.028 328.595 640.032C328.595 639.024 328.799 638.142 329.207 637.386C329.615 636.618 330.173 636.024 330.881 635.604C331.601 635.184 332.399 634.974 333.275 634.974ZM336.947 640.05C336.947 639.306 336.797 638.658 336.497 638.106C336.197 637.554 335.789 637.134 335.273 636.846C334.769 636.546 334.211 636.396 333.599 636.396C332.987 636.396 332.429 636.54 331.925 636.828C331.421 637.116 331.019 637.536 330.719 638.088C330.419 638.64 330.269 639.288 330.269 640.032C330.269 640.788 330.419 641.448 330.719 642.012C331.019 642.564 331.421 642.99 331.925 643.29C332.429 643.578 332.987 643.722 333.599 643.722C334.211 643.722 334.769 643.578 335.273 643.29C335.789 642.99 336.197 642.564 336.497 642.012C336.797 641.448 336.947 640.794 336.947 640.05ZM346.177 634.956C347.377 634.956 348.349 635.322 349.093 636.054C349.837 636.774 350.209 637.818 350.209 639.186V645H348.589V639.42C348.589 638.436 348.343 637.686 347.851 637.17C347.359 636.642 346.687 636.378 345.835 636.378C344.971 636.378 344.281 636.648 343.765 637.188C343.261 637.728 343.009 638.514 343.009 639.546V645H341.371V635.136H343.009V636.54C343.333 636.036 343.771 635.646 344.323 635.37C344.887 635.094 345.505 634.956 346.177 634.956ZM359.322 636.954C359.646 636.39 360.126 635.922 360.762 635.55C361.41 635.166 362.16 634.974 363.012 634.974C363.888 634.974 364.68 635.184 365.388 635.604C366.108 636.024 366.672 636.618 367.08 637.386C367.488 638.142 367.692 639.024 367.692 640.032C367.692 641.028 367.488 641.916 367.08 642.696C366.672 643.476 366.108 644.082 365.388 644.514C364.68 644.946 363.888 645.162 363.012 645.162C362.172 645.162 361.428 644.976 360.78 644.604C360.144 644.22 359.658 643.746 359.322 643.182V649.68H357.684V635.136H359.322V636.954ZM366.018 640.032C366.018 639.288 365.868 638.64 365.568 638.088C365.268 637.536 364.86 637.116 364.344 636.828C363.84 636.54 363.282 636.396 362.67 636.396C362.07 636.396 361.512 636.546 360.996 636.846C360.492 637.134 360.084 637.56 359.772 638.124C359.472 638.676 359.322 639.318 359.322 640.05C359.322 640.794 359.472 641.448 359.772 642.012C360.084 642.564 360.492 642.99 360.996 643.29C361.512 643.578 362.07 643.722 362.67 643.722C363.282 643.722 363.84 643.578 364.344 643.29C364.86 642.99 365.268 642.564 365.568 642.012C365.868 641.448 366.018 640.788 366.018 640.032ZM369.236 640.032C369.236 639.024 369.44 638.142 369.848 637.386C370.256 636.618 370.814 636.024 371.522 635.604C372.242 635.184 373.04 634.974 373.916 634.974C374.78 634.974 375.53 635.16 376.166 635.532C376.802 635.904 377.276 636.372 377.588 636.936V635.136H379.244V645H377.588V643.164C377.264 643.74 376.778 644.22 376.13 644.604C375.494 644.976 374.75 645.162 373.898 645.162C373.022 645.162 372.23 644.946 371.522 644.514C370.814 644.082 370.256 643.476 369.848 642.696C369.44 641.916 369.236 641.028 369.236 640.032ZM377.588 640.05C377.588 639.306 377.438 638.658 377.138 638.106C376.838 637.554 376.43 637.134 375.914 636.846C375.41 636.546 374.852 636.396 374.24 636.396C373.628 636.396 373.07 636.54 372.566 636.828C372.062 637.116 371.66 637.536 371.36 638.088C371.06 638.64 370.91 639.288 370.91 640.032C370.91 640.788 371.06 641.448 371.36 642.012C371.66 642.564 372.062 642.99 372.566 643.29C373.07 643.578 373.628 643.722 374.24 643.722C374.852 643.722 375.41 643.578 375.914 643.29C376.43 642.99 376.838 642.564 377.138 642.012C377.438 641.448 377.588 640.794 377.588 640.05ZM390.508 635.136L384.568 649.644H382.876L384.82 644.892L380.842 635.136H382.66L385.756 643.128L388.816 635.136H390.508ZM404.017 634.956C404.785 634.956 405.469 635.118 406.069 635.442C406.669 635.754 407.143 636.228 407.491 636.864C407.839 637.5 408.013 638.274 408.013 639.186V645H406.393V639.42C406.393 638.436 406.147 637.686 405.655 637.17C405.175 636.642 404.521 636.378 403.693 636.378C402.841 636.378 402.163 636.654 401.659 637.206C401.155 637.746 400.903 638.532 400.903 639.564V645H399.283V639.42C399.283 638.436 399.037 637.686 398.545 637.17C398.065 636.642 397.411 636.378 396.583 636.378C395.731 636.378 395.053 636.654 394.549 637.206C394.045 637.746 393.793 638.532 393.793 639.564V645H392.155V635.136H393.793V636.558C394.117 636.042 394.549 635.646 395.089 635.37C395.641 635.094 396.247 634.956 396.907 634.956C397.735 634.956 398.467 635.142 399.103 635.514C399.739 635.886 400.213 636.432 400.525 637.152C400.801 636.456 401.257 635.916 401.893 635.532C402.529 635.148 403.237 634.956 404.017 634.956ZM419.699 639.69C419.699 640.002 419.681 640.332 419.645 640.68H411.761C411.821 641.652 412.151 642.414 412.751 642.966C413.363 643.506 414.101 643.776 414.965 643.776C415.673 643.776 416.261 643.614 416.729 643.29C417.209 642.954 417.545 642.51 417.737 641.958H419.501C419.237 642.906 418.709 643.68 417.917 644.28C417.125 644.868 416.141 645.162 414.965 645.162C414.029 645.162 413.189 644.952 412.445 644.532C411.713 644.112 411.137 643.518 410.717 642.75C410.297 641.97 410.087 641.07 410.087 640.05C410.087 639.03 410.291 638.136 410.699 637.368C411.107 636.6 411.677 636.012 412.409 635.604C413.153 635.184 414.005 634.974 414.965 634.974C415.901 634.974 416.729 635.178 417.449 635.586C418.169 635.994 418.721 636.558 419.105 637.278C419.501 637.986 419.699 638.79 419.699 639.69ZM418.007 639.348C418.007 638.724 417.869 638.19 417.593 637.746C417.317 637.29 416.939 636.948 416.459 636.72C415.991 636.48 415.469 636.36 414.893 636.36C414.065 636.36 413.357 636.624 412.769 637.152C412.193 637.68 411.863 638.412 411.779 639.348H418.007ZM426.668 634.956C427.868 634.956 428.84 635.322 429.584 636.054C430.328 636.774 430.7 637.818 430.7 639.186V645H429.08V639.42C429.08 638.436 428.834 637.686 428.342 637.17C427.85 636.642 427.178 636.378 426.326 636.378C425.462 636.378 424.772 636.648 424.256 637.188C423.752 637.728 423.5 638.514 423.5 639.546V645H421.862V635.136H423.5V636.54C423.824 636.036 424.262 635.646 424.814 635.37C425.378 635.094 425.996 634.956 426.668 634.956ZM435.373 636.486V642.3C435.373 642.78 435.475 643.122 435.679 643.326C435.883 643.518 436.237 643.614 436.741 643.614H437.947V645H436.471C435.559 645 434.875 644.79 434.419 644.37C433.963 643.95 433.735 643.26 433.735 642.3V636.486H432.457V635.136H433.735V632.652H435.373V635.136H437.947V636.486H435.373Z" fill="#B1B1B1"/>
<defs>
<filter id="filter0_d_5_1348" x="58" y="269" width="516" height="309" filterUnits="userSpaceOnUse" color-interpolation-filters="sRGB">
<feFlood flood-opacity="0" result="BackgroundImageFix"/>
<feColorMatrix in="SourceAlpha" type="matrix" values="0 0 0 0 0 0 0 0 0 0 0 0 0 0 0 0 0 0 127 0" result="hardAlpha"/>
<feMorphology radius="2" operator="dilate" in="SourceAlpha" result="effect1_dropShadow_5_1348"/>
<feOffset dy="4"/>
<feGaussianBlur stdDeviation="2"/>
<feComposite in2="hardAlpha" operator="out"/>
<feColorMatrix type="matrix" values="0 0 0 0 1 0 0 0 0 1 0 0 0 0 1 0 0 0 0.25 0"/>
<feBlend mode="normal" in2="BackgroundImageFix" result="effect1_dropShadow_5_1348"/>
<feBlend mode="normal" in="SourceGraphic" in2="effect1_dropShadow_5_1348" result="shape"/>
</filter>
<clipPath id="clip0_5_1348">
<rect width="77" height="77" fill="white" transform="translate(113 324)"/>
</clipPath>
<clipPath id="clip1_5_1348">
<rect width="23" height="23" fill="white" transform="translate(129 483)"/>
</clipPath>
</defs>
</svg>
